<?xml version="1.0" encoding="UTF-8"?>
<svg version="1.1" xmlns="http://www.w3.org/2000/svg" width="917" height="764">
<path d="M0 0 C302.61 0 605.22 0 917 0 C917 252.12 917 504.24 917 764 C614.39 764 311.78 764 0 764 C0 511.88 0 259.76 0 0 Z " fill="#111A35" transform="translate(0,0)"/>
<path d="M0 0 C2.35410931 -0.00217682 4.70774129 -0.02036422 7.06176758 -0.03930664 C19.23957435 -0.08546313 30.94252072 0.65522312 42.6887207 4.18530273 C44.16556921 4.56933076 45.64430374 4.94632313 47.1262207 5.31030273 C48.3018457 5.59905273 49.4774707 5.88780273 50.6887207 6.18530273 C50.6887207 6.84530273 50.6887207 7.50530273 50.6887207 8.18530273 C52.07124023 8.27231445 52.07124023 8.27231445 53.48168945 8.36108398 C59.09580944 9.16955112 63.96372252 11.89164692 69.0012207 14.37280273 C70.47365234 15.07759766 70.47365234 15.07759766 71.97583008 15.79663086 C98.36088143 28.59626199 121.65286164 48.48723886 136.41137695 73.99780273 C137.52561653 75.9059806 138.69370562 77.73610481 139.9387207 79.56030273 C141.38397602 81.72818571 142.59928849 83.82486627 143.6887207 86.18530273 C144.3899707 85.88624023 145.0912207 85.58717773 145.8137207 85.27905273 C149.7142501 83.79515568 153.69401255 82.91875465 157.7512207 81.96655273 C160.63151717 81.27090117 160.63151717 81.27090117 163.04125977 80.20556641 C172.14076544 76.69884986 182.19025518 76.83972709 191.81420898 76.86962891 C193.92265134 76.87277873 196.02967009 76.84926598 198.13793945 76.82397461 C212.26410828 76.7581114 225.40369949 79.2285808 238.6887207 84.18530273 C238.6887207 84.84530273 238.6887207 85.50530273 238.6887207 86.18530273 C239.53176758 86.2690918 240.37481445 86.35288086 241.2434082 86.43920898 C245.25456471 87.30783811 248.35047896 89.01879028 251.8137207 91.12280273 C257.15917866 94.32191316 257.15917866 94.32191316 262.6887207 97.18530273 C262.6887207 97.84530273 262.6887207 98.50530273 262.6887207 99.18530273 C263.25848633 99.44956055 263.82825195 99.71381836 264.4152832 99.98608398 C270.69926063 103.30082809 275.91134284 108.06172128 280.34887695 113.55639648 C281.84255563 115.42595298 281.84255563 115.42595298 284.3762207 117.87280273 C289.6887207 123.18530273 289.6887207 123.18530273 289.6887207 126.18530273 C290.6787207 126.51530273 291.6687207 126.84530273 292.6887207 127.18530273 C294.2563473 129.55913729 295.64804538 131.88042796 297.0012207 134.37280273 C297.59725098 135.46202026 297.59725098 135.46202026 298.20532227 136.57324219 C313.64570113 165.21295707 317.9032506 197.32888493 308.47119141 228.83032227 C306.06841927 236.06187923 302.97254402 242.91198894 299.5012207 249.68530273 C299.14608398 250.38655273 298.79094727 251.08780273 298.42504883 251.81030273 C297.51629307 253.60367273 296.60286266 255.39467227 295.6887207 257.18530273 C295.3587207 257.84530273 295.0287207 258.50530273 294.6887207 259.18530273 C294.0287207 259.18530273 293.3687207 259.18530273 292.6887207 259.18530273 C292.42961914 259.74088867 292.17051758 260.29647461 291.90356445 260.86889648 C287.05805326 270.10808664 279.65324061 278.48224406 271.6887207 285.18530273 C270.36267419 285.54653609 269.03078685 285.88908093 267.6887207 286.18530273 C267.3587207 287.17530273 267.0287207 288.16530273 266.6887207 289.18530273 C264.65220171 290.72387345 262.66073863 292.09124499 260.5012207 293.43530273 C259.8733667 293.83007812 259.2455127 294.22485352 258.59863281 294.6315918 C245.34266729 302.82829362 229.36409342 311.46097437 213.3762207 311.24780273 C212.49321289 311.2387793 211.61020508 311.22975586 210.70043945 311.22045898 C209.70463867 311.20305664 209.70463867 311.20305664 208.6887207 311.18530273 C208.6887207 311.84530273 208.6887207 312.50530273 208.6887207 313.18530273 C161.23881732 313.23104814 113.78891627 313.26630564 66.3389952 313.28743339 C60.74121487 313.2899349 55.14343457 313.29252354 49.5456543 313.29516602 C48.43120423 313.29569064 47.31675416 313.29621526 46.16853288 313.29675578 C28.10698674 313.30546607 10.0454533 313.32123947 -8.0160853 313.33960833 C-26.53926709 313.35829002 -45.06244222 313.36941579 -63.58563304 313.37347972 C-75.02184195 313.37622838 -86.458015 313.38491987 -97.89421287 313.40113567 C-105.72901457 313.4116812 -113.56379763 313.41490889 -121.39860591 313.41230549 C-125.92357148 313.4110204 -130.44847424 313.41303501 -134.97342873 313.42371368 C-139.11245079 313.4334106 -143.2513675 313.43396093 -147.3903943 313.42710052 C-148.8911306 313.426252 -150.39187334 313.42881917 -151.89259687 313.4350691 C-153.92631887 313.44304917 -155.96008052 313.43759336 -157.99380875 313.43139839 C-159.69115862 313.43253755 -159.69115862 313.43253755 -161.4227984 313.43369973 C-164.28712945 313.18737952 -165.86581642 312.62061044 -168.3112793 311.18530273 C-169.63549826 310.87293657 -170.97048523 310.60388656 -172.3112793 310.37280273 C-178.25122601 309.13531383 -183.9031381 306.92449113 -189.3112793 304.18530273 C-189.6412793 303.52530273 -189.9712793 302.86530273 -190.3112793 302.18530273 C-190.9712793 302.02030273 -191.6312793 301.85530273 -192.3112793 301.68530273 C-192.9712793 301.52030273 -193.6312793 301.35530273 -194.3112793 301.18530273 C-194.6412793 300.52530273 -194.9712793 299.86530273 -195.3112793 299.18530273 C-196.22135742 298.74186523 -197.13143555 298.29842773 -198.0690918 297.84155273 C-210.41021559 291.53717143 -218.6471478 277.33822854 -224.3112793 265.18530273 C-224.8475293 264.25717773 -225.3837793 263.32905273 -225.9362793 262.37280273 C-231.14921888 250.28826097 -230.70497318 238.07812561 -230.3112793 225.18530273 C-230.29194336 223.92588867 -230.27260742 222.66647461 -230.25268555 221.36889648 C-229.93834117 213.45313347 -227.75324676 207.2740006 -224.3112793 200.18530273 C-223.92842773 199.3203418 -223.54557617 198.45538086 -223.15112305 197.56420898 C-215.27322636 180.44647414 -199.57822885 165.89472591 -182.4362793 158.37280273 C-173.12579435 154.99960378 -163.10353721 154.24403211 -153.3112793 153.18530273 C-153.36928711 151.98518555 -153.42729492 150.78506836 -153.48706055 149.54858398 C-153.91651281 136.38627209 -151.89662933 124.81471576 -148.3112793 112.18530273 C-147.97999023 110.97229492 -147.64870117 109.75928711 -147.30737305 108.50952148 C-142.73688733 93.25664563 -135.5316494 77.48298384 -125.3112793 65.18530273 C-124.80467773 64.50983398 -124.29807617 63.83436523 -123.77612305 63.13842773 C-118.73893485 56.4221768 -113.10684677 50.25009487 -107.3112793 44.18530273 C-106.77196777 43.61900146 -106.23265625 43.0527002 -105.67700195 42.46923828 C-101.62373262 38.30575748 -97.359669 34.69435561 -92.6862793 31.24780273 C-91.99550293 30.73564209 -91.30472656 30.22348145 -90.59301758 29.69580078 C-73.37929134 17.08307855 -73.37929134 17.08307855 -65.3112793 16.18530273 C-65.3112793 15.52530273 -65.3112793 14.86530273 -65.3112793 14.18530273 C-44.04310001 4.71935172 -23.26082295 -0.00239827 0 0 Z " fill="#FDFDFD" transform="translate(421.311279296875,214.814697265625)"/>
<path d="M0 0 C4.62609198 -0.3227506 7.28026121 0.15549386 11 3 C11 3.66 11 4.32 11 5 C12.03125 5.268125 13.0625 5.53625 14.125 5.8125 C18.89087647 7.18101473 22.98060671 9.39500422 27.23828125 11.921875 C38.68035369 18.45891874 52.23742877 21.75553779 64.83129883 25.37133789 C66.78473023 25.9375977 68.72899493 26.53525269 70.671875 27.13671875 C74.06927517 28.01796926 77.1878113 28.36784276 80.6875 28.5625 C84.2557377 28.76795669 87.564057 28.988445 91 30 C91 30.66 91 31.32 91 32 C102.84505689 32.89290028 114.62411147 33.20147396 126.5 33.1875 C127.37374268 33.18722809 128.24748535 33.18695618 129.14770508 33.18667603 C162.5911705 33.13897597 194.95268275 28.94652907 225.8125 15.33984375 C228.8982574 14.04276681 230.7110789 13.53015413 234 14 C234.99 14.99 234.99 14.99 236 16 C235.84972795 18.83205011 235.21539233 19.80588099 233.1015625 21.7109375 C227.69573735 25.34324273 222.22829583 28.63954327 216.4453125 31.640625 C213.98198084 32.92733092 213.98198084 32.92733092 211.9140625 34.62890625 C209.12460414 36.62706928 206.35593997 36.67731346 203 37 C203 37.66 203 38.32 203 39 C200.37605694 39.83679277 197.75095616 40.66956942 195.125 41.5 C194.37863281 41.73847656 193.63226562 41.97695313 192.86328125 42.22265625 C187.2265625 44 187.2265625 44 185 44 C185 44.66 185 45.32 185 46 C182.29120665 47.35439668 179.99066732 47.06501451 177 47 C177 47.66 177 48.32 177 49 C172.06530966 51.48299429 166.98037934 51.70184382 161.5625 52.125 C160.49862061 52.2084668 159.43474121 52.29193359 158.33862305 52.37792969 C148.00039792 53.08885949 137.6717736 53.21943906 127.3125 53.25 C126.50724884 53.25517639 125.70199768 53.26035278 124.87234497 53.26568604 C111.81179776 53.33190637 99.25057469 52.98417386 87 48 C84.22941259 47.30566459 81.42920275 46.78967912 78.625 46.25 C54.48199761 41.19739746 29.96992689 28.67956789 11 13 C10.01386719 12.24332031 9.02773438 11.48664063 8.01171875 10.70703125 C6.99722656 9.91683594 5.98273438 9.12664062 4.9375 8.3125 C3.99777344 7.58675781 3.05804688 6.86101562 2.08984375 6.11328125 C0 4 0 4 0 0 Z " fill="#FC9904" transform="translate(333,435)"/>
<path d="M0 0 C2.10304477 -0.1080023 4.20766909 -0.18558987 6.3125 -0.25 C8.07013672 -0.31960938 8.07013672 -0.31960938 9.86328125 -0.390625 C13 0 13 0 14.61376953 1.72387695 C16.08035278 4.13193535 16.71531603 6.0626253 17.31640625 8.80859375 C17.52330078 9.72060547 17.73019531 10.63261719 17.94335938 11.57226562 C18.14767578 12.51779297 18.35199219 13.46332031 18.5625 14.4375 C18.97691436 16.31198726 19.39477746 18.18571604 19.81640625 20.05859375 C19.99631104 20.88673584 20.17621582 21.71487793 20.36157227 22.56811523 C21.04017766 25.15304385 21.9883081 27.52892223 23 30 C25.57665315 40.19868996 27.23101214 50.63699309 29 61 C29.66 61 30.32 61 31 61 C31.02578125 60.319375 31.0515625 59.63875 31.078125 58.9375 C31.4608698 52.39604337 32.51053727 46.32949933 34.20605469 40.00244141 C35.42317143 35.41953698 36.48194377 30.82465348 37.45703125 26.18359375 C37.71202393 24.98033447 37.9670166 23.7770752 38.22973633 22.53735352 C38.7355554 20.13234816 39.23180028 17.72530532 39.7175293 15.31616211 C42.13621988 3.93954051 42.13621988 3.93954051 46 0 C48.91015625 -0.7265625 48.91015625 -0.7265625 52.0625 -0.625 C53.62677734 -0.61339844 53.62677734 -0.61339844 55.22265625 -0.6015625 C58 0 58 0 59.59790039 1.73828125 C61.09851996 4.15892198 61.66634672 6.0043341 62.2109375 8.7890625 C62.40131592 9.72218262 62.59169434 10.65530273 62.7878418 11.61669922 C63.07848511 13.10580811 63.07848511 13.10580811 63.375 14.625 C65.06157726 22.84099439 66.95084526 30.92332508 69.30029297 38.97509766 C73.36178719 52.9451498 73.36178719 52.9451498 73 60 C73.66 60 74.32 60 75 60 C75.18175781 58.78763672 75.18175781 58.78763672 75.3671875 57.55078125 C75.53476562 56.48214844 75.70234375 55.41351563 75.875 54.3125 C76.03742188 53.25675781 76.19984375 52.20101562 76.3671875 51.11328125 C77 48 77 48 77.94921875 45.74609375 C79.87598053 40.71072746 80.49400501 35.30876534 81.41210938 30.01171875 C82.34858848 24.82563922 83.55725524 19.9400734 85.31079102 14.96923828 C86.44713692 11.72242068 87.28204065 8.39152397 88.15625 5.06640625 C89 3 89 3 92 1 C94.91796875 0.8046875 94.91796875 0.8046875 98.1875 0.875 C99.27417969 0.89304687 100.36085938 0.91109375 101.48046875 0.9296875 C102.72763672 0.96449219 102.72763672 0.96449219 104 1 C103.2280788 6.69887505 101.65002855 12.11243084 100.0625 17.625 C99.79759766 18.56601562 99.53269531 19.50703125 99.25976562 20.4765625 C99.00001953 21.3840625 98.74027344 22.2915625 98.47265625 23.2265625 C98.12086304 24.45753662 98.12086304 24.45753662 97.76196289 25.71337891 C97.01942811 27.94169699 96.07447468 29.91616185 95 32 C94.66322648 33.30165637 94.37354464 34.61615551 94.125 35.9375 C92.55465905 43.43062298 90.32875863 50.84630777 87.4375 57.9375 C85.51090991 62.82240603 84.66133479 67.98581339 83.6484375 73.12109375 C83 76 83 76 82 77 C79.30345146 77.07319621 76.63308542 77.09242537 73.9375 77.0625 C73.17888672 77.05798828 72.42027344 77.05347656 71.63867188 77.04882812 C69.75908129 77.0370068 67.87953101 77.01907078 66 77 C65.58333333 75.33333333 65.16666667 73.66666667 64.75 72 C64.33427734 70.34291016 64.33427734 70.34291016 63.91015625 68.65234375 C63.30643571 66.22968838 62.71000121 63.80520498 62.12109375 61.37890625 C59.97502867 52.60607953 57.59549616 43.92667892 55.01831055 35.26977539 C53.62251241 30.50713193 52.55566663 25.93405188 52 21 C48.72123824 27.40848889 47.9066512 33.90678764 47 41 C46.34 41 45.68 41 45 41 C44.88398438 42.06734375 44.76796875 43.1346875 44.6484375 44.234375 C43.92927089 49.96247397 42.78045325 55.59653229 41.625 61.25 C41.41617188 62.32507813 41.20734375 63.40015625 40.9921875 64.5078125 C40.78078125 65.54164063 40.569375 66.57546875 40.3515625 67.640625 C40.16416504 68.57422852 39.97676758 69.50783203 39.78369141 70.46972656 C38.93131482 73.22176113 37.96736655 74.90314584 36 77 C33.1875 77.49609375 33.1875 77.49609375 30 77.4375 C28.948125 77.43621094 27.89625 77.43492187 26.8125 77.43359375 C23.58030354 76.9352968 22.99865047 76.48474411 21 74 C20.08032227 71.75439453 20.08032227 71.75439453 19.31640625 69.1328125 C19.03063721 68.17101074 18.74486816 67.20920898 18.45043945 66.21826172 C18.15741943 65.19748535 17.86439941 64.17670898 17.5625 63.125 C16.94279532 61.02601598 16.32300428 58.92705746 15.703125 56.828125 C15.40857422 55.81814453 15.11402344 54.80816406 14.81054688 53.76757812 C13.84181929 50.45989863 12.83406703 47.16671599 11.8125 43.875 C11.50699219 42.88371094 11.20148438 41.89242187 10.88671875 40.87109375 C10.28585488 38.92556535 9.68427006 36.98025948 9.08203125 35.03515625 C8.434629 32.93968693 7.79017862 30.84330372 7.1484375 28.74609375 C6.51583106 26.68259179 5.88145015 24.61962085 5.23925781 22.55908203 C4.40301288 19.87468632 3.57607721 17.18754008 2.75 14.5 C2.47945801 13.63882568 2.20891602 12.77765137 1.93017578 11.89038086 C0.69351836 7.83919308 -0.38680573 4.29002722 0 0 Z " fill="#283140" transform="translate(414,335)"/>
<path d="M0 0 C0.94166016 -0.00773437 1.88332031 -0.01546875 2.85351562 -0.0234375 C8.55725645 -0.0075607 13.46726976 0.62632742 18.9375 2.25 C18.9375 2.91 18.9375 3.57 18.9375 4.25 C19.494375 4.476875 20.05125 4.70375 20.625 4.9375 C26.57616667 8.31518919 28.53802797 12.19326387 30.32861328 18.51208496 C31.27322375 22.75961268 31.35919553 26.86653459 31.34375 31.203125 C31.35458618 32.10697937 31.36542236 33.01083374 31.37658691 33.94207764 C31.42200363 37.76211854 31.43394816 41.58208134 31.44873047 45.40234375 C31.46445157 48.21118013 31.49743411 51.01945751 31.53125 53.828125 C31.52822876 54.68448547 31.52520752 55.54084595 31.52209473 56.42315674 C31.58572454 61.50885197 32.35111484 64.74517988 34.9375 69.25 C35 71.875 35 71.875 33.9375 74.25 C31.00118765 76.78590612 29.19023616 78.25 25.25 78.25 C22.46636573 77.04626626 21.43962686 75.85895718 19.9375 73.25 C19.9375 72.59 19.9375 71.93 19.9375 71.25 C19.2775 71.25 18.6175 71.25 17.9375 71.25 C17.9375 70.59 17.9375 69.93 17.9375 69.25 C16.94169922 69.95576172 16.94169922 69.95576172 15.92578125 70.67578125 C14.60126953 71.60970703 14.60126953 71.60970703 13.25 72.5625 C12.37988281 73.17738281 11.50976562 73.79226563 10.61328125 74.42578125 C2.20972386 80.15492183 -4.96298968 80.95778239 -15.0625 80.25 C-22.76712774 78.22911403 -26.66158886 72.73519359 -31 66.4375 C-33.25603688 59.66938936 -32.96299381 53.4081529 -29.9375 46.9375 C-26.18561673 40.38989208 -23.10447131 36.55291986 -15.6875 34.375 C-4.96030589 32.12015447 6.35398418 32.4005919 16.9375 35.25 C16.90046166 25.15383893 16.90046166 25.15383893 12.9375 16.25 C7.91811669 13.63992068 3.74429024 12.75935234 -1.9375 12.875 C-2.63931396 12.88152588 -3.34112793 12.88805176 -4.06420898 12.89477539 C-8.81235625 13.01719843 -12.77970204 13.73134006 -17.15625 15.515625 C-20.08133393 16.6425016 -22.95674555 16.91960059 -26.0625 17.25 C-26.11641993 15.45866022 -26.15525571 13.66686101 -26.1875 11.875 C-26.21070313 10.87726563 -26.23390625 9.87953125 -26.2578125 8.8515625 C-26.0625 6.25 -26.0625 6.25 -24.0625 4.25 C-22.7425 4.25 -21.4225 4.25 -20.0625 4.25 C-20.0625 3.59 -20.0625 2.93 -20.0625 2.25 C-13.24861718 0.48887336 -7.02368642 -0.05792731 0 0 Z " fill="#2B3242" transform="translate(375.0625,333.75)"/>
<path d="M0 0 C0.7943042 0.00604248 1.5886084 0.01208496 2.40698242 0.01831055 C9.86800911 0.14469073 16.92467355 0.59975516 23.125 5.25 C24.73225635 8.46451269 24.18248185 11.68612536 24.125 15.25 C20.77198999 15.55481909 19.07232821 15.22500543 15.98046875 13.7578125 C11.79330873 11.90192073 8.02470036 11.83757287 3.5 11.9375 C2.76265625 11.93427734 2.0253125 11.93105469 1.265625 11.92773438 C-4.05960478 11.9802232 -8.03791777 12.41291777 -11.875 16.25 C-12.33662427 18.68252661 -12.33662427 18.68252661 -12.5 21.375 C-12.57476563 22.28507812 -12.64953125 23.19515625 -12.7265625 24.1328125 C-12.77554688 24.83148438 -12.82453125 25.53015625 -12.875 26.25 C-7.31066638 29.14345348 -1.61464788 31.38535506 4.3293457 33.34179688 C12.98407316 36.21534939 20.21323239 39.24282342 26.6875 45.875 C29.11177884 51.56678511 29.26353693 57.71240312 27.359375 63.62890625 C25.48542849 67.54783406 23.10073302 71.07588477 20.125 74.25 C19.465 74.25 18.805 74.25 18.125 74.25 C17.63 75.735 17.63 75.735 17.125 77.25 C5.78443903 82.69615872 -10.03890876 81.35187219 -21.875 78.25 C-25.23788537 76.9270798 -26.33352111 76.02789553 -28.875 73.25 C-29.42450661 70.16032135 -29.3003515 67.34898952 -28.875 64.25 C-25.69684788 63.19296493 -24.10751613 63.27303764 -21.0625 64.625 C-12.06334882 68.24782005 -0.98886625 68.78394814 8.125 65.25 C10.36430312 64.07964072 10.36430312 64.07964072 12.125 62.25 C12.60761667 59.74119384 12.60761667 59.74119384 12.375 57.0625 C12.32085938 55.71091797 12.32085938 55.71091797 12.265625 54.33203125 C12.21921875 53.64496094 12.1728125 52.95789063 12.125 52.25 C4.8750895 47.60303094 -2.27726276 45.02694281 -10.59130859 43.07543945 C-17.2975664 41.42622813 -21.38149965 38.65077573 -25.1875 32.75 C-28.45994868 26.98709038 -29.21958838 21.74884383 -27.875 15.25 C-26.32550677 12.06141699 -24.38888177 9.72936623 -21.875 7.25 C-21.13830078 6.49396484 -21.13830078 6.49396484 -20.38671875 5.72265625 C-14.53075509 0.27708357 -7.57580747 -0.09187154 0 0 Z " fill="#2A3241" transform="translate(552.875,333.75)"/>
<path d="M0 0 C1.65926764 1.65926764 1.17135814 3.59576909 1.1875 5.875 C1.11710183 13.598685 0.03906496 20.87479727 -3 28 C-3.66 28 -4.32 28 -5 28 C-5.2784375 29.2375 -5.2784375 29.2375 -5.5625 30.5 C-7.45959353 35.11901032 -10.25617639 38.6905863 -14 42 C-16.2265625 42.73046875 -16.2265625 42.73046875 -18 43 C-17.2256707 36.96023146 -15.29951648 31.40461556 -13.13671875 25.73828125 C-11.26447607 20.65394449 -9.82962658 15.42731988 -11 10 C-14.59444183 7.60370545 -17.14861652 7.74218669 -21.29296875 7.8046875 C-21.99899734 7.8075174 -22.70502594 7.81034729 -23.43244934 7.81326294 C-25.68430633 7.82444536 -27.93576352 7.8495458 -30.1875 7.875 C-31.71548904 7.88503233 -33.24348433 7.89415774 -34.77148438 7.90234375 C-38.51447663 7.92437828 -42.25717056 7.95889433 -46 8 C-45.27242136 4.66845572 -44.75746935 3.30912445 -41.875 1.375 C-31.72530175 -4.49448742 -10.16718329 -6.03915398 0 0 Z " fill="#FA9909" transform="translate(590,433)"/>
<path d="M0 0 C0.33 0.66 0.66 1.32 1 2 C2.65 1.67 4.3 1.34 6 1 C7.16063604 5.25566547 6.76173392 8.6835078 6 13 C6.99 12.34 7.98 11.68 9 11 C9.02578125 11.73605469 9.0515625 12.47210938 9.078125 13.23046875 C9.4692495 20.94418163 9.4692495 20.94418163 14 27 C16.83269666 28.41634833 19.47466438 28.3463005 22.625 28.5625 C23.81351562 28.64628906 25.00203125 28.73007812 26.2265625 28.81640625 C27.59941406 28.90728516 27.59941406 28.90728516 29 29 C29 29.66 29 30.32 29 31 C31.475 31.99 31.475 31.99 34 33 C34.33 32.01 34.66 31.02 35 30 C36.65 30 38.3 30 40 30 C34.21830501 36.29184455 27.71517516 39.54839215 19.1328125 40.2265625 C12.17525817 40.41741811 6.44687382 40.25977837 1.12890625 35.23046875 C-4.70036818 28.89219323 -7.64493376 23.63592101 -7.4296875 14.89453125 C-6.59602038 9.27864636 -4.01830357 4.01830357 0 0 Z " fill="#2C3443" transform="translate(350,374)"/>
<path d="M0 0 C0.90621094 0.00064453 1.81242187 0.00128906 2.74609375 0.00195312 C9.45248724 0.04666241 9.45248724 0.04666241 12.875 1.1875 C13.15909086 8.14772615 13.24709202 14.28827642 8.625 19.9375 C2.49041479 24.95670608 -2.38323108 25.9050298 -10.125 25.1875 C-13.50033601 24.45106305 -15.3745338 23.9720783 -17.7578125 21.48046875 C-20.35779038 17.11993442 -19.72858469 12.08994902 -19.125 7.1875 C-14.93209949 -0.57713058 -7.87043694 -0.10727281 0 0 Z " fill="#F5F6F7" transform="translate(378.125,376.8125)"/>
<path d="M0 0 C0.99 0.99 0.99 0.99 2 2 C1.84972795 4.83205011 1.21539233 5.80588099 -0.8984375 7.7109375 C-6.30426265 11.34324273 -11.77170417 14.63954327 -17.5546875 17.640625 C-20.01801916 18.92733092 -20.01801916 18.92733092 -22.0859375 20.62890625 C-24.87539586 22.62706928 -27.64406003 22.67731346 -31 23 C-31 23.66 -31 24.32 -31 25 C-33.62394306 25.83679277 -36.24904384 26.66956942 -38.875 27.5 C-39.62136719 27.73847656 -40.36773438 27.97695313 -41.13671875 28.22265625 C-46.7734375 30 -46.7734375 30 -49 30 C-49 30.66 -49 31.32 -49 32 C-51.70879335 33.35439668 -54.00933268 33.06501451 -57 33 C-57 33.66 -57 34.32 -57 35 C-61.93469034 37.48299429 -67.01962066 37.70184382 -72.4375 38.125 C-74.03331909 38.2502002 -74.03331909 38.2502002 -75.66137695 38.37792969 C-85.99960208 39.08885949 -96.3282264 39.21943906 -106.6875 39.25 C-107.49275116 39.25517639 -108.29800232 39.26035278 -109.12765503 39.26568604 C-122.18820224 39.33190637 -134.74942531 38.98417386 -147 34 C-149.77054469 33.30567529 -152.57064463 32.78873225 -155.375 32.25 C-162.17821633 30.84471489 -168.58900365 28.89558424 -175.0625 26.375 C-175.84222168 26.07368164 -176.62194336 25.77236328 -177.42529297 25.46191406 C-182.86598659 23.26802682 -182.86598659 23.26802682 -184 21 C-180.7 21.33 -177.4 21.66 -174 22 C-174 22.66 -174 23.32 -174 24 C-173.34 24.12375 -172.68 24.2475 -172 24.375 C-168.30301417 25.14520538 -164.65994058 26.06950663 -161 27 C-161 27.66 -161 28.32 -161 29 C-159.783125 29.103125 -158.56625 29.20625 -157.3125 29.3125 C-153.33760711 29.74238654 -149.56765439 30.54164861 -145.6875 31.5 C-139.46948064 33.00317685 -133.37929038 33.66666771 -127 34 C-127 34.66 -127 35.32 -127 36 C-125.68 36 -124.36 36 -123 36 C-123 36.66 -123 37.32 -123 38 C-117.06265572 37.78489002 -111.12617301 37.55419884 -105.18994141 37.31030273 C-103.17903278 37.22973184 -101.16796162 37.15310078 -99.15673828 37.08081055 C-86.19917967 36.61180256 -73.73384375 35.44404673 -61 33 C-59.00097439 32.6608721 -57.00133348 32.32523132 -55 32 C-55 31.34 -55 30.68 -55 30 C-48.25188398 27.09636354 -41.40455424 24.80418979 -34.359375 22.7512207 C-30.29841438 21.56310901 -30.29841438 21.56310901 -27 19 C-25.68 19 -24.36 19 -23 19 C-23 18.34 -23 17.68 -23 17 C-16.375 14 -16.375 14 -13 14 C-13 13.34 -13 12.68 -13 12 C-12.34 12 -11.68 12 -11 12 C-11 11.34 -11 10.68 -11 10 C-10.01 10 -9.02 10 -8 10 C-8 9.34 -8 8.68 -8 8 C-7.01 8 -6.02 8 -5 8 C-4.67 7.01 -4.34 6.02 -4 5 C-3.34 5 -2.68 5 -2 5 C-2 4.34 -2 3.68 -2 3 C-8.84986319 5.4136329 -15.58483181 8.02107438 -22.2734375 10.8515625 C-23.17320312 11.23054688 -24.07296875 11.60953125 -25 12 C-25.80179688 12.35707031 -26.60359375 12.71414063 -27.4296875 13.08203125 C-30.52395672 14.1871274 -33.49601572 14.62446365 -36.75 15.0625 C-40.69615745 15.2832887 -40.69615745 15.2832887 -44 17 C-53.70287453 18.79877376 -63.14531355 19.2733195 -73 19 C-73 18.67 -73 18.34 -73 18 C-72.12859375 17.87882812 -71.2571875 17.75765625 -70.359375 17.6328125 C-66.57122404 17.09984754 -62.78568899 16.55015602 -59 16 C-58.0203125 15.86722656 -57.040625 15.73445313 -56.03125 15.59765625 C-39.73940132 13.19506621 -23.24794783 7.98028406 -8.1875 1.33984375 C-5.1017426 0.04276681 -3.2889211 -0.46984587 0 0 Z " fill="#EBA33A" transform="translate(567,449)"/>
<path d="M0 0 C4.62609198 -0.3227506 7.28026121 0.15549386 11 3 C11 3.66 11 4.32 11 5 C12.03125 5.268125 13.0625 5.53625 14.125 5.8125 C18.89087647 7.18101473 22.98060671 9.39500422 27.23828125 11.921875 C41.36398821 19.99212318 58.45278035 23.57582474 74 28 C70.72682513 29.06340474 68.47085555 28.91191421 65.125 28.1875 C64.24328125 27.99671875 63.3615625 27.8059375 62.453125 27.609375 C60 27 60 27 56.875 25.9375 C54.37369793 25.12185802 52.27978438 24.73113929 49.6875 24.4375 C46 24 46 24 45 23 C39.82264323 22.62947661 39.82264323 22.62947661 35 24 C35 24.66 35 25.32 35 26 C36.98 26.66 38.96 27.32 41 28 C41 28.66 41 29.32 41 30 C41.928125 30.268125 42.85625 30.53625 43.8125 30.8125 C46.85184289 31.94480421 47.90073617 32.69900511 50 35 C33.4462127 30.35332286 18.20409893 20.0340911 5.6484375 8.47265625 C3.98057183 6.90813741 3.98057183 6.90813741 1.7890625 5.55859375 C0.90347656 4.78708984 0.90347656 4.78708984 0 4 C0 2.68 0 1.36 0 0 Z " fill="#FA9909" transform="translate(333,435)"/>
<path d="M0 0 C2.64 0 5.28 0 8 0 C3.57338396 2.21330802 1.0136106 3.12475105 -4.02452278 3.12304783 C-5.31736124 3.12503888 -6.6101997 3.12702993 -7.94221509 3.12908131 C-9.39052353 3.12622788 -10.8388318 3.12328228 -12.28713989 3.12025452 C-13.81504232 3.12069021 -15.34294467 3.12156507 -16.87084663 3.12284368 C-21.08491971 3.12508909 -25.29896758 3.12106673 -29.51303744 3.11606562 C-34.05155867 3.11176196 -38.59007838 3.11320749 -43.12860107 3.1139679 C-50.99705469 3.11449318 -58.86550003 3.11134587 -66.73395157 3.10573006 C-78.1105233 3.09761572 -89.48709102 3.0949999 -100.86366533 3.09374207 C-119.31975702 3.09155144 -137.7758443 3.08489107 -156.23193359 3.07543945 C-174.16422504 3.06626561 -192.09651528 3.05918464 -210.02880859 3.05493164 C-211.13347151 3.05466892 -212.23813443 3.05440619 -213.37627198 3.05413551 C-218.91783707 3.05283051 -224.45940216 3.05156679 -230.00096726 3.05032361 C-276.0006479 3.03995067 -322.00032372 3.02233207 -368 3 C-368 2.67 -368 2.34 -368 2 C-246.56 2 -125.12 2 0 2 C0 1.34 0 0.68 0 0 Z " fill="#464D57" transform="translate(630,526)"/>
<path d="M0 0 C1.65926764 1.65926764 1.17135814 3.59576909 1.1875 5.875 C1.11710183 13.598685 0.03906496 20.87479727 -3 28 C-3.66 28 -4.32 28 -5 28 C-5.2784375 29.2375 -5.2784375 29.2375 -5.5625 30.5 C-7.45959353 35.11901032 -10.25617639 38.6905863 -14 42 C-16.2265625 42.73046875 -16.2265625 42.73046875 -18 43 C-17.2256707 36.96023146 -15.29951648 31.40461556 -13.13671875 25.73828125 C-11.26447607 20.65394449 -9.82962658 15.42731988 -11 10 C-14.59444183 7.60370545 -17.14861652 7.74218669 -21.29296875 7.8046875 C-21.99899734 7.8075174 -22.70502594 7.81034729 -23.43244934 7.81326294 C-25.68430633 7.82444536 -27.93576352 7.8495458 -30.1875 7.875 C-31.71548904 7.88503233 -33.24348433 7.89415774 -34.77148438 7.90234375 C-38.51447663 7.92437828 -42.25717056 7.95889433 -46 8 C-45.27242136 4.66845572 -44.75746935 3.30912445 -41.875 1.375 C-31.72530175 -4.49448742 -10.16718329 -6.03915398 0 0 Z M-27.61328125 0.19921875 C-31.64897406 1.55325644 -35.81556849 2.25745996 -40 3 C-40.33 3.99 -40.66 4.98 -41 6 C-40.16750732 5.98428955 -39.33501465 5.9685791 -38.47729492 5.95239258 C-35.38552144 5.90123358 -32.29396382 5.8636352 -29.2019043 5.83520508 C-27.20672299 5.81271667 -25.21173787 5.77459802 -23.21679688 5.73632812 C-21.96318359 5.72666016 -20.70957031 5.71699219 -19.41796875 5.70703125 C-18.26063232 5.6913208 -17.1032959 5.67561035 -15.91088867 5.65942383 C-12.67879219 6.03758156 -12.00470276 6.57300198 -10 9 C-9.34 9 -8.68 9 -8 9 C-8.52947697 16.70528322 -9.43899057 23.57909216 -12.625 30.6875 C-14.25558511 34.01797083 -14.25558511 34.01797083 -14 38 C-13.34 38 -12.68 38 -12 38 C-12 36.35 -12 34.7 -12 33 C-11.34 33 -10.68 33 -10 33 C-9.67 33.66 -9.34 34.32 -9 35 C-8.89042969 34.43410156 -8.78085937 33.86820312 -8.66796875 33.28515625 C-8.50941406 32.55167969 -8.35085938 31.81820312 -8.1875 31.0625 C-8.03667969 30.33160156 -7.88585937 29.60070312 -7.73046875 28.84765625 C-7.48941406 28.23792969 -7.24835937 27.62820313 -7 27 C-6.01 26.67 -5.02 26.34 -4 26 C-0.7558332 18.61050895 -0.49627607 9.97069035 -1 2 C-1.495 1.01 -1.495 1.01 -2 0 C-10.82723098 -2.51320109 -18.99077485 -2.97591013 -27.61328125 0.19921875 Z " fill="#EAA030" transform="translate(590,433)"/>
<path d="M0 0 C2.08326131 -0.02709444 4.16662441 -0.04643873 6.25 -0.0625 C7.41015625 -0.07410156 8.5703125 -0.08570313 9.765625 -0.09765625 C12.40977128 -0.01782092 14.49826091 0.21356222 17 1 C17 1.66 17 2.32 17 3 C31.49163005 4.23882767 45.96657261 4.11403698 60.5 4.0625 C62.98046784 4.05747356 65.46093668 4.05291268 67.94140625 4.04882812 C73.96095943 4.03791644 79.98047497 4.02126955 86 4 C86 4.33 86 4.66 86 5 C75.4507291 7.1550019 65.10180083 7.34032909 54.37402344 7.31567383 C51.53280398 7.31253623 48.69265239 7.33597004 45.8515625 7.36132812 C29.89019837 7.41644715 14.54693431 5.58962738 -1 2 C-0.67 1.34 -0.34 0.68 0 0 Z " fill="#F0A536" transform="translate(407,464)"/>
<path d="M0 0 C1.70336001 1.70336001 1.17182498 3.86446226 1.1875 6.1875 C1.15939308 10.5047224 0.73473512 13.98842503 -1 18 C-1.33 18 -1.66 18 -2 18 C-2 12.06 -2 6.12 -2 0 C-4.949375 -0.226875 -7.89875 -0.45375 -10.9375 -0.6875 C-11.84749756 -0.76701904 -12.75749512 -0.84653809 -13.69506836 -0.9284668 C-19.00528433 -1.2694584 -23.03086482 -0.62960195 -28.00219727 1.25415039 C-31.25845327 2.4698246 -34.61465482 2.91904129 -38.03125 3.47265625 C-39.00578125 3.73369141 -39.00578125 3.73369141 -40 4 C-40.33 4.66 -40.66 5.32 -41 6 C-33.08 6 -25.16 6 -17 6 C-17 6.33 -17 6.66 -17 7 C-26.57 7.33 -36.14 7.66 -46 8 C-44.84135241 3.36540962 -44.84135241 3.36540962 -41.875 1.375 C-31.72530175 -4.49448742 -10.16718329 -6.03915398 0 0 Z " fill="#EB9F31" transform="translate(590,433)"/>
<path d="M0 0 C3.3 0.33 6.6 0.66 10 1 C10 1.66 10 2.32 10 3 C10.66 3.12375 11.32 3.2475 12 3.375 C15.69698583 4.14520538 19.34005942 5.06950663 23 6 C23 6.66 23 7.32 23 8 C24.216875 8.103125 25.43375 8.20625 26.6875 8.3125 C30.66239289 8.74238654 34.43234561 9.54164861 38.3125 10.5 C44.53051936 12.00317685 50.62070962 12.66666771 57 13 C57 13.66 57 14.32 57 15 C58.32 15.33 59.64 15.66 61 16 C58.49931897 16.08193979 56.0013944 16.14093149 53.5 16.1875 C52.45585937 16.22520508 52.45585937 16.22520508 51.390625 16.26367188 C46.73818296 16.32828913 43.28378055 15.55155012 39.00097656 13.76879883 C35.64246931 12.47842068 32.14817203 11.92682093 28.625 11.25 C21.82178367 9.84471489 15.41099635 7.89558424 8.9375 5.375 C8.15777832 5.07368164 7.37805664 4.77236328 6.57470703 4.46191406 C1.13401341 2.26802682 1.13401341 2.26802682 0 0 Z " fill="#EEA12E" transform="translate(383,470)"/>
<path d="M0 0 C0.66 0 1.32 0 2 0 C2 0.99 2 1.98 2 3 C3.06734375 2.84015625 4.1346875 2.6803125 5.234375 2.515625 C10.89825596 1.81200631 16.54904038 1.7777419 22.25 1.75 C23.32507813 1.729375 24.40015625 1.70875 25.5078125 1.6875 C27.05855469 1.67976563 27.05855469 1.67976563 28.640625 1.671875 C29.57422852 1.6625293 30.50783203 1.65318359 31.46972656 1.64355469 C34.46163143 2.06503106 35.82489596 2.93556355 38 5 C39.14490142 10.09384104 37.94897039 15.24938466 36 20 C35.67 20 35.34 20 35 20 C34.91632532 15.14686868 35.1279449 10.79286977 36 6 C35.29504395 6.00523682 34.59008789 6.01047363 33.86376953 6.01586914 C30.61752237 6.03687271 27.3712896 6.04973369 24.125 6.0625 C23.01640625 6.07087891 21.9078125 6.07925781 20.765625 6.08789062 C14.10948511 6.10746751 7.6060883 5.82879778 1 5 C0.67 3.35 0.34 1.7 0 0 Z " fill="#FDEFCA" transform="translate(542,438)"/>
<path d="M0 0 C1.4370809 -0.05422947 2.87475462 -0.09289723 4.3125 -0.125 C5.11300781 -0.14820313 5.91351563 -0.17140625 6.73828125 -0.1953125 C9 0 9 0 12 2 C13.65549531 2.38499891 15.3222433 2.72793135 17 3 C17 3.66 17 4.32 17 5 C17.804375 4.979375 18.60875 4.95875 19.4375 4.9375 C22 5 22 5 23 6 C24.34747084 6.23075082 25.70377565 6.41153063 27.0625 6.5625 C28.361875 6.706875 29.66125 6.85125 31 7 C31 7.66 31 8.32 31 9 C31.598125 8.79375 32.19625 8.5875 32.8125 8.375 C35 8 35 8 38 10 C38 10.66 38 11.32 38 12 C39.8871875 12.1546875 39.8871875 12.1546875 41.8125 12.3125 C44.60499657 12.64858808 45.74433121 12.80025876 48 14.5625 C48.495 15.2740625 48.495 15.2740625 49 16 C43.8518882 15.24681966 38.89622869 14.01969333 33.875 12.6875 C33.03187256 12.46384766 32.18874512 12.24019531 31.32006836 12.00976562 C20.52794098 9.10900046 10.25820386 5.43794635 0 1 C0 0.67 0 0.34 0 0 Z " fill="#FDEBBC" transform="translate(362,448)"/>
<path d="M0 0 C0.86560547 0.00902344 1.73121094 0.01804687 2.62304688 0.02734375 C4.72798779 0.05060277 6.83278342 0.08645992 8.9375 0.125 C8.9375 0.785 8.9375 1.445 8.9375 2.125 C10.2575 2.125 11.5775 2.125 12.9375 2.125 C13.12201025 20.94504556 13.12201025 20.94504556 11.9375 30.125 C11.2775 30.125 10.6175 30.125 9.9375 30.125 C9.834375 31.053125 9.73125 31.98125 9.625 32.9375 C8.93218505 36.14964205 8.5495831 37.24430017 5.9375 39.125 C5.2775 39.125 4.6175 39.125 3.9375 39.125 C4.5975 37.145 5.2575 35.165 5.9375 33.125 C6.5975 33.125 7.2575 33.125 7.9375 33.125 C10.0665979 24.00915364 11.09005312 15.49854183 10.9375 6.125 C6.17729629 3.3205389 2.74566079 2.76734749 -2.75 2.875 C-3.44609375 2.88595703 -4.1421875 2.89691406 -4.859375 2.90820312 C-10.61844689 3.03017242 -16.34179758 3.44627259 -22.0625 4.125 C-15.46758414 -0.27161057 -7.69743372 -0.15526243 0 0 Z " fill="#FDE4B2" transform="translate(579.0625,427.875)"/>
<path d="M0 0 C-11.22413703 11.22413703 -42.83720079 11.78940557 -58 12 C-58 11.67 -58 11.34 -58 11 C-57.34515625 10.89453857 -56.6903125 10.78907715 -56.015625 10.68041992 C-53.00896809 10.19125425 -50.0045439 9.68947422 -47 9.1875 C-45.97003906 9.02185547 -44.94007813 8.85621094 -43.87890625 8.68554688 C-39.33904891 7.91926522 -35.05318864 7.15553522 -30.78125 5.40625 C-26.70208036 3.73985009 -22.8725894 3.45420429 -18.5 3.3125 C-17.77296875 3.27833984 -17.0459375 3.24417969 -16.296875 3.20898438 C-14.5317471 3.12769559 -12.76590537 3.06214958 -11 3 C-11 2.34 -11 1.68 -11 1 C-7.26562152 0.12132271 -3.83225427 -0.08912219 0 0 Z " fill="#FDEABD" transform="translate(544,456)"/>
<path d="M0 0 C-2.70879335 1.35439668 -5.00933268 1.06501451 -8 1 C-8 1.66 -8 2.32 -8 3 C-12.93500491 5.48315258 -18.01942365 5.70112058 -23.4375 6.125 C-24.49557861 6.20919189 -25.55365723 6.29338379 -26.64379883 6.38012695 C-37.15445942 7.11094922 -47.65538432 7.18825216 -58.1875 7.1875 C-59.02691132 7.18840637 -59.86632263 7.18931274 -60.73117065 7.19024658 C-63.14769082 7.18995102 -65.56398655 7.18100641 -67.98046875 7.16796875 C-68.70143738 7.16676529 -69.42240601 7.16556183 -70.16522217 7.1643219 C-74.20869724 7.12695102 -78.03180424 6.7773554 -82 6 C-82 5.67 -82 5.34 -82 5 C-81.0298999 5.01047363 -80.0597998 5.02094727 -79.06030273 5.03173828 C-43.76158555 5.50204324 -43.76158555 5.50204324 -9 0 C-5.54931323 -0.78222168 -3.39036705 -1.13012235 0 0 Z " fill="#F9D28E" transform="translate(518,481)"/>
<path d="M0 0 C4.61144533 1.26348944 9.02901616 2.72894546 13.5 4.4375 C19.84054032 6.74253651 25.97610616 8.09600477 32.62109375 9.30859375 C36.6643914 10.13595061 40.21524358 11.37796153 44 13 C44 13.33 44 13.66 44 14 C40.7 14 37.4 14 34 14 C34 13.34 34 12.68 34 12 C32.14375 12.061875 32.14375 12.061875 30.25 12.125 C26.85879292 12.13093907 24.98357087 11.63615177 22 10 C19.67504723 9.61250787 17.34148732 9.27017161 15 9 C15 8.67 15 8.34 15 8 C14.25234375 7.81824219 13.5046875 7.63648438 12.734375 7.44921875 C11.74953125 7.19785156 10.7646875 6.94648438 9.75 6.6875 C8.77546875 6.44386719 7.8009375 6.20023437 6.796875 5.94921875 C3.98463552 4.99478552 2.1717554 4.01145917 0 2 C0 1.34 0 0.68 0 0 Z " fill="#FCE3AF" transform="translate(384,472)"/>
<path d="M0 0 C0 0.33 0 0.66 0 1 C-12.4624074 3.79530633 -24.71799692 4.30989931 -37.4375 4.3125 C-38.22387848 4.31572266 -39.01025696 4.31894531 -39.82046509 4.32226562 C-42.08760412 4.32793561 -44.354021 4.3176789 -46.62109375 4.30078125 C-47.64820969 4.30196709 -47.64820969 4.30196709 -48.69607544 4.30317688 C-52.29356822 4.25025009 -54.93575813 3.95386135 -58 2 C-56.94200195 1.97494385 -55.88400391 1.9498877 -54.79394531 1.92407227 C-50.81289592 1.82884346 -46.83197503 1.7289204 -42.85107422 1.62768555 C-41.13854001 1.58476771 -39.42597475 1.54306918 -37.71337891 1.50268555 C-28.93738851 1.29495462 -20.20248161 1.07026028 -11.4609375 0.20507812 C-7.63231108 -0.11397408 -3.83956812 -0.0639928 0 0 Z " fill="#FEF6D4" transform="translate(501,486)"/>
<path d="M0 0 C2.47666082 3.71499122 2.54886514 5.60907888 2 10 C-0.3125 11.75 -0.3125 11.75 -3 13 C-3.45375 13.53625 -3.9075 14.0725 -4.375 14.625 C-6.93799788 16.79369051 -9.74577037 16.6929972 -13 17 C-10.53511103 14.33857503 -7.79550348 12.36573616 -4.8125 10.3125 C-3.46091797 9.37857422 -3.46091797 9.37857422 -2.08203125 8.42578125 C-1.39496094 7.95527344 -0.70789063 7.48476563 0 7 C-0.33 5.68 -0.66 4.36 -1 3 C-6.11800457 3.57158716 -10.46035374 4.73317311 -15.3125 6.5625 C-21.8101983 9 -21.8101983 9 -24 9 C-23.67 8.01 -23.34 7.02 -23 6 C-18.05 5.01 -18.05 5.01 -13 4 C-13 3.34 -13 2.68 -13 2 C-8.52029862 0.25182385 -4.81221774 -0.46271324 0 0 Z " fill="#FEEECC" transform="translate(568,447)"/>
<path d="M0 0 C-3.13434782 3.66183562 -5.75659078 4.81908213 -10.375 6.0625 C-13.84229171 7.00849411 -16.87433774 7.93557417 -20.078125 9.578125 C-23.03205706 11.01559996 -25.12546678 11.46793694 -28.375 11.6875 C-29.24898437 11.75324219 -30.12296875 11.81898438 -31.0234375 11.88671875 C-31.67570312 11.92410156 -32.32796875 11.96148437 -33 12 C-33 11.34 -33 10.68 -33 10 C-30.36 9.67 -27.72 9.34 -25 9 C-25 8.34 -25 7.68 -25 7 C-18.94977014 4.33442742 -13.61085476 2.48969295 -7 2 C-7 1.34 -7 0.68 -7 0 C-3.86650268 -1.04449911 -3.01031744 -0.93423645 0 0 Z " fill="#FEF9E2" transform="translate(543,472)"/>
<path d="M0 0 C6.15104706 1.05446521 9.6080405 2.6080405 14 7 C18.42380469 10.16801497 22.71729682 12.54725663 28 14 C28 14.66 28 15.32 28 16 C28.928125 16.268125 29.85625 16.53625 30.8125 16.8125 C33.85184289 17.94480421 34.90073617 18.69900511 37 21 C23.48886362 17.20740031 11.05898536 9.52269192 0 1 C0 0.67 0 0.34 0 0 Z " fill="#EBA742" transform="translate(346,449)"/>
<path d="M0 0 C6.19513268 0.02240554 10.77527674 4.03703121 15.625 7.5 C18.40525473 9.63460411 18.40525473 9.63460411 21.25 10 C22.03375 10.165 22.8175 10.33 23.625 10.5 C23.955 11.16 24.285 11.82 24.625 12.5 C25.615 12.83 26.605 13.16 27.625 13.5 C27.625 14.16 27.625 14.82 27.625 15.5 C24.05096942 14.08988248 20.51406445 12.61623924 17 11.0625 C15.58847656 10.44568359 15.58847656 10.44568359 14.1484375 9.81640625 C11.78238641 8.58210406 10.39422873 7.45318523 8.625 5.5 C5.42566624 3.51420663 2.33048618 3.00529357 -1.375 2.5 C-0.1891763 5.87503669 0.90073689 8.14722731 3.625 10.5 C1.315 10.5 -0.995 10.5 -3.375 10.5 C-3.56912181 9.02168779 -3.75512131 7.54230684 -3.9375 6.0625 C-4.04191406 5.23878906 -4.14632813 4.41507812 -4.25390625 3.56640625 C-4.29386719 2.88449219 -4.33382813 2.20257813 -4.375 1.5 C-3.375 0.5 -3.375 0.5 0 0 Z " fill="#FEF3D5" transform="translate(334.375,432.5)"/>
<path d="M0 0 C0.96679688 0.01804687 1.93359375 0.03609375 2.9296875 0.0546875 C4.01636719 0.08949219 4.01636719 0.08949219 5.125 0.125 C1.50600752 2.53766165 -1.85710281 3.0219891 -6.0625 3.6875 C-7.27897217 3.88146362 -7.27897217 3.88146362 -8.52001953 4.0793457 C-25.5544087 6.6799269 -42.68957739 6.24273319 -59.875 6.125 C-59.875 5.795 -59.875 5.465 -59.875 5.125 C-59.16706299 5.10518066 -58.45912598 5.08536133 -57.72973633 5.06494141 C-45.48851463 4.70702829 -33.26067151 4.31640802 -21.0625 3.1875 C-20.21727783 3.11289551 -19.37205566 3.03829102 -18.5012207 2.96142578 C-12.12274618 2.32572334 -6.42215253 -0.15663787 0 0 Z " fill="#ECA02F" transform="translate(503.875,480.875)"/>
<path d="M0 0 C3.77076889 -0.05799124 7.54142334 -0.09359306 11.3125 -0.125 C12.38435547 -0.14175781 13.45621094 -0.15851563 14.56054688 -0.17578125 C15.58857422 -0.18222656 16.61660156 -0.18867188 17.67578125 -0.1953125 C18.62364502 -0.20578613 19.57150879 -0.21625977 20.5480957 -0.22705078 C23 0 23 0 26 2 C26 2.66 26 3.32 26 4 C26.66 4 27.32 4 28 4 C28.27576382 12.4720774 27.33501386 19.13889589 24 27 C22.89575777 23.6872733 23.13690088 22.6715846 23.9375 19.375 C25.01428732 14.46080284 25.16194469 10.02028554 25 5 C19.69251342 1.75460247 15.16680851 1.47173441 9.125 1.3125 C8.24585938 1.27833984 7.36671875 1.24417969 6.4609375 1.20898438 C4.30772295 1.1270686 2.15388449 1.06184421 0 1 C0 0.67 0 0.34 0 0 Z " fill="#EC9D26" transform="translate(554,438)"/>
<path d="M0 0 C2.68756955 -0.02720824 5.37485798 -0.0469388 8.0625 -0.0625 C8.81466797 -0.07087891 9.56683594 -0.07925781 10.34179688 -0.08789062 C11.45844727 -0.09272461 11.45844727 -0.09272461 12.59765625 -0.09765625 C13.61098022 -0.10551147 13.61098022 -0.10551147 14.64477539 -0.11352539 C17 0 17 0 20.29492188 0.48632812 C24.11600682 1.01608318 27.82836876 1.20802643 31.68359375 1.31640625 C32.38396255 1.33718735 33.08433136 1.35796844 33.80592346 1.37937927 C36.01636106 1.44412465 38.22690485 1.50340608 40.4375 1.5625 C41.94727607 1.60575681 43.45704188 1.64937323 44.96679688 1.69335938 C48.64442196 1.79972748 52.32216291 1.90120002 56 2 C56 2.33 56 2.66 56 3 C50.59636727 3.05017659 45.19287596 3.08607889 39.7890625 3.10986328 C37.95830924 3.11979909 36.12757132 3.13335237 34.296875 3.15087891 C22.67790117 3.25916978 11.49336136 2.80244192 0 1 C0 0.67 0 0.34 0 0 Z " fill="#FDDFA7" transform="translate(424,466)"/>
<path d="M0 0 C4.62609198 -0.3227506 7.28026121 0.15549386 11 3 C11 3.66 11 4.32 11 5 C9.68 5.33 8.36 5.66 7 6 C7 6.66 7 7.32 7 8 C8.65 8.33 10.3 8.66 12 9 C12.33 10.65 12.66 12.3 13 14 C11.03252762 12.53538037 9.06923401 11.06593017 7.11328125 9.5859375 C5.42886385 8.32184607 3.71853848 7.09229809 2 5.875 C1.34 5.25625 0.68 4.6375 0 4 C0 2.68 0 1.36 0 0 Z " fill="#EBAB4B" transform="translate(333,435)"/>
<path d="M0 0 C1.32 0 2.64 0 4 0 C4 1.32 4 2.64 4 4 C5.32 4 6.64 4 8 4 C8 4.66 8 5.32 8 6 C6.68 6.33 5.36 6.66 4 7 C4 7.66 4 8.32 4 9 C2.68 9 1.36 9 0 9 C0.020625 8.195625 0.04125 7.39125 0.0625 6.5625 C0.29633621 4.06645115 0.29633621 4.06645115 -1 3 C-1 5.64 -1 8.28 -1 11 C2.465 10.505 2.465 10.505 6 10 C5.67 10.66 5.34 11.32 5 12 C2.67843403 12.40729228 0.3431213 12.74438677 -2 13 C-2.05391993 11.20866022 -2.09275571 9.41686101 -2.125 7.625 C-2.14820313 6.62726563 -2.17140625 5.62953125 -2.1953125 4.6015625 C-2 2 -2 2 0 0 Z " fill="#3C4452" transform="translate(351,338)"/>
<path d="M0 0 C-0.99 0 -1.98 0 -3 0 C-3 0.66 -3 1.32 -3 2 C-3.639375 2.28875 -4.27875 2.5775 -4.9375 2.875 C-7.15206079 3.82823451 -7.15206079 3.82823451 -8 6 C-0.08 6 7.84 6 16 6 C16 6.33 16 6.66 16 7 C6.43 7.33 -3.14 7.66 -13 8 C-11.91953754 3.67815017 -11.72180502 3.35791737 -8.1875 1.1875 C-7.50042969 0.74792969 -6.81335938 0.30835938 -6.10546875 -0.14453125 C-3.60705494 -1.15965671 -2.48957835 -0.91191297 0 0 Z " fill="#EDAF52" transform="translate(557,433)"/>
<path d="M0 0 C2.10304477 -0.1080023 4.20766909 -0.18558987 6.3125 -0.25 C8.07013672 -0.31960938 8.07013672 -0.31960938 9.86328125 -0.390625 C13 0 13 0 14.80859375 1.640625 C16.20013322 4.3963294 17.01515777 7.00064398 17.75 10 C18.01296875 11.03125 18.2759375 12.0625 18.546875 13.125 C18.98019013 15.87430977 18.92023079 17.41340535 18 20 C15.84978377 16.77467566 15.62562713 14.75376279 15 11 C14.34 10.01 13.68 9.02 13 8 C13 6.35 13 4.7 13 3 C9.04 2.67 5.08 2.34 1 2 C0.67 2.99 0.34 3.98 0 5 C0 3.35 0 1.7 0 0 Z " fill="#575C66" transform="translate(414,335)"/>
<path d="M0 0 C3.94948271 0.47872518 6.61746556 1.94341246 10.01391602 3.93066406 C13.35222892 5.72805933 16.87502134 6.97233153 20.4375 8.25 C21.53481445 8.6521875 21.53481445 8.6521875 22.65429688 9.0625 C24.43415208 9.71395027 26.21679069 10.35778776 28 11 C28 11.33 28 11.66 28 12 C20.01438849 11.20143885 20.01438849 11.20143885 16 9 C13.6756398 8.30269194 11.34326294 7.63087848 9 7 C9 6.34 9 5.68 9 5 C4.545 4.01 4.545 4.01 0 3 C0 2.01 0 1.02 0 0 Z " fill="#EBA032" transform="translate(352,444)"/>
<path d="M0 0 C2.42130331 3.63195496 2.21022785 5.38349348 2.125 9.6875 C2.10695313 10.86699219 2.08890625 12.04648437 2.0703125 13.26171875 C2.04710937 14.16535156 2.02390625 15.06898438 2 16 C0.7625 15.835 -0.475 15.67 -1.75 15.5 C-10.45781841 14.60397811 -19.25765509 14.91728495 -28 15 C-26 13 -26 13 -24.03222656 12.75708008 C-22.84838379 12.76324341 -22.84838379 12.76324341 -21.640625 12.76953125 C-20.33738281 12.77243164 -20.33738281 12.77243164 -19.0078125 12.77539062 C-18.09773438 12.78763672 -17.18765625 12.79988281 -16.25 12.8125 C-15.35539062 12.81314453 -14.46078125 12.81378906 -13.5390625 12.81445312 C-8.81374883 12.84581583 -4.72613447 13.21231092 0 14 C0 9.38 0 4.76 0 0 Z " fill="#B2B5BD" transform="translate(390,353)"/>
<path d="M0 0 C5.26053037 -0.31563182 8.44573816 0.33409063 13 3 C13 3.99 13 4.98 13 6 C12.34 6 11.68 6 11 6 C11 6.99 11 7.98 11 9 C9.68 9 8.36 9 7 9 C6.67 7.35 6.34 5.7 6 4 C4.35 3.67 2.7 3.34 1 3 C0.67 2.01 0.34 1.02 0 0 Z " fill="#F29C1D" transform="translate(339,440)"/>
<path d="M0 0 C0.99 0.33 1.98 0.66 3 1 C3.10094304 9.41192037 3.10102642 17.64399592 2 26 C1.34 26 0.68 26 0 26 C-0.1546875 27.3921875 -0.1546875 27.3921875 -0.3125 28.8125 C-1.00531495 32.02464205 -1.3879169 33.11930017 -4 35 C-4.66 35 -5.32 35 -6 35 C-5.01 32.03 -5.01 32.03 -4 29 C-3.34 29 -2.68 29 -2 29 C1.99012585 14.37106983 1.99012585 14.37106983 0 0 Z " fill="#FBDCA3" transform="translate(589,432)"/>
<path d="M0 0 C0.66 0.33 1.32 0.66 2 1 C1.34 1.66 0.68 2.32 0 3 C0.66 3.66 1.32 4.32 2 5 C1.21625 5.53625 0.4325 6.0725 -0.375 6.625 C-3.33426299 9.30242842 -4.04608256 11.18433025 -5 15 C-5.66 14.67 -6.32 14.34 -7 14 C-7.33 16.97 -7.66 19.94 -8 23 C-8.33 23 -8.66 23 -9 23 C-10.03339126 11.51787488 -10.03339126 11.51787488 -6.1875 6.4375 C-4.22784019 4.18752022 -2.12214422 2.09665299 0 0 Z " fill="#49515B" transform="translate(534,338)"/>
<path d="M0 0 C-0.66 0 -1.32 0 -2 0 C-2.33 0.99 -2.66 1.98 -3 3 C-12.79539929 4.53653322 -22.07092668 5.27538262 -32 5 C-32 4.67 -32 4.34 -32 4 C-30.69289063 3.81824219 -30.69289063 3.81824219 -29.359375 3.6328125 C-1.12966601 -0.3388998 -1.12966601 -0.3388998 0 0 Z " fill="#ECAB48" transform="translate(526,463)"/>
<path d="M0 0 C-3.77007124 3.4600093 -6.50781335 4.63893225 -11.5625 5.3125 C-13.23505859 5.55419922 -13.23505859 5.55419922 -14.94140625 5.80078125 C-17.65412226 5.97747156 -19.4559742 5.86459557 -22 5 C-14.66958629 0.96827246 -8.28425289 -0.29586617 0 0 Z " fill="#EE9D22" transform="translate(546,458)"/>
<path d="M0 0 C1.81293089 0.14037521 3.6253443 0.28744889 5.4375 0.4375 C6.95150391 0.55931641 6.95150391 0.55931641 8.49609375 0.68359375 C11 1 11 1 12 2 C15.03025802 2.53821001 18.07076988 2.96556821 21.1171875 3.40234375 C24 4 24 4 27 6 C17.92334293 6.35594734 7.8606955 5.9410086 0 1 C0 0.67 0 0.34 0 0 Z " fill="#FEF3D3" transform="translate(405,460)"/>
<path d="M0 0 C-4.65559707 1.48582885 -9.01786533 2.33015169 -13.88671875 2.75390625 C-15.98150407 2.94540814 -15.98150407 2.94540814 -17.88891602 3.50927734 C-21.30396609 4.30310765 -24.7636531 4.10253755 -28.25 4.0625 C-28.99507813 4.05798828 -29.74015625 4.05347656 -30.5078125 4.04882812 C-32.3385764 4.03709246 -34.16929873 4.0191585 -36 4 C-36 3.67 -36 3.34 -36 3 C-27.72918977 1.56341745 -19.58633558 0.67652722 -11.21484375 0.24609375 C-1.53876349 -0.49460255 -1.53876349 -0.49460255 0 0 Z " fill="#EE9918" transform="translate(516,467)"/>
<path d="M0 0 C0 0.33 0 0.66 0 1 C-0.84820313 1.03738281 -1.69640625 1.07476562 -2.5703125 1.11328125 C-11.35516153 1.60561894 -19.43868406 2.93123217 -28 5 C-27.328125 3.08203125 -27.328125 3.08203125 -26 1 C-17.74959852 -2.05929317 -8.54956633 -0.93589927 0 0 Z " fill="#FEFCEB" transform="translate(583,427)"/>
<path d="M0 0 C5.79240072 0.77036979 11.28124657 2.42909368 16.875 4.0625 C17.84953125 4.34416016 18.8240625 4.62582031 19.828125 4.91601562 C22.21963701 5.60767841 24.61020851 6.30242031 27 7 C18.22647256 9.40758715 8.3347 4.69114138 0 2 C0 1.34 0 0.68 0 0 Z " fill="#EE9D2F" transform="translate(380,456)"/>
<path d="M0 0 C0.33 0 0.66 0 1 0 C1 3.3 1 6.6 1 10 C-5.64248536 11.91610155 -12.11059329 12.56367091 -19 13 C-13.23759526 9.15839684 -7.70842135 8.76461679 -1 9 C-1.020625 7.700625 -1.04125 6.40125 -1.0625 5.0625 C-1.08399454 3.70834367 -1.07148199 2.35243917 -1 1 C-0.67 0.67 -0.34 0.34 0 0 Z " fill="#787A85" transform="translate(267,358)"/>
<path d="M0 0 C0.99 0 1.98 0 3 0 C1.50209506 4.38741188 -1.32091091 5.57269938 -5.3125 7.625 C-7.00826172 8.51058594 -7.00826172 8.51058594 -8.73828125 9.4140625 C-16.47394057 13.17535314 -16.47394057 13.17535314 -20 12 C-18.35 11.67 -16.7 11.34 -15 11 C-15 10.34 -15 9.68 -15 9 C-8.375 6 -8.375 6 -5 6 C-5 5.34 -5 4.68 -5 4 C-4.34 4 -3.68 4 -3 4 C-3 3.34 -3 2.68 -3 2 C-2.01 2 -1.02 2 0 2 C0 1.34 0 0.68 0 0 Z " fill="#E99D28" transform="translate(559,457)"/>
<path d="M0 0 C0.99 0.33 1.98 0.66 3 1 C3.3125 4.3125 3.3125 4.3125 3 8 C0.6875 9.75 0.6875 9.75 -2 11 C-2.45375 11.53625 -2.9075 12.0725 -3.375 12.625 C-5.93799788 14.79369051 -8.74577037 14.6929972 -12 15 C-9.53511103 12.33857503 -6.79550348 10.36573616 -3.8125 8.3125 C-2.91144531 7.68988281 -2.01039063 7.06726563 -1.08203125 6.42578125 C-0.39496094 5.95527344 0.29210937 5.48476563 1 5 C0.67 3.35 0.34 1.7 0 0 Z " fill="#FCE5B4" transform="translate(567,449)"/>
<path d="M0 0 C5.68502535 1.64566523 10.76681636 4.29032784 16 7 C16 7.33 16 7.66 16 8 C9.79011871 7.55643705 5.39459439 6.08467498 0 3 C0 2.01 0 1.02 0 0 Z " fill="#FDE9B7" transform="translate(368,464)"/>
<path d="M0 0 C-1 2 -1 2 -2.6706543 2.67016602 C-3.38133057 2.86280029 -4.09200684 3.05543457 -4.82421875 3.25390625 C-5.60603516 3.46853516 -6.38785156 3.68316406 -7.19335938 3.90429688 C-8.42795898 4.23010742 -8.42795898 4.23010742 -9.6875 4.5625 C-10.49123047 4.78357422 -11.29496094 5.00464844 -12.12304688 5.23242188 C-16.39476613 6.3885454 -20.61267648 7.36918935 -25 8 C-21.94627964 5.42274665 -19.2945829 4.30432132 -15.4375 3.3125 C-14.48746094 3.06113281 -13.53742187 2.80976563 -12.55859375 2.55078125 C-10 2 -10 2 -7 2 C-7 1.34 -7 0.68 -7 0 C-3.86650268 -1.04449911 -3.01031744 -0.93423645 0 0 Z " fill="#FCDEA3" transform="translate(543,472)"/>
<path d="M0 0 C0.66 0.33 1.32 0.66 2 1 C2 1.66 2 2.32 2 3 C2.31478446 4.33783393 2.64587656 5.67203709 3 7 C-1.75 6.25 -1.75 6.25 -4 4 C-6.59706093 3.61195187 -6.59706093 3.61195187 -9.5 3.5 C-14.77777778 3.22222222 -14.77777778 3.22222222 -17 1 C-15.53626953 1.01740234 -15.53626953 1.01740234 -14.04296875 1.03515625 C-12.77066406 1.04417969 -11.49835938 1.05320312 -10.1875 1.0625 C-8.29064453 1.07990234 -8.29064453 1.07990234 -6.35546875 1.09765625 C-3.00394763 1.16159116 -3.00394763 1.16159116 0 0 Z M2 2 C4 3 4 3 4 3 Z " fill="#4A525D" transform="translate(381,400)"/>
<path d="M0 0 C0.6875 1.625 0.6875 1.625 1 4 C-0.4375 7.25 -0.4375 7.25 -2 10 C-4.97 10 -7.94 10 -11 10 C-10.67 9.01 -10.34 8.02 -10 7 C-10 7.66 -10 8.32 -10 9 C-5.49115974 6.68116787 -3.06093224 3.93548431 0 0 Z " fill="#F8E2B7" transform="translate(582,467)"/>
<path d="M0 0 C3.96 0 7.92 0 12 0 C11.125 5.75 11.125 5.75 10 8 C9.34 8 8.68 8 8 8 C8.33 6.02 8.66 4.04 9 2 C6.03 2 3.06 2 0 2 C-0.33 2.66 -0.66 3.32 -1 4 C-0.67 2.68 -0.34 1.36 0 0 Z " fill="#212835" transform="translate(506,336)"/>
<path d="M0 0 C-2.70740662 2.70740662 -5.2626766 3.1010554 -8.9375 4.125 C-10.18402344 4.47820312 -11.43054688 4.83140625 -12.71484375 5.1953125 C-16 6 -16 6 -19 6 C-19 5.01 -19 4.02 -19 3 C-16.36 3 -13.72 3 -11 3 C-11 2.34 -11 1.68 -11 1 C-7.26562152 0.12132271 -3.83225427 -0.08912219 0 0 Z " fill="#FDE4AD" transform="translate(544,456)"/>
<path d="M0 0 C2 1 2 1 2.8515625 3.44140625 C4.34330807 9.461127 5.35779258 14.79826201 5 21 C2.5705484 17.3558226 2.83820425 15.28758728 3 11 C2.34 11 1.68 11 1 11 C0.67 7.37 0.34 3.74 0 0 Z " fill="#202834" transform="translate(481,377)"/>
<path d="M0 0 C0.99 0.33 1.98 0.66 3 1 C2.34 1 1.68 1 1 1 C1.33 3.97 1.66 6.94 2 10 C3.32 10.33 4.64 10.66 6 11 C6.33 11.66 6.66 12.32 7 13 C7.99 13.66 8.98 14.32 10 15 C5.44696447 14.46434876 2.37143028 13.13621421 -1 10 C-1.56883504 6.9358037 -1.49244361 4.07309745 -1 1 C-0.67 0.67 -0.34 0.34 0 0 Z " fill="#61656E" transform="translate(525,397)"/>
<path d="M0 0 C1.49817607 2.99635214 0.87986153 5.56180006 0.625 8.875 C0.53476562 10.10992187 0.44453125 11.34484375 0.3515625 12.6171875 C0.08222988 15.20876587 -0.26306443 17.51440375 -1 20 C-1.99 20 -2.98 20 -4 20 C-1.95744681 1.95744681 -1.95744681 1.95744681 0 0 Z " fill="#5C616C" transform="translate(498,356)"/>
<path d="M0 0 C5.30486983 2.89356536 9.74386757 6.74386757 14 11 C12.35 11 10.7 11 9 11 C9 10.34 9 9.68 9 9 C8.01 9 7.02 9 6 9 C4.3125 7.625 4.3125 7.625 3 6 C3 5.34 3 4.68 3 4 C2.34 4 1.68 4 1 4 C0.67 2.68 0.34 1.36 0 0 Z " fill="#FEEBC0" transform="translate(338,443)"/>
<path d="M0 0 C5.94 0.66 11.88 1.32 18 2 C14.2632157 4.49118953 12.25548181 4.2065226 7.8125 4.125 C6.54019531 4.10695313 5.26789063 4.08890625 3.95703125 4.0703125 C2.49330078 4.03550781 2.49330078 4.03550781 1 4 C0.67 2.68 0.34 1.36 0 0 Z " fill="#212834" transform="translate(361,401)"/>
<path d="M0 0 C0.66 0 1.32 0 2 0 C5.07692308 5.29230769 5.07692308 5.29230769 4.6875 8.875 C4.460625 9.57625 4.23375 10.2775 4 11 C3.01 11.33 2.02 11.66 1 12 C1 11.01 1 10.02 1 9 C0.34 9 -0.32 9 -1 9 C-0.67 8.01 -0.34 7.02 0 6 C0 5.01 0 4.02 0 3 C0 2.01 0 1.02 0 0 Z " fill="#353A45" transform="translate(405,397)"/>
<path d="M0 0 C1 2 1 2 0.44140625 4.1640625 C0.15136719 4.97617187 -0.13867188 5.78828125 -0.4375 6.625 C-0.72496094 7.44226563 -1.01242187 8.25953125 -1.30859375 9.1015625 C-1.65083984 10.04128906 -1.65083984 10.04128906 -2 11 C-2.66 11 -3.32 11 -4 11 C-4.28875 11.94875 -4.5775 12.8975 -4.875 13.875 C-6 17 -6 17 -8 19 C-7.71872579 17.51882199 -7.42466268 16.04006751 -7.125 14.5625 C-6.96257813 13.73878906 -6.80015625 12.91507812 -6.6328125 12.06640625 C-6.42398438 11.38449219 -6.21515625 10.70257813 -6 10 C-5.34 9.67 -4.68 9.34 -4 9 C-3.13234482 7.14985526 -3.13234482 7.14985526 -2.4375 5 C-1.08991826 1.08991826 -1.08991826 1.08991826 0 0 Z " fill="#EA9F2F" transform="translate(589,450)"/>
<path d="M0 0 C0.66 0 1.32 0 2 0 C2.33 2.31 2.66 4.62 3 7 C5.97 7.33 8.94 7.66 12 8 C12.33 7.34 12.66 6.68 13 6 C13.99 6 14.98 6 16 6 C16 6.99 16 7.98 16 9 C13.68756208 9.02685412 11.3750373 9.04632841 9.0625 9.0625 C7.77472656 9.07410156 6.48695313 9.08570313 5.16015625 9.09765625 C2 9 2 9 1 8 C0.54540142 5.34536879 0.29756762 2.67810862 0 0 Z " fill="#1D2530" transform="translate(479,402)"/>
<path d="M0 0 C1.4552777 2.9105554 0.63516661 4.95849052 0.0625 8.125 C-0.13214844 9.22070312 -0.32679688 10.31640625 -0.52734375 11.4453125 C-0.76130859 12.70988281 -0.76130859 12.70988281 -1 14 C-1.66 14 -2.32 14 -3 14 C-4.49821059 10.62902617 -5 8.79557881 -5 5 C-3.68 5.33 -2.36 5.66 -1 6 C-1.020625 5.195625 -1.04125 4.39125 -1.0625 3.5625 C-1 1 -1 1 0 0 Z " fill="#DDE2E9" transform="translate(446,382)"/>
<path d="M0 0 C2.97 0.495 2.97 0.495 6 1 C6 1.66 6 2.32 6 3 C6.928125 2.95875 7.85625 2.9175 8.8125 2.875 C12 3 12 3 15 5 C15 5.66 15 6.32 15 7 C8.37556458 6.6513455 5.10739657 5.25616381 0 1 C0 0.67 0 0.34 0 0 Z " fill="#444954" transform="translate(531,370)"/>
<path d="M0 0 C2.60478883 -0.0809313 5.20706653 -0.14045434 7.8125 -0.1875 C8.55048828 -0.21263672 9.28847656 -0.23777344 10.04882812 -0.26367188 C15.54974762 -0.33834499 15.54974762 -0.33834499 18.01171875 1.51171875 C18.50091797 2.24841797 18.50091797 2.24841797 19 3 C17.35425434 3.02688151 15.70838587 3.04634123 14.0625 3.0625 C13.14597656 3.07410156 12.22945313 3.08570313 11.28515625 3.09765625 C9 3 9 3 8 2 C6.65252916 1.76924918 5.29622435 1.58846937 3.9375 1.4375 C2.638125 1.293125 1.33875 1.14875 0 1 C0 0.67 0 0.34 0 0 Z " fill="#313842" transform="translate(366,367)"/>
<path d="M0 0 C1.98 0.99 1.98 0.99 4 2 C4.21755666 7.4389165 4.10428384 11.87080814 2 17 C1.67 17 1.34 17 1 17 C0.90961901 11.84828377 1.15318867 7.08086796 2 2 C1.34 2 0.68 2 0 2 C0 1.34 0 0.68 0 0 Z " fill="#FDE1A2" transform="translate(576,441)"/>
<path d="M0 0 C8.57142857 -0.14285714 8.57142857 -0.14285714 12 1 C12 1.66 12 2.32 12 3 C14.64 3 17.28 3 20 3 C20 3.33 20 3.66 20 4 C14.55306686 4.09688221 9.36095333 4.12862175 4 3 C4 2.34 4 1.68 4 1 C2.68 0.67 1.36 0.34 0 0 Z " fill="#F0B459" transform="translate(412,464)"/>
<path d="M0 0 C0.33 0 0.66 0 1 0 C1.3294553 6.74773258 1.45746347 12.07291976 -2 18 C-4.1875 19.9375 -4.1875 19.9375 -6 21 C-6.66 20.67 -7.32 20.34 -8 20 C-7.37480469 19.76539063 -6.74960937 19.53078125 -6.10546875 19.2890625 C-2.72964294 17.22223037 -2.57449177 14.35462138 -1.59375 10.6875 C-0.80638602 7.12364199 -0.33644328 3.63358742 0 0 Z " fill="#737982" transform="translate(391,379)"/>
<path d="M0 0 C1.65 0 3.3 0 5 0 C5.33 0.99 5.66 1.98 6 3 C7.99117408 3.69258229 9.9921136 4.35747635 12 5 C13.6953125 6.5625 13.6953125 6.5625 15 8 C9.76727367 6.36041242 4.84803364 4.61047965 0 2 C0 1.34 0 0.68 0 0 Z " fill="#EB9F31" transform="translate(368,462)"/>
<path d="M0 0 C1 2 1 2 0.3125 5 C-1 8 -1 8 -2.9375 9.4375 C-5 10 -5 10 -8 9 C-7.04270084 7.87411986 -6.08412105 6.7493285 -5.125 5.625 C-4.59132813 4.99851562 -4.05765625 4.37203125 -3.5078125 3.7265625 C-2.38567993 2.44163349 -1.20628025 1.20628025 0 0 Z " fill="#282F3B" transform="translate(705,487)"/>
<path d="M0 0 C6.6 0 13.2 0 20 0 C15.02769509 3.31486994 12.11602074 3.05972352 6.25 2.0625 C5.07953125 1.86785156 3.9090625 1.67320312 2.703125 1.47265625 C1.81109375 1.31667969 0.9190625 1.16070312 0 1 C0 0.67 0 0.34 0 0 Z " fill="#1E2430" transform="translate(538,403)"/>
<path d="M0 0 C0.99 0.33 1.98 0.66 3 1 C3 2.32 3 3.64 3 5 C3.66 5 4.32 5 5 5 C5 8.63 5 12.26 5 16 C2.99706653 12.99559979 2.50728374 11.29006055 1.875 7.8125 C1.70742188 6.91144531 1.53984375 6.01039063 1.3671875 5.08203125 C1.24601562 4.39496094 1.12484375 3.70789063 1 3 C0.34 3.66 -0.32 4.32 -1 5 C-0.67 3.35 -0.34 1.7 0 0 Z " fill="#747A84" transform="translate(465,353)"/>
<path d="M0 0 C1.61648438 0.04060547 1.61648438 0.04060547 3.265625 0.08203125 C4.08546875 0.11683594 4.9053125 0.15164063 5.75 0.1875 C6.08 1.1775 6.41 2.1675 6.75 3.1875 C1.14 3.1875 -4.47 3.1875 -10.25 3.1875 C-5.93072606 -0.05195545 -5.09798489 -0.16623864 0 0 Z " fill="#343B47" transform="translate(554.25,341.8125)"/>
<path d="M0 0 C5.17930997 1.24303439 8.70166639 2.85487785 13 6 C8.79044073 7.40318642 6.90391604 5.88224523 3 4 C2.01 3.34 1.02 2.68 0 2 C0 1.34 0 0.68 0 0 Z " fill="#FEEEC8" transform="translate(384,472)"/>
<path d="M0 0 C0.66 0 1.32 0 2 0 C1.53328373 5.41390868 0.75702189 9.20517932 -2 14 C-2.33 14 -2.66 14 -3 14 C-3 11.69 -3 9.38 -3 7 C-2.34 7 -1.68 7 -1 7 C-1.020625 6.030625 -1.04125 5.06125 -1.0625 4.0625 C-1 1 -1 1 0 0 Z " fill="#FDE8B5" transform="translate(575,458)"/>
<path d="M0 0 C3.73487777 0.4979837 5.81237635 0.87491756 9 3 C10.299375 3.2475 10.299375 3.2475 11.625 3.5 C12.40875 3.665 13.1925 3.83 14 4 C14.33 4.66 14.66 5.32 15 6 C15.99 6.33 16.98 6.66 18 7 C18 7.66 18 8.32 18 9 C14.39777329 7.58273047 10.84589495 6.08110988 7.3125 4.5 C6.35988281 4.0771875 5.40726562 3.654375 4.42578125 3.21875 C2 2 2 2 0 0 Z " fill="#FCE5AF" transform="translate(344,439)"/>
<path d="M0 0 C1.1891713 3.71616032 1.34026535 7.12097502 1 11 C-1 13.9375 -1 13.9375 -3 16 C-2.57910004 10.39538469 -2.08386889 5.27913453 0 0 Z " fill="#5A5F6B" transform="translate(457,339)"/>
<path d="M0 0 C1.32 0 2.64 0 4 0 C4.93065133 2.60582371 5.14917407 3.64198224 4.0625 6.25 C3.5365625 7.11625 3.5365625 7.11625 3 8 C2.01 8 1.02 8 0 8 C0 5.36 0 2.72 0 0 Z " fill="#121629" transform="translate(283,289)"/>
<path d="M0 0 C3.63 1.98 7.26 3.96 11 6 C6.74938644 7.41687119 4.28148375 6.19320039 0 5 C0 3.35 0 1.7 0 0 Z " fill="#FEEFC9" transform="translate(352,454)"/>
<path d="M0 0 C1.47008223 2.94016445 0.76569893 5.1482236 0.3125 8.375 C0.16425781 9.51710938 0.01601563 10.65921875 -0.13671875 11.8359375 C-1.09365444 15.34325834 -2.23495106 16.71362552 -5 19 C-4.35100537 14.83769791 -3.51804917 10.77496741 -2.5 6.6875 C-2.2421875 5.63949219 -1.984375 4.59148437 -1.71875 3.51171875 C-1 1 -1 1 0 0 Z " fill="#B1B6BC" transform="translate(510,363)"/>
<path d="M0 0 C0.99 0.33 1.98 0.66 3 1 C3.984375 3.36328125 3.984375 3.36328125 4.75 6.3125 C5.01296875 7.27800781 5.2759375 8.24351562 5.546875 9.23828125 C5.98967528 11.9370726 5.89543883 13.45283955 5 16 C4.15787744 14.08717875 3.32661136 12.16957527 2.5 10.25 C2.0359375 9.18265625 1.571875 8.1153125 1.09375 7.015625 C0 4 0 4 0 0 Z " fill="#3E4651" transform="translate(435,370)"/>
<path d="M0 0 C-0.125 1.8125 -0.125 1.8125 -1 4 C-5.96585343 7.20021665 -5.96585343 7.20021665 -9.19921875 6.57421875 C-9.79347656 6.38472656 -10.38773438 6.19523437 -11 6 C-9.54550599 4.9944239 -8.08627557 3.99569565 -6.625 3 C-5.40683594 2.1646875 -5.40683594 2.1646875 -4.1640625 1.3125 C-2 0 -2 0 0 0 Z " fill="#FBE1A6" transform="translate(554,464)"/>
<path d="M0 0 C0 4.61019873 -2.49111616 6.45388076 -5.5625 9.75 C-8 12 -8 12 -10 12 C-8.52278578 8.54798361 -6.56205999 6.35038064 -3.875 3.75 C-3.15054688 3.04359375 -2.42609375 2.3371875 -1.6796875 1.609375 C-1.12539062 1.07828125 -0.57109375 0.5471875 0 0 Z " fill="#D6D9DF" transform="translate(217,388)"/>
<path d="M0 0 C1.75547734 2.6848477 2.00627277 3.92002215 1.75 7.1875 C1.5025 8.115625 1.255 9.04375 1 10 C0.01 10.495 0.01 10.495 -1 11 C-1.66 11.99 -2.32 12.98 -3 14 C-2.58846263 9.02906176 -2.20399168 4.55491614 0 0 Z " fill="#3A404B" transform="translate(493,378)"/>
<path d="M0 0 C3.25724605 0.56159415 5.03790401 1.29043887 7 4 C7.6875 7.1875 7.6875 7.1875 8 10 C7.34 8.68 6.68 7.36 6 6 C5.34 6 4.68 6 4 6 C4 5.34 4 4.68 4 4 C2.68 3.67 1.36 3.34 0 3 C0 2.01 0 1.02 0 0 Z " fill="#212733" transform="translate(394,339)"/>
<path d="M0 0 C3.96 0 7.92 0 12 0 C12 0.33 12 0.66 12 1 C9.03 1 6.06 1 3 1 C3 2.65 3 4.3 3 6 C2.01 6.495 2.01 6.495 1 7 C0.67 4.69 0.34 2.38 0 0 Z " fill="#18202D" transform="translate(415,337)"/>
<path d="M0 0 C1 3 1 3 0 6 C-2.87384077 7.9417843 -5.89931133 9.45957258 -9 11 C-8.06558465 9.72689688 -7.12732889 8.456612 -6.1875 7.1875 C-5.66542969 6.47980469 -5.14335937 5.77210938 -4.60546875 5.04296875 C-3.16871123 3.21468607 -1.68184237 1.60103312 0 0 Z " fill="#D6D9DE" transform="translate(311,262)"/>
<path d="M0 0 C1.1446875 0.2475 1.1446875 0.2475 2.3125 0.5 C5.03596236 1.09145396 5.03596236 1.09145396 8 1 C7.67 2.98 7.34 4.96 7 7 C5.83040013 6.02433888 4.66438823 5.044375 3.5 4.0625 C2.8503125 3.51722656 2.200625 2.97195313 1.53125 2.41015625 C1.0259375 1.94480469 0.520625 1.47945313 0 1 C0 0.67 0 0.34 0 0 Z " fill="#1F2434" transform="translate(533,258)"/>
<path d="M0 0 C0.66 0 1.32 0 2 0 C2 0.99 2 1.98 2 3 C7.94 3.99 7.94 3.99 14 5 C14 5.33 14 5.66 14 6 C12.04196493 6.05389087 10.08351091 6.09274217 8.125 6.125 C7.03445313 6.14820313 5.94390625 6.17140625 4.8203125 6.1953125 C2 6 2 6 0 4 C0 2.68 0 1.36 0 0 Z " fill="#454956" transform="translate(436,406)"/>
<path d="M0 0 C0.33 0 0.66 0 1 0 C1.98248524 4.0527516 2.08159574 7.83861737 2 12 C1.01 12.495 1.01 12.495 0 13 C-0.19551338 11.39679026 -0.38111983 9.79237014 -0.5625 8.1875 C-0.71912109 6.84751953 -0.71912109 6.84751953 -0.87890625 5.48046875 C-1 3 -1 3 0 0 Z " fill="#1B252F" transform="translate(527,349)"/>
<path d="M0 0 C0.66 0.33 1.32 0.66 2 1 C-0.64 3.97 -3.28 6.94 -6 10 C-6.99 9.67 -7.98 9.34 -9 9 C-6.03 6.03 -3.06 3.06 0 0 Z " fill="#CED0D7" transform="translate(321,252)"/>
<path d="M0 0 C0.99386719 0.00902344 1.98773437 0.01804687 3.01171875 0.02734375 C4.15060547 0.04474609 4.15060547 0.04474609 5.3125 0.0625 C5.3125 0.3925 5.3125 0.7225 5.3125 1.0625 C0.47008367 2.39833899 -3.62187617 3.31578119 -8.6875 3.0625 C-8.6875 2.4025 -8.6875 1.7425 -8.6875 1.0625 C-5.53819107 0.01273036 -3.29935544 -0.03881595 0 0 Z " fill="#EE9A21" transform="translate(562.6875,431.9375)"/>
<path d="M0 0 C2.58155616 3.87233424 3.12134154 5.53536019 3.0625 10.125 C3.05347656 11.03507812 3.04445313 11.94515625 3.03515625 12.8828125 C3.02355469 13.58148438 3.01195312 14.28015625 3 15 C2.67 15 2.34 15 2 15 C0.2520497 9.75614911 -0.19392201 5.52677733 0 0 Z " fill="#1F2733" transform="translate(474,345)"/>
<path d="M0 0 C5.67276511 -0.29341888 8.99067246 -0.00559652 14 3 C10.45332822 4.25127906 8.27746562 3.72285053 4.75 2.5625 C3.85796875 2.27503906 2.9659375 1.98757813 2.046875 1.69140625 C1.37140625 1.46324219 0.6959375 1.23507812 0 1 C0 0.67 0 0.34 0 0 Z " fill="#FAD79C" transform="translate(397,460)"/>
<path d="M0 0 C4.40114397 0.50298788 6.71195019 2.08772731 10 5 C6.53058454 4.54177532 3.32604951 4.10868317 0 3 C0 2.01 0 1.02 0 0 Z " fill="#EDA83D" transform="translate(352,444)"/>
<path d="M0 0 C4.56454251 0.54339792 7.9728176 1.79463821 12 4 C12 4.33 12 4.66 12 5 C7.6822542 4.49202991 3.96697886 3.80317221 0 2 C0 1.34 0 0.68 0 0 Z " fill="#1F2835" transform="translate(541,363)"/>
<path d="M0 0 C4.15882353 8.02058824 4.15882353 8.02058824 3.625 11.3125 C3.41875 11.869375 3.2125 12.42625 3 13 C2.67 11.35 2.34 9.7 2 8 C1.01 7.67 0.02 7.34 -1 7 C-0.67 4.69 -0.34 2.38 0 0 Z " fill="#4F5761" transform="translate(433,356)"/>
<path d="M0 0 C0.66 0.33 1.32 0.66 2 1 C2 1.99 2 2.98 2 4 C0.35 4.33 -1.3 4.66 -3 5 C-3 7.97 -3 10.94 -3 14 C-3.33 14 -3.66 14 -4 14 C-4.63019694 4.82713348 -4.63019694 4.82713348 -2 1.375 C-1.34 0.92125 -0.68 0.4675 0 0 Z " fill="#C9CFD4" transform="translate(544,346)"/>
<path d="M0 0 C2.64 0 5.28 0 8 0 C3.72626002 2.13686999 1.23076378 3.11896237 -3.625 3.0625 C-4.62789062 3.05347656 -5.63078125 3.04445313 -6.6640625 3.03515625 C-7.43492187 3.02355469 -8.20578125 3.01195312 -9 3 C-9 2.67 -9 2.34 -9 2 C-6.03 2 -3.06 2 0 2 C0 1.34 0 0.68 0 0 Z " fill="#555863" transform="translate(630,526)"/>
<path d="M0 0 C0 1.32 0 2.64 0 4 C-3.28696233 4.79953138 -4.71023192 5.09658936 -8 4 C-2.25 0 -2.25 0 0 0 Z M-5 5 C-4.01 5.495 -4.01 5.495 -3 6 C-3.99 6.495 -3.99 6.495 -5 7 C-5 6.34 -5 5.68 -5 5 Z " fill="#1E2736" transform="translate(388,398)"/>
<path d="M0 0 C0.33 0 0.66 0 1 0 C1 3.3 1 6.6 1 10 C0.34 10 -0.32 10 -1 10 C-1 11.65 -1 13.3 -1 15 C-3 12 -3 12 -2.625 9.3125 C-2.41875 8.549375 -2.2125 7.78625 -2 7 C-1.34 7 -0.68 7 0 7 C0 4.69 0 2.38 0 0 Z " fill="#3B424E" transform="translate(460,366)"/>
<path d="M0 0 C1.03719328 3.21456356 0.94068337 5.40925583 0.1875 8.6875 C0.01605469 9.47511719 -0.15539062 10.26273437 -0.33203125 11.07421875 C-1 13 -1 13 -3 14 C-2.40380045 9.13103697 -1.43023178 4.67209049 0 0 Z " fill="#BFC5CA" transform="translate(517,340)"/>
<path d="M0 0 C0.66 0.66 1.32 1.32 2 2 C-1.63 2 -5.26 2 -9 2 C-9 1.34 -9 0.68 -9 0 C-5.47955362 -1.17348213 -3.57539179 -0.83679382 0 0 Z " fill="#222636" transform="translate(451,214)"/>
<path d="M0 0 C0.53625 0.226875 1.0725 0.45375 1.625 0.6875 C-0.375 3.6875 -0.375 3.6875 -3.375 4.5 C-4.365 4.561875 -5.355 4.62375 -6.375 4.6875 C-7.035 4.0275 -7.695 3.3675 -8.375 2.6875 C-2.95961538 -0.38942308 -2.95961538 -0.38942308 0 0 Z " fill="#303544" transform="translate(678.375,511.3125)"/>
<path d="M0 0 C1.81325551 0.11351517 3.62563357 0.24112961 5.4375 0.375 C6.95150391 0.47941406 6.95150391 0.47941406 8.49609375 0.5859375 C9.73552734 0.79089844 9.73552734 0.79089844 11 1 C11.33 1.66 11.66 2.32 12 3 C3.96428571 3.40178571 3.96428571 3.40178571 0 0 Z " fill="#FEF9E2" transform="translate(405,460)"/>
<path d="M0 0 C1.61949011 2.57213134 2.04408751 3.67669159 1.625 6.75 C1.41875 7.4925 1.2125 8.235 1 9 C0.01 8.67 -0.98 8.34 -2 8 C-1.34 8 -0.68 8 0 8 C-0.33 6.68 -0.66 5.36 -1 4 C-1.99 4.495 -1.99 4.495 -3 5 C-1.125 1.125 -1.125 1.125 0 0 Z " fill="#343C4A" transform="translate(350,374)"/>
<path d="M0 0 C0 1.32 0 2.64 0 4 C-2.375 5.0625 -2.375 5.0625 -5 6 C-5.66 5.67 -6.32 5.34 -7 5 C-7 4.34 -7 3.68 -7 3 C-4.4385343 0.70351351 -3.52032428 0 0 0 Z " fill="#1D2433" transform="translate(358,371)"/>
<path d="M0 0 C0.66 0.33 1.32 0.66 2 1 C2.73075648 3.3140622 3.40138258 5.64828869 4 8 C2.68 7.67 1.36 7.34 0 7 C-1.125 2.25 -1.125 2.25 0 0 Z " fill="#0B1023" transform="translate(195,480)"/>
<path d="M0 0 C2.97 0 5.94 0 9 0 C9.33 1.32 9.66 2.64 10 4 C6.7 3.01 3.4 2.02 0 1 C0 0.67 0 0.34 0 0 Z " fill="#EFA738" transform="translate(397,476)"/>
<path d="M0 0 C0.33 0 0.66 0 1 0 C1.36630156 3.93774177 1.30233203 5.56539771 -1 8.875 C-1.66 9.57625 -2.32 10.2775 -3 11 C-3.66 10.67 -4.32 10.34 -5 10 C-3.35 6.7 -1.7 3.4 0 0 Z " fill="#222733" transform="translate(578,394)"/>
<path d="M0 0 C0.66 0 1.32 0 2 0 C2.38218767 1.65614657 2.71395102 3.32457024 3 5 C2.67 5.33 2.34 5.66 2 6 C1.95907063 8.33297433 1.95758277 10.66705225 2 13 C1.67 13 1.34 13 1 13 C0.67 8.71 0.34 4.42 0 0 Z " fill="#363D45" transform="translate(478,397)"/>
<path d="M0 0 C1.32 0 2.64 0 4 0 C2.50902342 3.7952131 0.24299151 5.61042731 -3 8 C-3 7.01 -3 6.02 -3 5 C-2.34 5 -1.68 5 -1 5 C-0.67 3.35 -0.34 1.7 0 0 Z " fill="#313342" transform="translate(212,388)"/>
<path d="M0 0 C0.33 0 0.66 0 1 0 C2.35384615 6.27692308 2.35384615 6.27692308 0.5625 9.9375 C-0.2109375 10.9584375 -0.2109375 10.9584375 -1 12 C-2.45606519 7.47907032 -1.27032841 4.48351204 0 0 Z " fill="#B3B8C0" transform="translate(463,360)"/>
<path d="M0 0 C1.04005702 3.38018531 1.08004482 6.4780279 1 10 C0.01 10 -0.98 10 -2 10 C-1.125 2.25 -1.125 2.25 0 0 Z " fill="#4A5059" transform="translate(501,346)"/>
<path d="M0 0 C0.99 0.33 1.98 0.66 3 1 C3 2.65 3 4.3 3 6 C1.35 5.67 -0.3 5.34 -2 5 C-2 3.68 -2 2.36 -2 1 C-1.34 0.67 -0.68 0.34 0 0 Z " fill="#232A38" transform="translate(357,337)"/>
<path d="M0 0 C0.66 0.99 1.32 1.98 2 3 C1.34 3 0.68 3 0 3 C-0.2475 3.598125 -0.495 4.19625 -0.75 4.8125 C-2.16370012 7.28647521 -3.65055383 8.43370255 -6 10 C-4.34832443 6.4213696 -2.21713508 3.25179812 0 0 Z " fill="#D6D8DD" transform="translate(299,276)"/>
<path d="M0 0 C0.66 0 1.32 0 2 0 C2 3.3 2 6.6 2 10 C1.34 9.67 0.68 9.34 0 9 C-0.85056945 5.44307323 -1.16909807 3.50729422 0 0 Z " fill="#3F4551" transform="translate(538,348)"/>
<path d="M0 0 C1.65 0.33 3.3 0.66 5 1 C4.67 2.32 4.34 3.64 4 5 C1.525 4.01 1.525 4.01 -1 3 C-0.67 2.01 -0.34 1.02 0 0 Z " fill="#1D2533" transform="translate(570,338)"/>
<path d="M0 0 C-0.66 0 -1.32 0 -2 0 C-2.33 0.99 -2.66 1.98 -3 3 C-5.31 3 -7.62 3 -10 3 C-8.68 2.67 -7.36 2.34 -6 2 C-6 1.34 -6 0.68 -6 0 C-3.50907189 -1.24546405 -2.58919267 -0.7767578 0 0 Z " fill="#EBA233" transform="translate(526,463)"/>
<path d="M0 0 C0.8353125 0.37125 0.8353125 0.37125 1.6875 0.75 C-0.67218744 2.84749995 -1.85866994 3.71905704 -5.0625 3.9375 C-6.17625 3.8446875 -6.17625 3.8446875 -7.3125 3.75 C-2.88173077 -0.31153846 -2.88173077 -0.31153846 0 0 Z " fill="#232A38" transform="translate(370.3125,374.25)"/>
<path d="M0 0 C0.33 0 0.66 0 1 0 C0.88637738 1.4800841 0.75877092 2.95910074 0.625 4.4375 C0.52058594 5.67306641 0.52058594 5.67306641 0.4140625 6.93359375 C0.27742188 7.61550781 0.14078125 8.29742187 0 9 C-0.99 9.495 -0.99 9.495 -2 10 C-1.85950482 8.52031676 -1.71245174 7.04125484 -1.5625 5.5625 C-1.48128906 4.73878906 -1.40007812 3.91507812 -1.31640625 3.06640625 C-1 1 -1 1 0 0 Z " fill="#1B2331" transform="translate(499,361)"/>
<path d="M0 0 C1.98 1.65 3.96 3.3 6 5 C4.02 5.99 4.02 5.99 2 7 C0 2.25 0 2.25 0 0 Z " fill="#DDE0E5" transform="translate(694,321)"/>
<path d="M0 0 C0.66 0 1.32 0 2 0 C2.66 0.99 3.32 1.98 4 3 C4.66 3.66 5.32 4.32 6 5 C4.02 5.99 4.02 5.99 2 7 C0.5393715 4.35261084 0 3.10551666 0 0 Z " fill="#22232F" transform="translate(563,295)"/>
<path d="M0 0 C0 3.10551666 -0.5393715 4.35261084 -2 7 C-2.33 6.01 -2.66 5.02 -3 4 C-3.66 3.67 -4.32 3.34 -5 3 C-3.35 2.01 -1.7 1.02 0 0 Z " fill="#FAFEF0" transform="translate(569,457)"/>
<path d="M0 0 C1 2 1 2 0.44140625 4.1640625 C0.15136719 4.97617187 -0.13867188 5.78828125 -0.4375 6.625 C-0.72496094 7.44226563 -1.01242187 8.25953125 -1.30859375 9.1015625 C-1.53675781 9.72804688 -1.76492188 10.35453125 -2 11 C-2.33 11 -2.66 11 -3 11 C-3.32613618 6.32538149 -2.70582788 3.83325617 0 0 Z " fill="#EBB04D" transform="translate(589,450)"/>
<path d="M0 0 C0.66 0.33 1.32 0.66 2 1 C1.67 1.66 1.34 2.32 1 3 C-1.06640625 3.4140625 -1.06640625 3.4140625 -3.5625 3.625 C-4.38878906 3.69976562 -5.21507812 3.77453125 -6.06640625 3.8515625 C-7.02353516 3.92503906 -7.02353516 3.92503906 -8 4 C-5.31143836 2.20762558 -3.0466145 1.01553817 0 0 Z " fill="#ECAD4D" transform="translate(560,450)"/>
<path d="M0 0 C1.9375 0.75 1.9375 0.75 4 2 C4.75 4.125 4.75 4.125 5 6 C4.01 5.67 3.02 5.34 2 5 C2 4.34 2 3.68 2 3 C0.35 3 -1.3 3 -3 3 C-2.01 2.01 -1.02 1.02 0 0 Z " fill="#FDFBEC" transform="translate(356,440)"/>
<path d="M0 0 C2.31 0.33 4.62 0.66 7 1 C4.03312999 2.64826111 1.34373475 3.44271087 -2 4 C-1.34 2.68 -0.68 1.36 0 0 Z " fill="#FEF7D4" transform="translate(557,428)"/>
<path d="M0 0 C1.8125 0.125 1.8125 0.125 4 1 C5.75 4.0625 5.75 4.0625 7 7 C4.13302508 5.71480435 2.02392288 4.42870746 0 2 C0 1.34 0 0.68 0 0 Z " fill="#454A54" transform="translate(349,405)"/>
<path d="M0 0 C1.28317892 3.84953676 1.06643637 6.94738135 1 11 C-2.00617269 7.99382731 -1.59585316 5.17618402 -2 1 C-1.34 0.67 -0.68 0.34 0 0 Z " fill="#5F636E" transform="translate(473,373)"/>
<path d="M0 0 C2.56616632 3.84924948 2.55097676 6.4349304 3 11 C1.5 10 1.5 10 0 8 C-0.27345479 5.28153765 -0.13491285 2.74322801 0 0 Z " fill="#5F646D" transform="translate(480,365)"/>
<path d="M0 0 C0.66 0 1.32 0 2 0 C1.34 3.3 0.68 6.6 0 10 C-2 6 -2 6 -1.125 2.75 C-0.75375 1.8425 -0.3825 0.935 0 0 Z " fill="#373F49" transform="translate(514,344)"/>
<path d="M0 0 C3.93846154 3.32307692 3.93846154 3.32307692 4.25 6.75 C4.1675 7.4925 4.085 8.235 4 9 C3.34 9 2.68 9 2 9 C0.50178941 5.62902617 0 3.79557881 0 0 Z " fill="#868E9A" transform="translate(441,387)"/>
<path d="M0 0 C0.33 0 0.66 0 1 0 C0.25 7.75 0.25 7.75 -2 10 C-2.17942163 6.05272412 -2.09350689 3.4019487 0 0 Z " fill="#1E2430" transform="translate(501,385)"/>
<path d="M0 0 C0.33 0 0.66 0 1 0 C1.22036864 3.85645121 0.60355101 6.49223216 -1 10 C-1.33 10 -1.66 10 -2 10 C-2.25 3.375 -2.25 3.375 0 0 Z " fill="#1D2431" transform="translate(454,361)"/>
<path d="M0 0 C0.33 0 0.66 0 1 0 C1.33 3.3 1.66 6.6 2 10 C1.01 10.495 1.01 10.495 0 11 C-1.35015859 6.94952424 -0.62084998 4.2079832 0 0 Z " fill="#3E444F" transform="translate(477,352)"/>
<path d="M0 0 C0.66 0 1.32 0 2 0 C2 2.31 2 4.62 2 7 C1.01 7.495 1.01 7.495 0 8 C-0.98120464 4.94736336 -0.98120464 3.05263664 0 0 Z " fill="#1F2534" transform="translate(458,339)"/>
<path d="M0 0 C1.32 0 2.64 0 4 0 C4 1.32 4 2.64 4 4 C2.35 3.67 0.7 3.34 -1 3 C-0.67 2.01 -0.34 1.02 0 0 Z " fill="#3C454F" transform="translate(351,338)"/>
</svg>
