<?xml version="1.0" standalone="no"?>
<!DOCTYPE svg PUBLIC "-//W3C//DTD SVG 20010904//EN"
 "http://www.w3.org/TR/2001/REC-SVG-20010904/DTD/svg10.dtd">
<svg version="1.0" xmlns="http://www.w3.org/2000/svg"
 width="300.000000pt" height="182.000000pt" viewBox="0 0 300.000000 182.000000"
 preserveAspectRatio="xMidYMid meet">
<metadata>
Created by potrace 1.10, written by Peter Selinger 2001-2011
</metadata>
<g transform="translate(0.000000,182.000000) scale(0.100000,-0.100000)"
fill="#000000" stroke="none">
<path d="M1252 1723 c-17 -3 -21 -9 -17 -23 4 -12 -2 -27 -16 -41 -12 -12 -15
-20 -8 -17 8 2 21 18 29 36 17 36 34 43 25 10 -6 -22 -5 -22 9 -4 14 17 25 18
96 13 94 -6 183 -44 240 -101 19 -19 41 -36 48 -36 6 0 12 -4 12 -8 0 -5 39
-9 87 -10 48 -1 97 -5 108 -8 38 -11 75 -29 75 -36 0 -5 7 -8 15 -8 8 0 42
-26 75 -59 42 -42 70 -61 96 -66 76 -14 175 -100 182 -157 2 -18 0 -30 -3 -26
-4 4 -23 1 -41 -7 -21 -8 -36 -10 -40 -4 -5 8 -567 15 -674 8 -81 -5 -210 3
-229 15 -10 6 -12 5 -7 -2 4 -7 1 -12 -8 -12 -8 0 -16 3 -19 8 -2 4 -2 2 -1
-5 2 -6 -4 -14 -13 -17 -11 -4 -14 -2 -9 9 4 11 -1 15 -20 15 -14 0 -23 -4
-20 -9 5 -8 -28 -7 -101 3 -13 2 -23 -1 -23 -6 0 -5 -4 -7 -8 -4 -14 8 -96 9
-116 1 -11 -5 -17 -5 -14 1 4 5 -34 6 -95 2 -107 -7 -163 -2 -173 14 -9 14
-11 78 -2 78 3 0 9 14 13 30 4 18 31 55 63 89 45 45 68 60 107 71 28 7 59 18
70 24 11 5 23 9 26 9 4 -1 15 7 25 19 13 15 14 19 4 14 -8 -4 14 20 50 53 59
56 68 61 100 56 28 -4 31 -3 14 4 -35 15 -42 35 -10 27 31 -8 66 8 66 29 0 8
-4 15 -10 15 -5 0 -10 -7 -10 -15 0 -8 -8 -15 -17 -15 -16 0 -16 2 -3 11 40
28 -40 -7 -88 -39 -47 -31 -122 -112 -122 -133 0 -4 -23 -12 -50 -18 -74 -16
-113 -35 -159 -77 -67 -60 -93 -114 -99 -201 l-5 -76 52 5 c28 3 50 2 49 -3
-2 -4 -72 -85 -157 -179 -117 -131 -148 -171 -130 -168 15 2 75 61 175 173
l152 170 224 5 c123 3 276 4 341 2 l118 -3 -3 -175 c-3 -162 -2 -174 15 -174
17 0 18 11 15 175 l-3 175 355 -1 355 -1 154 -174 c106 -120 160 -174 174
-174 19 0 19 3 -9 33 -72 77 -284 316 -284 320 0 2 25 2 56 -1 55 -5 56 -4 49
19 -19 67 -59 131 -102 164 -41 31 -124 65 -159 65 -7 0 -15 9 -19 19 -9 30
-82 91 -144 120 -47 22 -71 26 -151 28 l-95 1 -47 44 c-51 49 -132 92 -199
107 -44 10 -143 12 -187 4z"/>
<path d="M192 588 l3 -183 113 -3 c101 -2 113 -5 110 -20 -2 -9 -10 -16 -18
-14 -25 6 -60 -8 -60 -23 0 -13 23 -15 140 -15 77 0 140 4 140 9 0 18 -30 33
-55 27 -20 -5 -25 -3 -25 13 0 19 8 21 113 23 l112 3 0 180 0 180 -288 3 -287
2 2 -182z m546 0 l-3 -153 -255 0 -255 0 -3 153 -3 152 261 0 261 0 -3 -152z
m-230 -193 c-2 -6 -9 -9 -15 -9 -7 1 -13 -2 -13 -7 0 -5 5 -9 12 -9 9 0 9 -3
0 -12 -9 -9 -15 -9 -24 0 -9 9 -7 16 7 32 18 20 39 23 33 5z"/>
<path d="M1218 595 c-2 -102 1 -180 6 -186 6 -5 59 -9 119 -9 98 0 108 -2 105
-17 -2 -10 -10 -17 -18 -15 -23 5 -57 -7 -64 -23 -5 -13 14 -15 140 -15 144 0
145 0 133 21 -8 16 -17 20 -39 15 -25 -5 -40 6 -40 30 0 2 53 5 118 6 l117 3
0 180 0 180 -287 3 -287 2 -3 -175z m542 -10 l0 -155 -255 0 -255 0 0 155 0
155 255 0 255 0 0 -155z"/>
<path d="M2244 757 c-2 -7 -3 -89 -2 -182 l3 -170 123 -5 c103 -4 125 -2 133
10 7 12 8 11 9 -4 0 -20 0 -20 15 0 8 10 14 15 15 9 0 -16 -18 -40 -26 -33 -4
4 -16 1 -27 -7 -12 -8 -31 -12 -44 -9 -23 6 -53 -10 -53 -27 0 -5 63 -9 140
-9 117 0 140 2 140 15 0 15 -35 29 -60 23 -8 -2 -16 5 -18 15 -3 15 7 17 112
17 71 0 116 4 116 10 0 6 1 84 1 175 0 91 -1 170 -1 175 0 16 -569 13 -576 -3z
m546 -172 l0 -155 -255 1 -255 1 0 154 0 154 255 0 255 0 0 -155z"/>
<path d="M211 214 c-31 -39 -29 -107 4 -139 36 -37 105 -32 105 6 0 16 -3 18
-19 9 -27 -14 -37 -13 -55 6 -19 18 -21 85 -4 102 16 16 51 15 67 0 10 -11 12
-8 9 12 -3 21 -9 25 -44 28 -35 3 -45 -1 -63 -24z"/>
<path d="M362 148 l3 -93 50 0 c38 0 50 4 50 15 0 11 -10 15 -32 14 l-33 -2 0
79 c0 73 -2 79 -20 79 -20 0 -21 -5 -18 -92z"/>
<path d="M515 215 c-19 -18 -25 -35 -25 -70 0 -59 32 -95 85 -95 55 0 85 35
85 100 0 64 -23 90 -80 90 -30 0 -47 -7 -65 -25z m94 -19 c7 -8 11 -34 9 -57
-4 -51 -25 -68 -62 -51 -22 10 -26 18 -26 55 0 24 5 48 12 55 16 16 53 15 67
-2z"/>
<path d="M710 165 c0 -89 17 -115 75 -115 58 0 75 26 75 115 0 68 -2 75 -20
75 -18 0 -20 -7 -20 -74 0 -66 -2 -75 -20 -81 -37 -12 -50 11 -50 86 0 62 -2
69 -20 69 -18 0 -20 -7 -20 -75z"/>
<path d="M919 238 c0 -2 -1 -43 -1 -93 l-2 -90 54 2 c45 1 58 6 77 28 38 44
25 122 -24 144 -20 9 -102 16 -104 9z m93 -45 c37 -34 8 -113 -42 -113 -18 0
-20 7 -20 65 0 60 2 65 22 65 12 0 30 -7 40 -17z"/>
<path d="M1212 217 c-17 -18 -22 -35 -22 -74 0 -44 4 -55 26 -72 41 -32 104
-26 104 10 0 17 -3 18 -21 8 -16 -8 -28 -8 -45 0 -20 9 -24 18 -24 54 0 24 5
48 12 55 16 16 51 15 67 0 10 -11 12 -8 9 12 -3 21 -9 25 -43 28 -32 2 -45 -2
-63 -21z"/>
<path d="M1381 221 c-40 -40 -34 -138 9 -161 32 -17 77 -11 107 14 24 21 28
32 28 74 0 67 -22 92 -82 92 -29 0 -49 -6 -62 -19z m99 -30 c14 -28 12 -63 -6
-89 -34 -49 -92 -4 -80 62 4 19 12 37 19 39 27 12 57 6 67 -12z"/>
<path d="M1574 227 c-2 -7 -4 -49 -2 -93 3 -66 6 -79 21 -82 15 -3 17 6 18 75
l1 78 26 -77 c34 -102 52 -104 82 -11 31 95 40 97 33 9 -6 -73 -5 -76 16 -76
20 0 21 5 21 95 l0 95 -29 0 c-27 0 -32 -6 -50 -55 -12 -31 -21 -61 -21 -67 0
-22 -15 4 -35 60 -17 49 -24 57 -48 60 -16 2 -29 -2 -33 -11z"/>
<path d="M1844 227 c-3 -8 -4 -49 -2 -93 3 -66 6 -79 21 -82 14 -3 17 4 17 32
0 33 2 36 28 36 55 0 83 68 44 103 -23 21 -100 23 -108 4z m81 -47 c0 -18 -6
-26 -22 -28 -20 -3 -23 1 -23 28 0 27 3 31 23 28 16 -2 22 -10 22 -28z"/>
<path d="M2010 170 c0 -62 3 -74 25 -95 29 -30 74 -33 106 -6 20 16 24 30 27
95 4 71 3 76 -16 76 -19 0 -21 -7 -24 -71 -2 -55 -7 -74 -20 -83 -13 -8 -23
-8 -35 0 -14 9 -19 28 -21 83 -3 63 -5 71 -22 71 -18 0 -20 -7 -20 -70z"/>
<path d="M2200 225 c0 -9 9 -15 25 -15 25 0 25 -1 25 -80 0 -73 2 -80 20 -80
18 0 20 7 20 80 0 79 0 80 25 80 16 0 25 6 25 15 0 12 -14 15 -70 15 -56 0
-70 -3 -70 -15z"/>
<path d="M2380 145 c0 -88 1 -95 20 -95 19 0 20 7 20 95 0 88 -1 95 -20 95
-19 0 -20 -7 -20 -95z"/>
<path d="M2470 145 c0 -87 2 -96 18 -93 14 3 17 13 14 71 -2 37 -1 67 2 67 3
0 22 -31 41 -70 26 -51 41 -70 55 -70 18 0 20 7 20 79 0 44 3 86 6 95 4 12 0
16 -15 16 -19 0 -21 -6 -21 -67 l0 -68 -33 65 c-27 53 -39 66 -60 68 l-27 3 0
-96z"/>
<path d="M2695 214 c-41 -45 -29 -130 22 -153 30 -14 68 -14 94 -1 14 8 19 21
19 55 l0 45 -40 0 c-29 0 -40 -4 -40 -15 0 -9 9 -15 21 -15 15 0 20 -5 17 -22
-8 -54 -78 -20 -78 38 0 48 24 68 77 60 33 -4 43 -2 43 8 0 18 -22 26 -71 26
-30 0 -46 -6 -64 -26z"/>
</g>
</svg>
