<?xml version="1.0" standalone="no"?>
<!DOCTYPE svg PUBLIC "-//W3C//DTD SVG 20010904//EN"
 "http://www.w3.org/TR/2001/REC-SVG-20010904/DTD/svg10.dtd">
<svg version="1.0" xmlns="http://www.w3.org/2000/svg"
 width="800.000000pt" height="426.000000pt" viewBox="0 0 800.000000 426.000000"
 preserveAspectRatio="xMidYMid meet">

<g transform="translate(0.000000,426.000000) scale(0.100000,-0.100000)"
fill="#000000" stroke="none">
<path d="M4370 2325 l0 -735 85 0 85 0 0 735 0 735 -85 0 -85 0 0 -735z"/>
<path d="M820 2940 c-196 -49 -371 -174 -490 -350 -42 -61 -99 -181 -100 -207
0 -10 166 -13 800 -13 l799 0 -13 38 c-93 264 -338 481 -607 537 -100 21 -294
19 -389 -5z"/>
<path d="M2795 2674 c-195 -25 -322 -109 -399 -264 -77 -157 -86 -391 -21
-545 28 -64 91 -148 143 -187 107 -81 198 -109 357 -109 123 -1 202 11 317 47
l78 25 0 84 0 84 -56 -25 c-107 -47 -201 -67 -314 -67 -118 -1 -177 15 -248
66 -73 52 -125 152 -134 257 l-3 35 398 3 397 2 0 89 c0 94 -25 212 -59 278
-27 55 -104 137 -154 166 -74 43 -215 72 -302 61z m144 -160 c60 -17 132 -78
161 -134 16 -31 44 -150 37 -155 -1 -1 -140 -5 -309 -9 -354 -8 -324 -18 -288
96 32 105 103 173 211 202 71 19 124 19 188 0z"/>
<path d="M3825 2670 c-230 -27 -387 -168 -434 -388 -16 -77 -14 -266 4 -337
47 -185 170 -315 341 -360 118 -32 325 -17 441 31 l33 14 0 81 c0 61 -3 80
-12 76 -230 -102 -394 -100 -513 5 -93 82 -131 194 -122 363 7 136 32 202 106
276 123 123 285 130 529 22 9 -4 12 15 12 76 l0 82 -35 15 c-89 37 -247 57
-350 44z"/>
<path d="M5584 2670 c-98 -14 -184 -66 -241 -145 l-22 -30 -1 78 0 77 -85 0
-85 0 0 -730 0 -730 85 0 85 0 2 277 3 276 28 -41 c59 -84 164 -132 292 -133
103 -1 177 19 242 68 131 96 203 268 203 483 0 366 -210 595 -506 550z m151
-168 c112 -57 175 -195 175 -382 0 -240 -101 -392 -270 -407 -191 -18 -320
147 -320 407 0 211 79 355 220 401 43 14 152 4 195 -19z"/>
<path d="M6472 2669 c-100 -12 -182 -50 -236 -110 -52 -57 -71 -118 -69 -212
3 -154 87 -230 311 -283 224 -52 283 -82 303 -156 14 -52 -9 -118 -51 -148
-48 -34 -145 -53 -240 -47 -86 6 -220 42 -293 79 l-38 19 3 -93 3 -92 89 -23
c115 -30 249 -42 356 -32 150 13 256 68 315 164 26 42 30 59 33 136 4 77 1 95
-21 143 -44 96 -115 135 -344 191 -82 20 -166 46 -188 58 -77 43 -94 131 -39
196 41 49 102 66 234 65 119 0 194 -15 272 -55 l38 -19 0 84 0 85 -66 20 c-54
17 -253 44 -289 40 -5 -1 -43 -5 -83 -10z"/>
<path d="M7455 2670 c-262 -36 -417 -223 -432 -520 -12 -240 78 -424 253 -517
89 -48 163 -64 289 -64 125 -1 206 11 318 48 l77 26 0 83 0 83 -56 -25 c-109
-48 -201 -68 -319 -68 -88 0 -120 4 -161 21 -126 50 -191 141 -219 306 l-6 37
401 0 400 0 0 83 c-1 204 -73 360 -207 445 -85 54 -219 78 -338 62z m174 -156
c103 -30 178 -128 194 -251 l5 -43 -121 0 c-67 0 -207 -3 -311 -7 l-189 -6 6
44 c13 92 69 184 141 228 41 25 128 49 182 50 22 1 64 -6 93 -15z"/>
<path d="M4760 2120 l0 -530 85 0 85 0 0 530 0 530 -85 0 -85 0 0 -530z"/>
<path d="M1023 2272 l-823 -2 0 -45 0 -45 830 0 830 0 -1 23 c-1 12 -4 33 -8
47 l-6 25 -822 -3z"/>
<path d="M200 2035 l0 -45 824 0 823 0 7 31 c3 17 6 38 6 45 0 12 -132 14
-830 14 l-830 0 0 -45z"/>
<path d="M230 1878 c0 -7 13 -42 28 -78 82 -192 266 -370 462 -448 186 -74
460 -69 644 12 122 54 261 168 341 281 48 67 115 199 115 227 0 17 -40 18
-795 18 -629 0 -795 -3 -795 -12z"/>
</g>
</svg>
