<?xml version="1.0" encoding="UTF-8"?>
<!DOCTYPE svg PUBLIC "-//W3C//DTD SVG 1.1//EN" "http://www.w3.org/Graphics/SVG/1.1/DTD/svg11.dtd">
<svg xmlns="http://www.w3.org/2000/svg" version="1.1" width="1400px" height="464px" style="shape-rendering:geometricPrecision; text-rendering:geometricPrecision; image-rendering:optimizeQuality; fill-rule:evenodd; clip-rule:evenodd" xmlns:xlink="http://www.w3.org/1999/xlink">
<g><path style="opacity:1" fill="#fefefe" d="M -0.5,-0.5 C 466.167,-0.5 932.833,-0.5 1399.5,-0.5C 1399.5,154.167 1399.5,308.833 1399.5,463.5C 932.833,463.5 466.167,463.5 -0.5,463.5C -0.5,308.833 -0.5,154.167 -0.5,-0.5 Z"/></g>
<g><path style="opacity:1" fill="#78786e" d="M 260.5,41.5 C 293.919,39.7244 326.919,42.5577 359.5,50C 362,50.8333 364.5,51.6667 367,52.5C 368.257,52.8499 368.591,53.5165 368,54.5C 360.667,60.5 354,67.1667 348,74.5C 335.908,90.3483 323.574,106.015 311,121.5C 281.68,153.707 246.18,162.873 204.5,149C 200.167,147.333 195.833,145.667 191.5,144C 228.938,118.274 268.271,95.6069 309.5,76C 249.7,89.9039 195.7,115.571 147.5,153C 120.283,175.211 100.449,202.711 88,235.5C 72.22,283.89 83.0534,325.056 120.5,359C 151.571,380.02 183.905,382.02 217.5,365C 252.278,342.038 266.112,309.871 259,268.5C 248.666,232.499 225.166,210.666 188.5,203C 157.113,199.017 130.613,208.517 109,231.5C 123.426,201.293 144.593,176.46 172.5,157C 232.34,158.518 274.173,186.685 298,241.5C 314.917,291.04 306.917,336.04 274,376.5C 233.266,418.652 184.766,431.152 128.5,414C 72.3937,390.66 43.3937,348.493 41.5,287.5C 42.5778,248.043 55.4111,213.043 80,182.5C 94.5504,164.774 111.384,149.774 130.5,137.5C 132.045,104.22 147.378,79.7202 176.5,64C 190.439,56.6867 205.106,51.3533 220.5,48C 233.909,45.3968 247.242,43.2301 260.5,41.5 Z"/></g>
<g><path style="opacity:1" fill="#45a246" d="M 1351.5,142.5 C 1352.17,142.5 1352.83,142.5 1353.5,142.5C 1354.79,148.259 1355.46,154.259 1355.5,160.5C 1355.33,166.167 1355.17,171.833 1355,177.5C 1347.82,178.248 1340.65,179.414 1333.5,181C 1330.31,183.976 1328.31,187.476 1327.5,191.5C 1327.5,193.167 1327.5,194.833 1327.5,196.5C 1326.17,199.167 1326.17,201.833 1327.5,204.5C 1335.32,205.329 1343.32,205.829 1351.5,206C 1352.03,206.692 1352.69,207.192 1353.5,207.5C 1354.5,218.48 1354.83,229.48 1354.5,240.5C 1345.25,240.818 1336.08,240.485 1327,239.5C 1326.54,240.094 1326.37,240.761 1326.5,241.5C 1325.66,241.842 1325.33,242.508 1325.5,243.5C 1325.17,243.5 1324.83,243.5 1324.5,243.5C 1324.76,242.022 1324.43,240.689 1323.5,239.5C 1322.5,287.495 1322.17,335.495 1322.5,383.5C 1321.83,335.665 1321.17,287.665 1320.5,239.5C 1319.82,240.243 1319.15,240.909 1318.5,241.5C 1318.63,240.624 1318.3,239.957 1317.5,239.5C 1316.17,287.5 1316.17,335.5 1317.5,383.5C 1318.5,339.838 1318.83,296.172 1318.5,252.5C 1319.17,296.236 1319.84,340.069 1320.5,384C 1309.12,384.79 1297.79,384.623 1286.5,383.5C 1286.35,336.791 1286.52,290.124 1287,243.5C 1286.33,242.748 1285.5,242.414 1284.5,242.5C 1277.69,241.509 1270.69,241.175 1263.5,241.5C 1263.5,229.167 1263.5,216.833 1263.5,204.5C 1270.35,204.824 1277.02,204.491 1283.5,203.5C 1284.93,197.386 1286.43,191.053 1288,184.5C 1288.5,180.179 1288.67,175.846 1288.5,171.5C 1288.5,170.833 1288.5,170.167 1288.5,169.5C 1290.8,166.19 1293.13,162.857 1295.5,159.5C 1300.07,157.262 1304.07,154.262 1307.5,150.5C 1308.51,149.326 1309.85,148.66 1311.5,148.5C 1315.92,148.695 1320.25,148.195 1324.5,147C 1326.43,146.578 1327.43,145.411 1327.5,143.5C 1328.17,143.5 1328.83,143.5 1329.5,143.5C 1336.85,143.451 1344.18,143.118 1351.5,142.5 Z"/></g>
<g><path style="opacity:1" fill="#e3fde4" d="M 1356.5,178.5 C 1356.5,166.5 1356.5,154.5 1356.5,142.5C 1355.5,142.5 1354.5,142.5 1353.5,142.5C 1352.83,142.5 1352.17,142.5 1351.5,142.5C 1349.02,141.836 1346.36,141.503 1343.5,141.5C 1338.59,141.421 1333.92,142.088 1329.5,143.5C 1328.83,143.5 1328.17,143.5 1327.5,143.5C 1327.5,142.5 1327.5,141.5 1327.5,140.5C 1338.29,139.178 1348.96,139.845 1359.5,142.5C 1357.87,154.496 1356.87,166.496 1356.5,178.5 Z"/></g>
<g><path style="opacity:1" fill="#74ac78" d="M 1351.5,142.5 C 1344.18,143.118 1336.85,143.451 1329.5,143.5C 1333.92,142.088 1338.59,141.421 1343.5,141.5C 1346.36,141.503 1349.02,141.836 1351.5,142.5 Z"/></g>
<g><path style="opacity:1" fill="#599e58" d="M 1327.5,143.5 C 1327.43,145.411 1326.43,146.578 1324.5,147C 1320.25,148.195 1315.92,148.695 1311.5,148.5C 1316.37,145.657 1321.7,143.991 1327.5,143.5 Z"/></g>
<g><path style="opacity:1" fill="#45a246" d="M 787.5,145.5 C 788.5,145.5 789.5,145.5 790.5,145.5C 801.038,146.188 811.705,146.855 822.5,147.5C 823.736,146.754 825.07,146.421 826.5,146.5C 826.5,150.167 826.5,153.833 826.5,157.5C 825.679,154.359 825.179,151.025 825,147.5C 823.576,151.297 823.076,155.297 823.5,159.5C 822.833,234.167 822.167,308.833 821.5,383.5C 822.164,308.493 821.497,233.826 819.5,159.5C 819.167,159.5 818.833,159.5 818.5,159.5C 817.833,234.001 817.167,308.668 816.5,383.5C 810.896,384.454 805.229,384.788 799.5,384.5C 799.5,308.833 799.5,233.167 799.5,157.5C 796.289,157.012 793.456,157.679 791,159.5C 790.833,234.334 790.333,309.001 789.5,383.5C 790.164,308.493 789.497,233.826 787.5,159.5C 787.5,154.833 787.5,150.167 787.5,145.5 Z"/></g>
<g><path style="opacity:1" fill="#699e6a" d="M 1307.5,150.5 C 1304.07,154.262 1300.07,157.262 1295.5,159.5C 1298.93,155.738 1302.93,152.738 1307.5,150.5 Z"/></g>
<g><path style="opacity:1" fill="#abd7a9" d="M 827.5,144.5 C 827.5,144.833 827.5,145.167 827.5,145.5C 815.167,145.5 802.833,145.5 790.5,145.5C 789.5,145.5 788.5,145.5 787.5,145.5C 786.501,225.332 786.167,305.332 786.5,385.5C 785.501,305.335 785.167,225.002 785.5,144.5C 799.5,144.5 813.5,144.5 827.5,144.5 Z"/></g>
<g><path style="opacity:1" fill="#499e4d" d="M 799.5,384.5 C 795.629,384.815 791.962,384.482 788.5,383.5C 788.833,383.5 789.167,383.5 789.5,383.5C 790.333,309.001 790.833,234.334 791,159.5C 793.456,157.679 796.289,157.012 799.5,157.5C 799.5,233.167 799.5,308.833 799.5,384.5 Z"/></g>
<g><path style="opacity:1" fill="#4b9c51" d="M 787.5,145.5 C 787.5,150.167 787.5,154.833 787.5,159.5C 787.167,234.335 787.501,309.002 788.5,383.5C 791.962,384.482 795.629,384.815 799.5,384.5C 805.229,384.788 810.896,384.454 816.5,383.5C 817.167,308.668 817.833,234.001 818.5,159.5C 818.5,234.5 818.5,309.5 818.5,384.5C 820.735,384.795 822.735,384.461 824.5,383.5C 824.833,383.5 825.167,383.5 825.5,383.5C 812.876,385.481 799.876,386.148 786.5,385.5C 786.167,305.332 786.501,225.332 787.5,145.5 Z"/></g>
<g><path style="opacity:1" fill="#41a443" d="M 793.5,159.5 C 794.833,159.5 796.167,159.5 797.5,159.5C 797.5,234.167 797.5,308.833 797.5,383.5C 796.167,383.5 794.833,383.5 793.5,383.5C 793.5,308.833 793.5,234.167 793.5,159.5 Z"/></g>
<g><path style="opacity:1" fill="#44a740" d="M 787.5,159.5 C 789.497,233.826 790.164,308.493 789.5,383.5C 789.167,383.5 788.833,383.5 788.5,383.5C 787.501,309.002 787.167,234.335 787.5,159.5 Z"/></g>
<g><path style="opacity:1" fill="#47a04f" d="M 818.5,159.5 C 818.833,159.5 819.167,159.5 819.5,159.5C 818.836,234.507 819.503,309.174 821.5,383.5C 822.167,308.833 822.833,234.167 823.5,159.5C 824.499,233.998 824.833,308.665 824.5,383.5C 822.735,384.461 820.735,384.795 818.5,384.5C 818.5,309.5 818.5,234.5 818.5,159.5 Z"/></g>
<g><path style="opacity:1" fill="#42a53b" d="M 819.5,159.5 C 821.497,233.826 822.164,308.493 821.5,383.5C 819.503,309.174 818.836,234.507 819.5,159.5 Z"/></g>
<g><path style="opacity:1" fill="#38a845" d="M 826.5,157.5 C 826.5,232.833 826.5,308.167 826.5,383.5C 826.167,383.5 825.833,383.5 825.5,383.5C 825.167,383.5 824.833,383.5 824.5,383.5C 824.833,308.665 824.499,233.998 823.5,159.5C 823.076,155.297 823.576,151.297 825,147.5C 825.179,151.025 825.679,154.359 826.5,157.5 Z"/></g>
<g><path style="opacity:1" fill="#509651" d="M 790.5,145.5 C 802.833,145.5 815.167,145.5 827.5,145.5C 827.5,224.833 827.5,304.167 827.5,383.5C 827.167,383.5 826.833,383.5 826.5,383.5C 826.5,308.167 826.5,232.833 826.5,157.5C 826.5,153.833 826.5,150.167 826.5,146.5C 825.07,146.421 823.736,146.754 822.5,147.5C 811.705,146.855 801.038,146.188 790.5,145.5 Z"/></g>
<g><path style="opacity:1" fill="#f4feee" d="M 827.5,144.5 C 828.168,224.236 828.835,304.069 829.5,384C 828.934,384.995 828.267,385.828 827.5,386.5C 827.5,385.5 827.5,384.5 827.5,383.5C 827.5,304.167 827.5,224.833 827.5,145.5C 827.5,145.167 827.5,144.833 827.5,144.5 Z"/></g>
<g><path style="opacity:1" fill="#e9fce8" d="M 1288.5,169.5 C 1288.5,170.167 1288.5,170.833 1288.5,171.5C 1285.94,176.061 1284.44,181.061 1284,186.5C 1283.5,192.157 1283.33,197.824 1283.5,203.5C 1276.83,203.5 1270.17,203.5 1263.5,203.5C 1268.65,202.673 1273.98,202.173 1279.5,202C 1283.05,199.331 1283.38,196.164 1280.5,192.5C 1281.58,185.085 1283.58,177.919 1286.5,171C 1286.84,169.97 1287.5,169.47 1288.5,169.5 Z"/></g>
<g><path style="opacity:1" fill="#579a59" d="M 1353.5,142.5 C 1354.5,142.5 1355.5,142.5 1356.5,142.5C 1356.5,154.5 1356.5,166.5 1356.5,178.5C 1356.5,179.167 1356.5,179.833 1356.5,180.5C 1349.66,180.039 1342.99,180.872 1336.5,183C 1332.95,185.047 1330.29,187.88 1328.5,191.5C 1328.17,191.5 1327.83,191.5 1327.5,191.5C 1328.31,187.476 1330.31,183.976 1333.5,181C 1340.65,179.414 1347.82,178.248 1355,177.5C 1355.17,171.833 1355.33,166.167 1355.5,160.5C 1355.46,154.259 1354.79,148.259 1353.5,142.5 Z"/></g>
<g><path style="opacity:1" fill="#edfdec" d="M 1356.5,180.5 C 1356.5,181.5 1356.5,182.5 1356.5,183.5C 1348.93,182.363 1341.6,183.363 1334.5,186.5C 1333.05,187.85 1332.38,189.516 1332.5,191.5C 1331.17,191.5 1329.83,191.5 1328.5,191.5C 1330.29,187.88 1332.95,185.047 1336.5,183C 1342.99,180.872 1349.66,180.039 1356.5,180.5 Z"/></g>
<g><path style="opacity:1" fill="#569c56" d="M 1288.5,171.5 C 1288.67,175.846 1288.5,180.179 1288,184.5C 1286.43,191.053 1284.93,197.386 1283.5,203.5C 1283.33,197.824 1283.5,192.157 1284,186.5C 1284.44,181.061 1285.94,176.061 1288.5,171.5 Z"/></g>
<g><path style="opacity:1" fill="#5d9c5e" d="M 959.5,200.5 C 959.5,200.833 959.5,201.167 959.5,201.5C 943.432,199.857 927.432,200.191 911.5,202.5C 919.64,199.749 928.14,198.416 937,198.5C 944.536,198.839 952.036,199.505 959.5,200.5 Z"/></g>
<g><path style="opacity:1" fill="#78786e" d="M 613.5,328.5 C 628.676,328.171 643.676,328.504 658.5,329.5C 642.707,368.982 613.54,389.316 571,390.5C 529.603,389.468 500.269,370.135 483,332.5C 465.746,281.596 479.246,241.096 523.5,211C 563.366,191.172 600.366,195.505 634.5,224C 658.163,247.072 668.163,275.238 664.5,308.5C 616.167,308.5 567.833,308.5 519.5,308.5C 522.028,329.388 533.361,342.888 553.5,349C 572.121,353.289 589.121,349.955 604.5,339C 607.873,335.708 610.873,332.208 613.5,328.5 Z"/></g>
<g><path style="opacity:1" fill="#e5f9e4" d="M 1167.5,201.5 C 1149.73,198.454 1132.06,198.954 1114.5,203C 1110.94,204.232 1107.61,205.732 1104.5,207.5C 1104.17,207.5 1103.83,207.5 1103.5,207.5C 1103.5,206.5 1103.5,205.5 1103.5,204.5C 1107.11,204.201 1110.44,203.035 1113.5,201C 1127.76,198.772 1142.09,198.105 1156.5,199C 1160.63,198.906 1164.3,199.74 1167.5,201.5 Z"/></g>
<g><path style="opacity:1" fill="#edfdee" d="M 959.5,200.5 C 952.036,199.505 944.536,198.839 937,198.5C 928.14,198.416 919.64,199.749 911.5,202.5C 906.982,203.097 902.982,204.764 899.5,207.5C 899.167,207.5 898.833,207.5 898.5,207.5C 899.614,204.225 901.947,202.058 905.5,201C 913.038,200.387 920.205,198.554 927,195.5C 932.406,195.687 937.906,195.853 943.5,196C 947.99,196.887 952.49,197.721 957,198.5C 958.376,198.684 959.209,199.351 959.5,200.5 Z"/></g>
<g><path style="opacity:1" fill="#a7a8a2" d="M 442.5,204.5 C 457.005,203.174 471.672,203.174 486.5,204.5C 486.376,205.107 486.043,205.44 485.5,205.5C 471.343,204.504 457.01,204.171 442.5,204.5 Z"/></g>
<g><path style="opacity:1" fill="#b8e0ba" d="M 1242.5,203.5 C 1242.5,203.833 1242.5,204.167 1242.5,204.5C 1228.83,204.5 1215.17,204.5 1201.5,204.5C 1201.5,210.833 1201.5,217.167 1201.5,223.5C 1201.21,225.933 1200.55,225.933 1199.5,223.5C 1200.69,216.983 1200.69,210.316 1199.5,203.5C 1213.83,203.5 1228.17,203.5 1242.5,203.5 Z"/></g>
<g><path style="opacity:1" fill="#c6f7c6" d="M 1327.5,196.5 C 1327.5,198.833 1327.5,201.167 1327.5,203.5C 1336.68,203.173 1345.68,203.507 1354.5,204.5C 1345.5,204.5 1336.5,204.5 1327.5,204.5C 1326.17,201.833 1326.17,199.167 1327.5,196.5 Z"/></g>
<g><path style="opacity:1" fill="#78786e" d="M 723.5,385.5 C 709.5,385.5 695.5,385.5 681.5,385.5C 681.5,325.167 681.5,264.833 681.5,204.5C 694.5,204.5 707.5,204.5 720.5,204.5C 720.334,211.175 720.5,217.842 721,224.5C 732.456,208.837 747.956,200.837 767.5,200.5C 767.5,214.167 767.5,227.833 767.5,241.5C 742.147,240.706 727.647,252.706 724,277.5C 723.5,313.498 723.333,349.498 723.5,385.5 Z"/></g>
<g><path style="opacity:1" fill="#569d57" d="M 1167.5,201.5 C 1171.95,203.226 1176.29,205.226 1180.5,207.5C 1168.23,204.971 1155.9,202.638 1143.5,200.5C 1139.49,200.668 1135.49,201.001 1131.5,201.5C 1128.58,202.77 1125.58,203.937 1122.5,205C 1116.33,205.379 1110.33,206.213 1104.5,207.5C 1107.61,205.732 1110.94,204.232 1114.5,203C 1132.06,198.954 1149.73,198.454 1167.5,201.5 Z"/></g>
<g><path style="opacity:1" fill="#e9fbe9" d="M 1167.5,201.5 C 1171.22,201.564 1174.89,202.064 1178.5,203C 1180.77,204.426 1182.43,206.259 1183.5,208.5C 1182.61,207.89 1181.61,207.557 1180.5,207.5C 1176.29,205.226 1171.95,203.226 1167.5,201.5 Z"/></g>
<g><path style="opacity:1" fill="#78786f" d="M 442.5,204.5 C 457.01,204.171 471.343,204.504 485.5,205.5C 462.085,265.674 438.085,325.674 413.5,385.5C 402.186,386.499 390.853,386.832 379.5,386.5C 356.83,325.489 334.163,264.489 311.5,203.5C 326.515,203.167 341.515,203.501 356.5,204.5C 370.22,244.272 384.22,283.939 398.5,323.5C 413.193,283.744 427.86,244.078 442.5,204.5 Z"/></g>
<g><path style="opacity:1" fill="#4d9e4f" d="M 959.5,201.5 C 964.534,202.398 969.201,204.065 973.5,206.5C 970.751,206.274 968.084,206.607 965.5,207.5C 962.237,204.894 958.571,203.227 954.5,202.5C 940.069,200.789 925.735,201.289 911.5,204C 912.833,204.333 914.167,204.667 915.5,205C 910.168,205.947 904.834,206.78 899.5,207.5C 902.982,204.764 906.982,203.097 911.5,202.5C 927.432,200.191 943.432,199.857 959.5,201.5 Z"/></g>
<g><path style="opacity:1" fill="#45a247" d="M 973.5,206.5 C 975.435,207.15 977.435,207.483 979.5,207.5C 979.5,207.833 979.5,208.167 979.5,208.5C 979.414,209.496 979.748,210.329 980.5,211C 987.12,213.796 992.786,217.796 997.5,223C 998.448,223.483 999.448,223.649 1000.5,223.5C 1000.14,226.564 1000.98,229.231 1003,231.5C 1004.36,230.62 1005.86,230.286 1007.5,230.5C 1010.86,233.194 1013.86,236.194 1016.5,239.5C 1020.32,244.8 1023.32,250.467 1025.5,256.5C 1027.94,267.063 1030.27,277.396 1032.5,287.5C 1033.49,293.31 1033.82,299.31 1033.5,305.5C 1032.83,305.5 1032.5,305.833 1032.5,306.5C 1031.5,306.5 1030.5,306.5 1029.5,306.5C 982.165,306.333 934.832,306.5 887.5,307C 885.496,309.841 884.996,313.007 886,316.5C 887.579,319.159 888.746,321.992 889.5,325C 890.653,327.209 892.319,328.709 894.5,329.5C 894.5,330.167 894.833,330.5 895.5,330.5C 895.5,330.833 895.5,331.167 895.5,331.5C 895.238,332.978 895.571,334.311 896.5,335.5C 899.053,337.597 901.386,339.93 903.5,342.5C 905.816,344.494 908.482,345.494 911.5,345.5C 911.833,345.5 912.167,345.5 912.5,345.5C 927.995,353.137 943.661,353.47 959.5,346.5C 965.915,344.302 971.248,340.635 975.5,335.5C 975.833,335.5 976.167,335.5 976.5,335.5C 978.43,334.237 980.097,332.57 981.5,330.5C 995.484,329.501 1009.48,329.167 1023.5,329.5C 1023.5,331.5 1023.5,333.5 1023.5,335.5C 1023.67,336.492 1023.34,337.158 1022.5,337.5C 1020.98,337.511 1019.82,338.177 1019,339.5C 1016.23,345.382 1012.73,350.715 1008.5,355.5C 1007.57,356.689 1007.24,358.022 1007.5,359.5C 1005.83,359.5 1004.17,359.5 1002.5,359.5C 1001.17,362.167 999.833,364.833 998.5,367.5C 997.448,367.351 996.448,367.517 995.5,368C 994.667,369.5 993.5,370.667 992,371.5C 991.517,372.448 991.351,373.448 991.5,374.5C 991.5,375.167 991.167,375.5 990.5,375.5C 986.877,376.747 983.211,378.08 979.5,379.5C 978.614,380.325 978.281,381.325 978.5,382.5C 977.609,383.11 976.609,383.443 975.5,383.5C 973.473,383.338 971.473,383.505 969.5,384C 965.852,385.193 962.519,386.693 959.5,388.5C 942.012,389.275 924.679,388.275 907.5,385.5C 906.448,383.744 904.781,383.077 902.5,383.5C 902.703,381.61 902.037,380.11 900.5,379C 897.833,378.667 895.167,378.333 892.5,378C 890.607,375.978 888.273,374.812 885.5,374.5C 884.058,373.18 883.392,371.514 883.5,369.5C 881.071,369.116 878.737,368.449 876.5,367.5C 876.744,363.573 874.91,361.24 871,360.5C 869.991,358.975 869.491,357.308 869.5,355.5C 867.602,354.904 865.935,354.904 864.5,355.5C 863.978,353.781 862.978,352.448 861.5,351.5C 861.66,349.801 861.494,348.134 861,346.5C 858.316,343.131 856.149,339.464 854.5,335.5C 854.132,331.044 852.632,327.044 850,323.5C 849.329,322.748 848.496,322.414 847.5,322.5C 847.5,321.5 847.5,320.5 847.5,319.5C 845.845,311.597 844.845,303.597 844.5,295.5C 845.412,285.793 846.412,276.126 847.5,266.5C 849.102,260.694 851.102,255.027 853.5,249.5C 855.833,246.167 858.167,242.833 860.5,239.5C 861.5,239.5 862.5,239.5 863.5,239.5C 863.5,238.167 863.5,236.833 863.5,235.5C 864.873,235.657 866.207,235.49 867.5,235C 869.662,232.131 872.328,229.965 875.5,228.5C 876.597,230.229 877.763,231.896 879,233.5C 878.515,230.14 877.682,226.806 876.5,223.5C 877.5,223.5 878.5,223.5 879.5,223.5C 879.5,222.167 879.5,220.833 879.5,219.5C 879.5,219.167 879.5,218.833 879.5,218.5C 884.869,215.153 890.203,211.819 895.5,208.5C 896.209,207.596 897.209,207.263 898.5,207.5C 898.833,207.5 899.167,207.5 899.5,207.5C 904.834,206.78 910.168,205.947 915.5,205C 914.167,204.667 912.833,204.333 911.5,204C 925.735,201.289 940.069,200.789 954.5,202.5C 958.571,203.227 962.237,204.894 965.5,207.5C 968.084,206.607 970.751,206.274 973.5,206.5 Z"/></g>
<g><path style="opacity:1" fill="#45a247" d="M 1180.5,207.5 C 1181.61,207.557 1182.61,207.89 1183.5,208.5C 1189.44,212.767 1194.77,217.767 1199.5,223.5C 1200.55,225.933 1201.21,225.933 1201.5,223.5C 1202.17,218.319 1202.83,212.985 1203.5,207.5C 1204.31,207.192 1204.97,206.692 1205.5,206C 1211.33,205.833 1217.17,205.667 1223,205.5C 1229.24,205.524 1235.24,206.19 1241,207.5C 1241.5,266.166 1241.67,324.832 1241.5,383.5C 1235.7,384.83 1229.54,385.496 1223,385.5C 1216.83,385.333 1210.67,385.167 1204.5,385C 1202.88,378.418 1201.88,371.585 1201.5,364.5C 1200.57,365.357 1199.91,366.357 1199.5,367.5C 1198.17,367.5 1196.83,367.5 1195.5,367.5C 1195.22,371.226 1193.22,373.392 1189.5,374C 1186.79,376.507 1184.79,379.34 1183.5,382.5C 1182.83,382.833 1182.17,383.167 1181.5,383.5C 1180.83,383.5 1180.17,383.5 1179.5,383.5C 1174.96,383.413 1170.96,384.747 1167.5,387.5C 1165.74,388.461 1163.74,388.795 1161.5,388.5C 1148.15,388.666 1134.82,388.333 1121.5,387.5C 1120.51,387.672 1119.84,387.338 1119.5,386.5C 1117.04,385.109 1114.37,383.942 1111.5,383C 1109.48,379.127 1106.48,377.627 1102.5,378.5C 1099.2,376.366 1096.03,374.032 1093,371.5C 1091.23,370.767 1089.4,370.433 1087.5,370.5C 1087.5,369.5 1087.5,368.5 1087.5,367.5C 1086.17,367.5 1084.83,367.5 1083.5,367.5C 1082.51,367.672 1081.84,367.338 1081.5,366.5C 1080.81,364.022 1079.31,362.022 1077,360.5C 1077.03,356.695 1075.19,354.695 1071.5,354.5C 1071.5,353.5 1071.5,352.5 1071.5,351.5C 1070.5,351.5 1069.5,351.5 1068.5,351.5C 1068.66,350.127 1068.49,348.793 1068,347.5C 1065.89,345.623 1064.56,343.29 1064,340.5C 1062.99,339.663 1061.82,339.33 1060.5,339.5C 1058.83,335.495 1057.17,331.495 1055.5,327.5C 1055.5,326.833 1055.5,326.167 1055.5,325.5C 1052.83,304.859 1052.83,284.192 1055.5,263.5C 1055.5,263.167 1055.5,262.833 1055.5,262.5C 1056.82,262.67 1057.99,262.337 1059,261.5C 1060.02,256.414 1062.19,251.914 1065.5,248C 1066.69,245.276 1067.35,242.443 1067.5,239.5C 1072.05,236.466 1076.21,232.799 1080,228.5C 1081.01,226.975 1081.51,225.308 1081.5,223.5C 1082.68,223.719 1083.68,223.386 1084.5,222.5C 1086.3,221.305 1087.3,219.638 1087.5,217.5C 1092.49,213.669 1097.82,210.336 1103.5,207.5C 1103.83,207.5 1104.17,207.5 1104.5,207.5C 1110.33,206.213 1116.33,205.379 1122.5,205C 1125.58,203.937 1128.58,202.77 1131.5,201.5C 1135.49,201.001 1139.49,200.668 1143.5,200.5C 1155.9,202.638 1168.23,204.971 1180.5,207.5 Z"/></g>
<g><path style="opacity:1" fill="#a3a49f" d="M 720.5,204.5 C 707.5,204.5 694.5,204.5 681.5,204.5C 681.5,264.833 681.5,325.167 681.5,385.5C 695.5,385.5 709.5,385.5 723.5,385.5C 709.343,386.496 695.01,386.829 680.5,386.5C 680.5,325.5 680.5,264.5 680.5,203.5C 694.01,203.171 707.344,203.504 720.5,204.5 Z"/></g>
<g><path style="opacity:1" fill="#549554" d="M 1242.5,204.5 C 1242.5,264.167 1242.5,323.833 1242.5,383.5C 1242.17,383.5 1241.83,383.5 1241.5,383.5C 1241.67,324.832 1241.5,266.166 1241,207.5C 1235.24,206.19 1229.24,205.524 1223,205.5C 1217.17,205.667 1211.33,205.833 1205.5,206C 1204.97,206.692 1204.31,207.192 1203.5,207.5C 1202.83,212.985 1202.17,218.319 1201.5,223.5C 1201.5,217.167 1201.5,210.833 1201.5,204.5C 1215.17,204.5 1228.83,204.5 1242.5,204.5 Z"/></g>
<g><path style="opacity:1" fill="#e1fbe0" d="M 1242.5,203.5 C 1244.17,263.395 1245.17,323.562 1245.5,384C 1244.92,385.417 1243.92,386.25 1242.5,386.5C 1242.5,385.5 1242.5,384.5 1242.5,383.5C 1242.5,323.833 1242.5,264.167 1242.5,204.5C 1242.5,204.167 1242.5,203.833 1242.5,203.5 Z"/></g>
<g><path style="opacity:1" fill="#f1ffef" d="M 1262.5,207.5 C 1262.5,218.167 1262.5,228.833 1262.5,239.5C 1261.17,234.376 1260.5,228.876 1260.5,223C 1260.67,217.5 1260.83,212 1261,206.5C 1261.38,207.056 1261.88,207.389 1262.5,207.5 Z"/></g>
<g><path style="opacity:1" fill="#88aa88" d="M 1263.5,203.5 C 1270.17,203.5 1276.83,203.5 1283.5,203.5C 1277.02,204.491 1270.35,204.824 1263.5,204.5C 1263.5,216.833 1263.5,229.167 1263.5,241.5C 1262.66,241.158 1262.33,240.492 1262.5,239.5C 1262.5,228.833 1262.5,218.167 1262.5,207.5C 1262.23,205.901 1262.57,204.568 1263.5,203.5 Z"/></g>
<g><path style="opacity:1" fill="#619f63" d="M 1327.5,204.5 C 1336.5,204.5 1345.5,204.5 1354.5,204.5C 1356.48,216.455 1357.15,228.788 1356.5,241.5C 1346.5,241.5 1336.5,241.5 1326.5,241.5C 1326.37,240.761 1326.54,240.094 1327,239.5C 1336.08,240.485 1345.25,240.818 1354.5,240.5C 1354.83,229.48 1354.5,218.48 1353.5,207.5C 1352.69,207.192 1352.03,206.692 1351.5,206C 1343.32,205.829 1335.32,205.329 1327.5,204.5 Z"/></g>
<g><path style="opacity:1" fill="#e9f9e4" d="M 895.5,208.5 C 890.203,211.819 884.869,215.153 879.5,218.5C 883.187,212.65 888.521,209.317 895.5,208.5 Z"/></g>
<g><path style="opacity:1" fill="#ebfceb" d="M 979.5,208.5 C 979.5,208.167 979.5,207.833 979.5,207.5C 982.407,207.575 985.073,208.409 987.5,210C 992.181,213.022 996.848,216.022 1001.5,219C 1001.97,220.299 1001.97,221.799 1001.5,223.5C 1001.17,223.5 1000.83,223.5 1000.5,223.5C 994.418,217.285 987.418,212.285 979.5,208.5 Z"/></g>
<g><path style="opacity:1" fill="#5b995f" d="M 979.5,208.5 C 987.418,212.285 994.418,217.285 1000.5,223.5C 999.448,223.649 998.448,223.483 997.5,223C 992.786,217.796 987.12,213.796 980.5,211C 979.748,210.329 979.414,209.496 979.5,208.5 Z"/></g>
<g><path style="opacity:1" fill="#549d55" d="M 1000.5,223.5 C 1000.83,223.5 1001.17,223.5 1001.5,223.5C 1001.83,223.5 1002.17,223.5 1002.5,223.5C 1004.58,225.573 1006.25,227.907 1007.5,230.5C 1005.86,230.286 1004.36,230.62 1003,231.5C 1000.98,229.231 1000.14,226.564 1000.5,223.5 Z"/></g>
<g><path style="opacity:1" fill="#509d52" d="M 879.5,219.5 C 879.5,220.833 879.5,222.167 879.5,223.5C 878.5,223.5 877.5,223.5 876.5,223.5C 877.682,226.806 878.515,230.14 879,233.5C 877.763,231.896 876.597,230.229 875.5,228.5C 872.328,229.965 869.662,232.131 867.5,235C 866.207,235.49 864.873,235.657 863.5,235.5C 866.833,231.5 870.167,227.5 873.5,223.5C 875.754,222.585 877.754,221.252 879.5,219.5 Z"/></g>
<g><path style="opacity:1" fill="#579d57" d="M 1087.5,217.5 C 1087.3,219.638 1086.3,221.305 1084.5,222.5C 1083.68,223.386 1082.68,223.719 1081.5,223.5C 1081.51,225.308 1081.01,226.975 1080,228.5C 1076.21,232.799 1072.05,236.466 1067.5,239.5C 1071.09,233.902 1075.09,228.569 1079.5,223.5C 1082.45,221.885 1085.12,219.885 1087.5,217.5 Z"/></g>
<g><path style="opacity:1" fill="#e9fce8" d="M 1002.5,223.5 C 1005.29,225.279 1008.29,226.612 1011.5,227.5C 1011.46,230.81 1012.79,233.476 1015.5,235.5C 1016.25,236.736 1016.58,238.07 1016.5,239.5C 1013.86,236.194 1010.86,233.194 1007.5,230.5C 1006.25,227.907 1004.58,225.573 1002.5,223.5 Z"/></g>
<g><path style="opacity:1" fill="#effce9" d="M 1079.5,223.5 C 1075.09,228.569 1071.09,233.902 1067.5,239.5C 1066.17,240.833 1064.83,242.167 1063.5,243.5C 1062.75,236.978 1065.41,232.978 1071.5,231.5C 1072.54,227.128 1075.21,224.461 1079.5,223.5 Z"/></g>
<g><path style="opacity:1" fill="#ebfbeb" d="M 873.5,223.5 C 870.167,227.5 866.833,231.5 863.5,235.5C 862.026,236.436 861.026,237.77 860.5,239.5C 858.167,242.833 855.833,246.167 853.5,249.5C 855.794,244.32 857.961,238.987 860,233.5C 861.011,232.663 862.178,232.33 863.5,232.5C 863.33,231.178 863.663,230.011 864.5,229C 866.493,227.379 868.493,225.713 870.5,224C 871.448,223.517 872.448,223.351 873.5,223.5 Z"/></g>
<g><path style="opacity:1" fill="#579b54" d="M 951.5,238.5 C 943.517,237.834 935.517,237.501 927.5,237.5C 933.443,236.353 940.776,236.186 949.5,237C 950.416,237.278 951.082,237.778 951.5,238.5 Z"/></g>
<g><path style="opacity:1" fill="#fdfdfd" d="M 561.5,237.5 C 580.416,235.748 596.583,241.414 610,254.5C 614.516,260.532 617.683,267.198 619.5,274.5C 586.833,274.5 554.167,274.5 521.5,274.5C 527.791,254.542 541.124,242.209 561.5,237.5 Z"/></g>
<g><path style="opacity:1" fill="#6d946b" d="M 863.5,235.5 C 863.5,236.833 863.5,238.167 863.5,239.5C 862.5,239.5 861.5,239.5 860.5,239.5C 861.026,237.77 862.026,236.436 863.5,235.5 Z"/></g>
<g><path style="opacity:1" fill="#fcfefd" d="M 927.5,237.5 C 935.517,237.501 943.517,237.834 951.5,238.5C 952.209,239.404 953.209,239.737 954.5,239.5C 955.93,240.537 957.597,241.204 959.5,241.5C 967.148,244.825 973.482,249.825 978.5,256.5C 978.34,258.199 978.506,259.866 979,261.5C 982.259,264.653 983.759,268.32 983.5,272.5C 953.507,273.5 923.507,273.833 893.5,273.5C 893.433,268.964 894.099,264.631 895.5,260.5C 895.5,260.167 895.5,259.833 895.5,259.5C 896.974,258.564 897.974,257.23 898.5,255.5C 902.565,251.428 906.898,247.762 911.5,244.5C 914.899,242.801 918.232,241.134 921.5,239.5C 924.082,239.975 926.082,239.308 927.5,237.5 Z"/></g>
<g><path style="opacity:1" fill="#7d9a7b" d="M 954.5,239.5 C 956.781,239.077 958.448,239.744 959.5,241.5C 957.597,241.204 955.93,240.537 954.5,239.5 Z"/></g>
<g><path style="opacity:1" fill="#5e985c" d="M 921.5,239.5 C 918.232,241.134 914.899,242.801 911.5,244.5C 913.656,240.765 916.99,239.098 921.5,239.5 Z"/></g>
<g><path style="opacity:1" fill="#569657" d="M 1135.5,241.5 C 1130.23,243.797 1124.9,246.131 1119.5,248.5C 1121.67,246.055 1124.34,244.055 1127.5,242.5C 1130.09,241.52 1132.75,241.187 1135.5,241.5 Z"/></g>
<g><path style="opacity:1" fill="#fdfefd" d="M 1135.5,241.5 C 1154.46,239.261 1170.46,244.927 1183.5,258.5C 1186.76,262.696 1189.76,267.03 1192.5,271.5C 1199.49,287.68 1199.15,303.68 1191.5,319.5C 1189.98,319.511 1188.82,320.177 1188,321.5C 1186.58,323.739 1185.42,326.072 1184.5,328.5C 1184.17,329.167 1183.83,329.833 1183.5,330.5C 1181.8,330.34 1180.13,330.506 1178.5,331C 1175.15,335.27 1171.48,339.104 1167.5,342.5C 1156.35,345.192 1145.01,346.025 1133.5,345C 1126.91,341.558 1120.25,338.391 1113.5,335.5C 1110.17,332.5 1106.83,329.5 1103.5,326.5C 1100.38,320.819 1098.05,314.819 1096.5,308.5C 1096.33,300.16 1096.5,291.827 1097,283.5C 1098.25,281.999 1099.25,280.332 1100,278.5C 1101.01,273.715 1102.17,269.049 1103.5,264.5C 1103.5,264.167 1103.5,263.833 1103.5,263.5C 1105.82,260.874 1108.16,258.207 1110.5,255.5C 1113.81,253.518 1116.81,251.185 1119.5,248.5C 1124.9,246.131 1130.23,243.797 1135.5,241.5 Z"/></g>
<g><path style="opacity:1" fill="#539d54" d="M 1067.5,239.5 C 1067.35,242.443 1066.69,245.276 1065.5,248C 1062.19,251.914 1060.02,256.414 1059,261.5C 1057.99,262.337 1056.82,262.67 1055.5,262.5C 1057.78,255.986 1060.45,249.653 1063.5,243.5C 1064.83,242.167 1066.17,240.833 1067.5,239.5 Z"/></g>
<g><path style="opacity:1" fill="#5ba05b" d="M 911.5,244.5 C 906.898,247.762 902.565,251.428 898.5,255.5C 899.86,248.32 904.194,244.653 911.5,244.5 Z"/></g>
<g><path style="opacity:1" fill="#5d9e60" d="M 1119.5,248.5 C 1116.81,251.185 1113.81,253.518 1110.5,255.5C 1111.42,250.585 1114.42,248.252 1119.5,248.5 Z"/></g>
<g><path style="opacity:1" fill="#579b57" d="M 1135.5,241.5 C 1143.66,240.343 1151.99,240.177 1160.5,241C 1167.94,244.785 1175.1,248.952 1182,253.5C 1183.01,255.025 1183.51,256.692 1183.5,258.5C 1170.46,244.927 1154.46,239.261 1135.5,241.5 Z"/></g>
<g><path style="opacity:1" fill="#6c9a6e" d="M 898.5,255.5 C 897.974,257.23 896.974,258.564 895.5,259.5C 895.5,258.167 895.5,256.833 895.5,255.5C 896.5,255.5 897.5,255.5 898.5,255.5 Z"/></g>
<g><path style="opacity:1" fill="#e8feeb" d="M 1263.5,241.5 C 1270.69,241.175 1277.69,241.509 1284.5,242.5C 1284.5,242.833 1284.5,243.167 1284.5,243.5C 1284.5,291.167 1284.5,338.833 1284.5,386.5C 1282.67,342.178 1281.84,297.511 1282,252.5C 1281.31,251.975 1280.81,251.308 1280.5,250.5C 1283.44,247.457 1283.11,244.957 1279.5,243C 1273.98,242.827 1268.65,242.327 1263.5,241.5 Z"/></g>
<g><path style="opacity:1" fill="#5e9a62" d="M 1284.5,243.5 C 1285.17,290.167 1285.83,336.833 1286.5,383.5C 1299.12,385.481 1312.12,386.148 1325.5,385.5C 1325.5,385.833 1325.5,386.167 1325.5,386.5C 1311.83,386.5 1298.17,386.5 1284.5,386.5C 1284.5,338.833 1284.5,291.167 1284.5,243.5 Z"/></g>
<g><path style="opacity:1" fill="#4c994f" d="M 1284.5,243.5 C 1284.5,243.167 1284.5,242.833 1284.5,242.5C 1285.5,242.414 1286.33,242.748 1287,243.5C 1286.52,290.124 1286.35,336.791 1286.5,383.5C 1285.83,336.833 1285.17,290.167 1284.5,243.5 Z"/></g>
<g><path style="opacity:1" fill="#43a441" d="M 1318.5,241.5 C 1318.5,245.167 1318.5,248.833 1318.5,252.5C 1318.83,296.172 1318.5,339.838 1317.5,383.5C 1316.17,335.5 1316.17,287.5 1317.5,239.5C 1318.3,239.957 1318.63,240.624 1318.5,241.5 Z"/></g>
<g><path style="opacity:1" fill="#4b9d50" d="M 1322.5,383.5 C 1324.5,337.179 1325.16,290.512 1324.5,243.5C 1324.83,243.5 1325.17,243.5 1325.5,243.5C 1325.5,290.833 1325.5,338.167 1325.5,385.5C 1312.12,386.148 1299.12,385.481 1286.5,383.5C 1297.79,384.623 1309.12,384.79 1320.5,384C 1319.84,340.069 1319.17,296.236 1318.5,252.5C 1318.5,248.833 1318.5,245.167 1318.5,241.5C 1319.15,240.909 1319.82,240.243 1320.5,239.5C 1321.17,287.665 1321.83,335.665 1322.5,383.5 Z"/></g>
<g><path style="opacity:1" fill="#40a83b" d="M 1324.5,243.5 C 1325.16,290.512 1324.5,337.179 1322.5,383.5C 1322.17,335.495 1322.5,287.495 1323.5,239.5C 1324.43,240.689 1324.76,242.022 1324.5,243.5 Z"/></g>
<g><path style="opacity:1" fill="#edfef0" d="M 1326.5,241.5 C 1336.5,241.5 1346.5,241.5 1356.5,241.5C 1346.68,242.494 1336.68,242.827 1326.5,242.5C 1326.17,290.03 1326.51,337.53 1327.5,385C 1327.16,386.03 1326.5,386.53 1325.5,386.5C 1325.5,386.167 1325.5,385.833 1325.5,385.5C 1325.5,338.167 1325.5,290.833 1325.5,243.5C 1325.33,242.508 1325.66,241.842 1326.5,241.5 Z"/></g>
<g><path style="opacity:1" fill="#619a5f" d="M 1110.5,255.5 C 1108.16,258.207 1105.82,260.874 1103.5,263.5C 1104.4,259.598 1106.73,256.931 1110.5,255.5 Z"/></g>
<g><path style="opacity:1" fill="#5c9b63" d="M 1183.5,258.5 C 1188.71,261.249 1191.71,265.582 1192.5,271.5C 1189.76,267.03 1186.76,262.696 1183.5,258.5 Z"/></g>
<g><path style="opacity:1" fill="#5a9959" d="M 894.5,260.5 C 892.63,264.126 890.963,267.792 889.5,271.5C 888.997,266.719 890.663,263.052 894.5,260.5 Z"/></g>
<g><path style="opacity:1" fill="#e8fbe8" d="M 1055.5,262.5 C 1055.5,262.833 1055.5,263.167 1055.5,263.5C 1053.9,267.239 1052.9,271.239 1052.5,275.5C 1051.83,277.833 1051.17,280.167 1050.5,282.5C 1050.24,276.518 1050.91,270.685 1052.5,265C 1052.17,264.667 1051.83,264.333 1051.5,264C 1052.74,263.209 1054.08,262.709 1055.5,262.5 Z"/></g>
<g><path style="opacity:1" fill="#579e5a" d="M 1103.5,263.5 C 1103.5,263.833 1103.5,264.167 1103.5,264.5C 1098.72,271.514 1095.72,279.18 1094.5,287.5C 1094.34,284.482 1094.5,281.482 1095,278.5C 1096.69,274.282 1098.02,269.949 1099,265.5C 1100.11,263.963 1101.61,263.297 1103.5,263.5 Z"/></g>
<g><path style="opacity:1" fill="#ecfdeb" d="M 978.5,256.5 C 983.067,261.635 986.067,267.635 987.5,274.5C 954.833,274.5 922.167,274.5 889.5,274.5C 889.5,273.5 889.5,272.5 889.5,271.5C 890.963,267.792 892.63,264.126 894.5,260.5C 894.833,260.5 895.167,260.5 895.5,260.5C 894.099,264.631 893.433,268.964 893.5,273.5C 923.507,273.833 953.507,273.5 983.5,272.5C 983.759,268.32 982.259,264.653 979,261.5C 978.506,259.866 978.34,258.199 978.5,256.5 Z"/></g>
<g><path style="opacity:1" fill="#5c9e5c" d="M 959.5,241.5 C 962.518,241.335 965.518,241.502 968.5,242C 970.807,246.483 974.307,249.649 979,251.5C 981.573,257.403 984.573,263.069 988,268.5C 989.398,270.814 989.565,273.147 988.5,275.5C 955.838,276.667 923.172,276.833 890.5,276C 886.175,274.355 885.842,272.855 889.5,271.5C 889.5,272.5 889.5,273.5 889.5,274.5C 922.167,274.5 954.833,274.5 987.5,274.5C 986.067,267.635 983.067,261.635 978.5,256.5C 973.482,249.825 967.148,244.825 959.5,241.5 Z"/></g>
<g><path style="opacity:1" fill="#42a540" d="M 895.5,277.5 C 923.502,277.333 951.502,277.5 979.5,278C 983.44,279.936 983.107,281.103 978.5,281.5C 950.852,280.525 923.185,280.192 895.5,280.5C 895.5,279.5 895.5,278.5 895.5,277.5 Z"/></g>
<g><path style="opacity:1" fill="#eefdea" d="M 1103.5,264.5 C 1102.17,269.049 1101.01,273.715 1100,278.5C 1099.25,280.332 1098.25,281.999 1097,283.5C 1096.5,291.827 1096.33,300.16 1096.5,308.5C 1095.83,306.833 1095.17,305.167 1094.5,303.5C 1094.5,298.167 1094.5,292.833 1094.5,287.5C 1095.72,279.18 1098.72,271.514 1103.5,264.5 Z"/></g>
<g><path style="opacity:1" fill="#5e9c5c" d="M 1025.5,256.5 C 1029.98,266.224 1032.31,276.557 1032.5,287.5C 1030.27,277.396 1027.94,267.063 1025.5,256.5 Z"/></g>
<g><path style="opacity:1" fill="#509d50" d="M 1055.5,263.5 C 1052.83,284.192 1052.83,304.859 1055.5,325.5C 1053.9,321.761 1052.9,317.761 1052.5,313.5C 1051.23,300.83 1051.23,288.164 1052.5,275.5C 1052.9,271.239 1053.9,267.239 1055.5,263.5 Z"/></g>
<g><path style="opacity:1" fill="#579d5a" d="M 1094.5,287.5 C 1094.5,292.833 1094.5,298.167 1094.5,303.5C 1093.19,301.257 1092.52,298.59 1092.5,295.5C 1092.52,292.41 1093.19,289.743 1094.5,287.5 Z"/></g>
<g><path style="opacity:1" fill="#4fa157" d="M 1029.5,306.5 C 982.5,307.167 935.5,307.833 888.5,308.5C 887.167,310.167 887.167,311.833 888.5,313.5C 889.525,319.248 891.525,324.581 894.5,329.5C 892.319,328.709 890.653,327.209 889.5,325C 888.746,321.992 887.579,319.159 886,316.5C 884.996,313.007 885.496,309.841 887.5,307C 934.832,306.5 982.165,306.333 1029.5,306.5 Z"/></g>
<g><path style="opacity:1" fill="#50955a" d="M 1029.5,306.5 C 1030.5,306.5 1031.5,306.5 1032.5,306.5C 984.845,308.495 936.845,309.162 888.5,308.5C 935.5,307.833 982.5,307.167 1029.5,306.5 Z"/></g>
<g><path style="opacity:1" fill="#679c66" d="M 1052.5,275.5 C 1051.23,288.164 1051.23,300.83 1052.5,313.5C 1050.75,305.067 1050.09,296.4 1050.5,287.5C 1050.5,285.833 1050.5,284.167 1050.5,282.5C 1051.17,280.167 1051.83,277.833 1052.5,275.5 Z"/></g>
<g><path style="opacity:1" fill="#c1efc5" d="M 1033.5,305.5 C 1033.5,306.833 1033.5,308.167 1033.5,309.5C 985.167,309.5 936.833,309.5 888.5,309.5C 888.5,310.833 888.5,312.167 888.5,313.5C 887.167,311.833 887.167,310.167 888.5,308.5C 936.845,309.162 984.845,308.495 1032.5,306.5C 1032.5,305.833 1032.83,305.5 1033.5,305.5 Z"/></g>
<g><path style="opacity:1" fill="#f1feef" d="M 1016.5,239.5 C 1018.02,239.511 1019.18,240.177 1020,241.5C 1022.33,246.674 1025.49,251.174 1029.5,255C 1028.15,257.794 1028.65,260.294 1031,262.5C 1033.32,276.425 1035.15,290.258 1036.5,304C 1035.83,306.333 1035.17,308.667 1034.5,311C 987.515,310.39 940.515,310.39 893.5,311C 892.09,311.368 891.09,312.201 890.5,313.5C 892.062,319.219 893.728,324.886 895.5,330.5C 894.833,330.5 894.5,330.167 894.5,329.5C 891.525,324.581 889.525,319.248 888.5,313.5C 888.5,312.167 888.5,310.833 888.5,309.5C 936.833,309.5 985.167,309.5 1033.5,309.5C 1033.5,308.167 1033.5,306.833 1033.5,305.5C 1033.82,299.31 1033.49,293.31 1032.5,287.5C 1032.31,276.557 1029.98,266.224 1025.5,256.5C 1023.32,250.467 1020.32,244.8 1016.5,239.5 Z"/></g>
<g><path style="opacity:1" fill="#589d5a" d="M 847.5,266.5 C 846.412,276.126 845.412,285.793 844.5,295.5C 844.845,303.597 845.845,311.597 847.5,319.5C 845.836,318.051 845.002,316.051 845,313.5C 843.508,302.206 843.174,290.872 844,279.5C 844.614,274.89 845.78,270.557 847.5,266.5 Z"/></g>
<g><path style="opacity:1" fill="#e7fce6" d="M 1050.5,287.5 C 1050.09,296.4 1050.75,305.067 1052.5,313.5C 1052.9,317.761 1053.9,321.761 1055.5,325.5C 1055.5,326.167 1055.5,326.833 1055.5,327.5C 1053.29,326.104 1051.79,324.104 1051,321.5C 1049.43,310.024 1049.27,298.69 1050.5,287.5 Z"/></g>
<g><path style="opacity:1" fill="#589d5b" d="M 1094.5,303.5 C 1095.17,305.167 1095.83,306.833 1096.5,308.5C 1098.05,314.819 1100.38,320.819 1103.5,326.5C 1101.36,325.63 1099.53,324.297 1098,322.5C 1097.95,319.139 1096.95,316.139 1095,313.5C 1094.5,310.183 1094.33,306.85 1094.5,303.5 Z"/></g>
<g><path style="opacity:1" fill="#dff8dd" d="M 1191.5,319.5 C 1189.88,323.082 1187.55,326.082 1184.5,328.5C 1185.42,326.072 1186.58,323.739 1188,321.5C 1188.82,320.177 1189.98,319.511 1191.5,319.5 Z"/></g>
<g><path style="opacity:1" fill="#eefeee" d="M 1026.5,327.5 C 1011.32,327.171 996.324,327.504 981.5,328.5C 979.453,330.55 977.786,332.883 976.5,335.5C 976.167,335.5 975.833,335.5 975.5,335.5C 975.343,334.127 975.51,332.793 976,331.5C 977.697,330.636 978.863,329.303 979.5,327.5C 994.533,326.818 1009.53,326.151 1024.5,325.5C 1025.52,325.855 1026.19,326.522 1026.5,327.5 Z"/></g>
<g><path style="opacity:1" fill="#c5c4bf" d="M 613.5,328.5 C 628.672,327.174 644.005,327.174 659.5,328.5C 659.376,329.107 659.043,329.44 658.5,329.5C 643.676,328.504 628.676,328.171 613.5,328.5 Z"/></g>
<g><path style="opacity:1" fill="#abdbac" d="M 981.5,328.5 C 996.324,327.504 1011.32,327.171 1026.5,327.5C 1027.83,328.167 1027.83,328.833 1026.5,329.5C 1011.68,328.504 996.676,328.171 981.5,328.5 Z"/></g>
<g><path style="opacity:1" fill="#579a59" d="M 981.5,328.5 C 996.676,328.171 1011.68,328.504 1026.5,329.5C 1025.49,331.574 1024.49,333.574 1023.5,335.5C 1023.5,333.5 1023.5,331.5 1023.5,329.5C 1009.48,329.167 995.484,329.501 981.5,330.5C 980.097,332.57 978.43,334.237 976.5,335.5C 977.786,332.883 979.453,330.55 981.5,328.5 Z"/></g>
<g><path style="opacity:1" fill="#e9fde8" d="M 1183.5,330.5 C 1183.5,330.833 1183.5,331.167 1183.5,331.5C 1178.76,335.585 1173.76,339.251 1168.5,342.5C 1168.17,342.5 1167.83,342.5 1167.5,342.5C 1171.48,339.104 1175.15,335.27 1178.5,331C 1180.13,330.506 1181.8,330.34 1183.5,330.5 Z"/></g>
<g><path style="opacity:1" fill="#569e5a" d="M 847.5,322.5 C 848.496,322.414 849.329,322.748 850,323.5C 852.632,327.044 854.132,331.044 854.5,335.5C 856.149,339.464 858.316,343.131 861,346.5C 861.494,348.134 861.66,349.801 861.5,351.5C 860.728,350.306 859.728,349.306 858.5,348.5C 856.229,342.917 853.563,337.583 850.5,332.5C 849.5,329.167 848.5,325.833 847.5,322.5 Z"/></g>
<g><path style="opacity:1" fill="#589d5b" d="M 1183.5,331.5 C 1183.5,332.833 1183.5,334.167 1183.5,335.5C 1182.17,335.5 1180.83,335.5 1179.5,335.5C 1179.71,337.144 1179.38,338.644 1178.5,340C 1175.17,340.753 1172,341.919 1169,343.5C 1168.6,343.272 1168.43,342.938 1168.5,342.5C 1173.76,339.251 1178.76,335.585 1183.5,331.5 Z"/></g>
<g><path style="opacity:1" fill="#5e9c5e" d="M 1060.5,339.5 C 1061.82,339.33 1062.99,339.663 1064,340.5C 1064.56,343.29 1065.89,345.623 1068,347.5C 1068.49,348.793 1068.66,350.127 1068.5,351.5C 1067.83,351.167 1067.17,350.833 1066.5,350.5C 1064.77,346.7 1062.77,343.034 1060.5,339.5 Z"/></g>
<g><path style="opacity:1" fill="#5c9a5b" d="M 895.5,331.5 C 899.92,337.256 905.253,341.922 911.5,345.5C 908.482,345.494 905.816,344.494 903.5,342.5C 901.386,339.93 899.053,337.597 896.5,335.5C 895.571,334.311 895.238,332.978 895.5,331.5 Z"/></g>
<g><path style="opacity:1" fill="#e6fce6" d="M 975.5,335.5 C 971.248,340.635 965.915,344.302 959.5,346.5C 959.414,345.504 959.748,344.671 960.5,344C 965.437,340.873 970.437,338.039 975.5,335.5 Z"/></g>
<g><path style="opacity:1" fill="#e7fae5" d="M 850.5,332.5 C 853.563,337.583 856.229,342.917 858.5,348.5C 853.249,344.667 850.583,339.333 850.5,332.5 Z"/></g>
<g><path style="opacity:1" fill="#ebfae8" d="M 1113.5,335.5 C 1120.25,338.391 1126.91,341.558 1133.5,345C 1145.01,346.025 1156.35,345.192 1167.5,342.5C 1165.75,343.87 1163.75,344.87 1161.5,345.5C 1150.85,348.086 1140.19,348.086 1129.5,345.5C 1123.53,343.181 1118.19,339.847 1113.5,335.5 Z"/></g>
<g><path style="opacity:1" fill="#509a5c" d="M 1129.5,345.5 C 1140.19,348.086 1150.85,348.086 1161.5,345.5C 1160.65,346.966 1159.32,347.8 1157.5,348C 1150.17,348.667 1142.83,348.667 1135.5,348C 1133.15,347.76 1131.15,346.927 1129.5,345.5 Z"/></g>
<g><path style="opacity:1" fill="#ddefda" d="M 912.5,345.5 C 928.137,348.791 943.804,349.125 959.5,346.5C 943.661,353.47 927.995,353.137 912.5,345.5 Z"/></g>
<g><path style="opacity:1" fill="#e9fce9" d="M 1066.5,350.5 C 1067.17,350.833 1067.83,351.167 1068.5,351.5C 1072.49,356.821 1076.82,361.821 1081.5,366.5C 1081.84,367.338 1082.51,367.672 1083.5,367.5C 1084.96,369.463 1086.63,371.296 1088.5,373C 1093.34,375.697 1098,378.53 1102.5,381.5C 1101.13,381.657 1099.79,381.49 1098.5,381C 1093.9,377.485 1088.9,374.818 1083.5,373C 1080.07,368.566 1076.24,364.399 1072,360.5C 1071.52,359.552 1071.35,358.552 1071.5,357.5C 1066.63,357.424 1064.96,355.091 1066.5,350.5 Z"/></g>
<g><path style="opacity:1" fill="#559955" d="M 876.5,367.5 C 872.167,363.833 868.167,359.833 864.5,355.5C 865.935,354.904 867.602,354.904 869.5,355.5C 869.491,357.308 869.991,358.975 871,360.5C 874.91,361.24 876.744,363.573 876.5,367.5 Z"/></g>
<g><path style="opacity:1" fill="#5d9c5f" d="M 1068.5,351.5 C 1069.5,351.5 1070.5,351.5 1071.5,351.5C 1071.5,352.5 1071.5,353.5 1071.5,354.5C 1075.19,354.695 1077.03,356.695 1077,360.5C 1079.31,362.022 1080.81,364.022 1081.5,366.5C 1076.82,361.821 1072.49,356.821 1068.5,351.5 Z"/></g>
<g><path style="opacity:1" fill="#ecfaea" d="M 858.5,348.5 C 859.728,349.306 860.728,350.306 861.5,351.5C 862.978,352.448 863.978,353.781 864.5,355.5C 868.167,359.833 872.167,363.833 876.5,367.5C 878.949,370.556 881.949,372.889 885.5,374.5C 885.5,374.833 885.5,375.167 885.5,375.5C 883.45,377.237 881.617,379.237 880,381.5C 879.46,378.581 879.793,375.914 881,373.5C 876.09,373.462 872.924,370.796 871.5,365.5C 866.878,362.047 862.712,358.047 859,353.5C 858.506,351.866 858.34,350.199 858.5,348.5 Z"/></g>
<g><path style="opacity:1" fill="#549c54" d="M 1022.5,337.5 C 1015.69,352.777 1005.36,365.111 991.5,374.5C 991.351,373.448 991.517,372.448 992,371.5C 993.5,370.667 994.667,369.5 995.5,368C 996.448,367.517 997.448,367.351 998.5,367.5C 999.833,364.833 1001.17,362.167 1002.5,359.5C 1004.17,359.5 1005.83,359.5 1007.5,359.5C 1007.24,358.022 1007.57,356.689 1008.5,355.5C 1012.73,350.715 1016.23,345.382 1019,339.5C 1019.82,338.177 1020.98,337.511 1022.5,337.5 Z"/></g>
<g><path style="opacity:1" fill="#5e9a5a" d="M 876.5,367.5 C 878.737,368.449 881.071,369.116 883.5,369.5C 883.392,371.514 884.058,373.18 885.5,374.5C 881.949,372.889 878.949,370.556 876.5,367.5 Z"/></g>
<g><path style="opacity:1" fill="#539e54" d="M 1083.5,367.5 C 1084.83,367.5 1086.17,367.5 1087.5,367.5C 1087.5,368.5 1087.5,369.5 1087.5,370.5C 1089.4,370.433 1091.23,370.767 1093,371.5C 1096.03,374.032 1099.2,376.366 1102.5,378.5C 1106.48,377.627 1109.48,379.127 1111.5,383C 1114.37,383.942 1117.04,385.109 1119.5,386.5C 1113.58,385.707 1107.91,384.04 1102.5,381.5C 1098,378.53 1093.34,375.697 1088.5,373C 1086.63,371.296 1084.96,369.463 1083.5,367.5 Z"/></g>
<g><path style="opacity:1" fill="#599d5d" d="M 1199.5,367.5 C 1195.45,373.882 1190.12,378.882 1183.5,382.5C 1184.79,379.34 1186.79,376.507 1189.5,374C 1193.22,373.392 1195.22,371.226 1195.5,367.5C 1196.83,367.5 1198.17,367.5 1199.5,367.5 Z"/></g>
<g><path style="opacity:1" fill="#579c57" d="M 885.5,375.5 C 885.5,375.167 885.5,374.833 885.5,374.5C 888.273,374.812 890.607,375.978 892.5,378C 895.167,378.333 897.833,378.667 900.5,379C 902.037,380.11 902.703,381.61 902.5,383.5C 904.781,383.077 906.448,383.744 907.5,385.5C 904.673,385.416 902.006,384.75 899.5,383.5C 894.837,380.835 890.17,378.168 885.5,375.5 Z"/></g>
<g><path style="opacity:1" fill="#5b9c60" d="M 990.5,375.5 C 986.864,378.323 982.864,380.656 978.5,382.5C 978.281,381.325 978.614,380.325 979.5,379.5C 983.211,378.08 986.877,376.747 990.5,375.5 Z"/></g>
<g><path style="opacity:1" fill="#619760" d="M 1179.5,383.5 C 1176,386.048 1172,387.381 1167.5,387.5C 1170.96,384.747 1174.96,383.413 1179.5,383.5 Z"/></g>
<g><path style="opacity:1" fill="#7db27c" d="M 825.5,383.5 C 825.833,383.5 826.167,383.5 826.5,383.5C 826.833,383.5 827.167,383.5 827.5,383.5C 827.5,384.5 827.5,385.5 827.5,386.5C 813.656,386.829 799.99,386.496 786.5,385.5C 799.876,386.148 812.876,385.481 825.5,383.5 Z"/></g>
<g><path style="opacity:1" fill="#619b61" d="M 975.5,383.5 C 975.5,383.833 975.5,384.167 975.5,384.5C 970.328,386.416 964.995,387.749 959.5,388.5C 962.519,386.693 965.852,385.193 969.5,384C 971.473,383.505 973.473,383.338 975.5,383.5 Z"/></g>
<g><path style="opacity:1" fill="#6aa36b" d="M 1241.5,383.5 C 1241.83,383.5 1242.17,383.5 1242.5,383.5C 1242.5,384.5 1242.5,385.5 1242.5,386.5C 1228.83,386.5 1215.17,386.5 1201.5,386.5C 1202.12,379.745 1201.46,373.412 1199.5,367.5C 1199.91,366.357 1200.57,365.357 1201.5,364.5C 1201.88,371.585 1202.88,378.418 1204.5,385C 1210.67,385.167 1216.83,385.333 1223,385.5C 1229.54,385.496 1235.7,384.83 1241.5,383.5 Z"/></g>
<g><path style="opacity:1" fill="#edfeeb" d="M 1201.5,386.5 C 1215.17,386.5 1228.83,386.5 1242.5,386.5C 1231.67,387.312 1220.67,387.979 1209.5,388.5C 1206.47,388.713 1203.81,388.047 1201.5,386.5 Z"/></g>
<g><path style="opacity:1" fill="#ebfbe8" d="M 899.5,383.5 C 902.006,384.75 904.673,385.416 907.5,385.5C 912.453,387.868 917.786,389.368 923.5,390C 935.519,390.699 947.519,390.533 959.5,389.5C 957.524,391.011 955.191,391.844 952.5,392C 934.756,393.614 917.422,391.781 900.5,386.5C 899.614,385.675 899.281,384.675 899.5,383.5 Z"/></g>
<g><path style="opacity:1" fill="#579d57" d="M 907.5,385.5 C 924.679,388.275 942.012,389.275 959.5,388.5C 959.5,388.833 959.5,389.167 959.5,389.5C 947.519,390.533 935.519,390.699 923.5,390C 917.786,389.368 912.453,387.868 907.5,385.5 Z"/></g>
<g><path style="opacity:1" fill="#e7fbe8" d="M 975.5,384.5 C 975.53,385.497 975.03,386.164 974,386.5C 970.667,387.833 967.333,389.167 964,390.5C 962.56,389.852 961.06,389.519 959.5,389.5C 959.5,389.167 959.5,388.833 959.5,388.5C 964.995,387.749 970.328,386.416 975.5,384.5 Z"/></g>
<g><path style="opacity:1" fill="#62a567" d="M 1121.5,387.5 C 1134.82,388.333 1148.15,388.666 1161.5,388.5C 1159.17,389.167 1156.83,389.833 1154.5,390.5C 1143.2,391.16 1132.2,390.16 1121.5,387.5 Z"/></g>
<g><path style="opacity:1" fill="#e9fce9" d="M 1179.5,383.5 C 1180.17,383.5 1180.83,383.5 1181.5,383.5C 1180.69,386.47 1178.69,388.303 1175.5,389C 1168.54,390.087 1161.54,390.587 1154.5,390.5C 1156.83,389.833 1159.17,389.167 1161.5,388.5C 1163.74,388.795 1165.74,388.461 1167.5,387.5C 1172,387.381 1176,386.048 1179.5,383.5 Z"/></g>
</svg>
