<?xml version="1.0" standalone="no"?>
<!DOCTYPE svg PUBLIC "-//W3C//DTD SVG 20010904//EN"
 "http://www.w3.org/TR/2001/REC-SVG-20010904/DTD/svg10.dtd">
<svg version="1.0" xmlns="http://www.w3.org/2000/svg"
 width="310.000000pt" height="180.000000pt" viewBox="0 0 310.000000 180.000000"
 preserveAspectRatio="xMidYMid meet">

<g transform="translate(0.000000,180.000000) scale(0.100000,-0.100000)"
fill="#000000" stroke="none">
<path d="M138 1314 c-56 -30 -58 -42 -58 -416 0 -323 1 -345 20 -375 37 -62
44 -63 418 -63 336 0 339 0 373 23 18 12 39 34 46 47 16 31 18 674 3 715 -10
27 -56 75 -72 75 -4 0 5 -12 21 -27 16 -16 32 -41 36 -58 6 -30 6 -30 -20 7
-28 42 -51 51 -114 46 -39 -3 -44 -6 -55 -39 -15 -42 -53 -99 -67 -99 -5 0 -9
9 -9 20 0 17 -2 17 -25 -6 -20 -20 -29 -23 -44 -14 -11 5 -80 10 -154 10 -74
0 -182 3 -240 7 l-107 6 0 38 c0 29 8 47 29 71 l29 33 354 5 353 6 -345 1
c-289 2 -349 0 -372 -13z m455 -181 l32 -16 -36 -16 c-32 -14 -35 -19 -26 -38
7 -16 6 -27 -3 -38 -12 -14 -51 -21 -61 -10 -3 2 -75 6 -160 7 l-154 3 -3 -52
-3 -53 193 0 c126 0 198 4 205 11 6 6 21 9 34 7 19 -2 24 -9 24 -33 0 -24 -5
-31 -24 -33 -13 -2 -28 1 -34 7 -7 7 -91 11 -249 11 -205 0 -238 2 -238 15 0
9 9 15 25 15 23 0 24 3 27 73 l3 72 175 3 c96 1 179 7 184 12 7 7 -1 10 -22
10 -35 0 -112 28 -112 40 0 14 23 18 108 19 59 1 92 -4 115 -16z m245 0 c83
-4 92 -6 92 -24 0 -17 -8 -19 -88 -19 -50 0 -93 -5 -99 -11 -19 -19 -58 -6
-61 19 -5 32 16 55 42 46 12 -4 63 -9 114 -11z m-74 -140 c4 -5 18 -8 29 -9
12 0 48 -1 80 -2 43 -2 57 -6 57 -17 0 -12 -15 -15 -79 -15 -44 0 -83 -4 -86
-10 -3 -5 -17 -10 -30 -10 -18 0 -26 7 -31 24 -3 14 -3 30 1 35 7 13 48 15 59
4z m60 -185 c8 -13 8 -23 -2 -38 -12 -20 -17 -156 -6 -185 6 -14 8 -13 18 5 6
12 26 31 44 42 l32 20 0 -45 c0 -50 -29 -95 -65 -100 -11 -1 -25 -6 -31 -9 -6
-4 -39 -3 -74 2 -48 7 -66 6 -72 -3 -6 -9 -12 -9 -28 1 -11 6 -36 12 -56 12
-47 0 -40 24 8 28 l36 3 4 65 c2 36 -1 69 -5 73 -5 5 -7 19 -5 32 4 33 53 40
63 9 4 -12 2 -27 -4 -33 -14 -14 -14 -136 -1 -157 8 -13 10 -13 10 1 0 21 21
38 51 41 23 3 24 7 29 93 3 50 2 94 -2 100 -10 11 -10 49 -1 59 12 12 45 2 57
-16z m-474 -23 c18 -21 3 -55 -25 -55 -13 0 -27 5 -30 10 -3 6 -50 10 -106 10
-81 0 -99 3 -99 15 0 12 18 15 99 15 56 0 103 4 106 10 9 15 41 12 55 -5z
m190 0 c10 -12 10 -21 1 -42 -7 -15 -12 -68 -11 -127 1 -56 1 -107 1 -113 -1
-16 -41 -17 -41 -2 0 7 -43 9 -143 4 -185 -10 -237 6 -237 70 0 14 9 15 62 9
35 -3 83 -11 108 -16 25 -5 82 -15 128 -22 l82 -13 0 101 c0 56 -4 108 -9 115
-23 36 32 69 59 36z m-150 -140 c6 -8 10 -22 8 -32 -3 -17 -15 -18 -148 -15
-80 2 -149 8 -154 12 -5 5 -6 16 -2 25 5 15 19 16 120 9 80 -5 115 -3 120 5
10 16 41 14 56 -4z"/>
<path d="M129 1261 c-16 -16 -29 -34 -29 -40 0 -7 35 -11 99 -11 l98 0 -19 40
c-19 39 -22 40 -70 40 -41 0 -54 -5 -79 -29z"/>
<path d="M1350 875 c0 -148 1 -155 20 -155 18 0 20 8 22 128 l3 127 35 -125
c35 -124 36 -125 65 -125 29 0 30 1 65 125 l35 125 3 -127 c2 -120 4 -128 22
-128 19 0 20 7 20 155 l0 155 -34 0 c-37 0 -34 8 -91 -192 -9 -32 -18 -58 -20
-58 -3 0 -26 73 -60 193 -16 55 -18 57 -51 57 l-34 0 0 -155z"/>
<path d="M1940 875 c0 -148 1 -155 20 -155 19 0 20 7 20 155 0 148 -1 155 -20
155 -19 0 -20 -7 -20 -155z"/>
<path d="M2058 1016 c-10 -7 -18 -25 -18 -40 0 -16 -5 -26 -15 -26 -8 0 -15
-9 -15 -20 0 -11 7 -20 15 -20 12 0 15 -16 15 -83 0 -91 8 -107 52 -107 33 0
36 13 8 37 -16 14 -20 30 -20 85 0 54 3 68 15 68 8 0 15 9 15 20 0 11 -6 20
-14 20 -10 0 -16 13 -18 39 -3 36 -5 38 -20 27z"/>
<path d="M2160 1010 c0 -13 7 -20 20 -20 13 0 20 7 20 20 0 13 -7 20 -20 20
-13 0 -20 -7 -20 -20z"/>
<path d="M2480 1010 c0 -13 7 -20 20 -20 13 0 20 7 20 20 0 13 -7 20 -20 20
-13 0 -20 -7 -20 -20z"/>
<path d="M2286 939 c-49 -39 -30 -90 44 -114 56 -19 67 -30 50 -50 -17 -21
-57 -18 -80 5 -19 19 -50 18 -50 -2 0 -5 12 -21 26 -35 49 -49 154 -14 154 52
0 29 -26 52 -84 71 -34 12 -46 21 -44 33 4 22 46 26 67 7 17 -15 51 -13 51 3
-1 23 -46 51 -83 51 -13 0 -36 -9 -51 -21z"/>
<path d="M2640 940 c-16 -16 -20 -17 -20 -5 0 8 -9 15 -20 15 -19 0 -20 -7
-20 -115 0 -108 1 -115 20 -115 18 0 20 7 20 78 0 83 16 122 49 122 33 0 41
-22 41 -112 0 -81 2 -88 20 -88 18 0 20 7 20 83 0 69 3 87 18 100 10 10 25 17
33 17 31 0 39 -24 39 -112 0 -81 2 -88 20 -88 19 0 20 7 20 100 0 87 -3 103
-20 120 -25 25 -60 26 -92 0 -25 -19 -26 -19 -43 0 -23 26 -60 25 -85 0z"/>
<path d="M1700 860 c0 -83 2 -93 25 -115 29 -30 68 -32 95 -5 l20 20 0 -20 c0
-13 7 -20 20 -20 19 0 20 7 20 115 0 108 -1 115 -20 115 -18 0 -20 -7 -20 -78
0 -84 -14 -112 -56 -112 -36 0 -44 20 -44 107 0 76 -2 83 -20 83 -19 0 -20 -7
-20 -90z"/>
<path d="M2160 835 c0 -108 1 -115 20 -115 19 0 20 7 20 115 0 108 -1 115 -20
115 -19 0 -20 -7 -20 -115z"/>
<path d="M2480 835 c0 -108 1 -115 20 -115 19 0 20 7 20 115 0 108 -1 115 -20
115 -19 0 -20 -7 -20 -115z"/>
</g>
</svg>
