<?xml version="1.0" standalone="no"?>
<!DOCTYPE svg PUBLIC "-//W3C//DTD SVG 20010904//EN"
 "http://www.w3.org/TR/2001/REC-SVG-20010904/DTD/svg10.dtd">
<svg version="1.0" xmlns="http://www.w3.org/2000/svg"
 width="388.000000pt" height="234.000000pt" viewBox="0 0 388.000000 234.000000"
 preserveAspectRatio="xMidYMid meet">

<g transform="translate(0.000000,234.000000) scale(0.100000,-0.100000)"
fill="#000000" stroke="none">
<path d="M0 1170 l0 -1170 1764 0 c1675 0 1765 1 1764 18 -1 14 59 150 247
557 108 233 105 223 105 301 l0 74 -40 0 -40 0 0 99 c0 107 -12 157 -39 166
-52 16 -71 -26 -71 -160 l0 -105 -45 0 -45 0 0 93 c0 142 -22 191 -74 171 -28
-11 -36 -48 -36 -160 l0 -104 -45 0 -45 0 0 160 0 160 45 0 c38 0 45 -3 45
-20 0 -18 2 -17 25 5 17 17 35 25 60 25 39 0 91 -22 97 -42 3 -9 16 -3 38 16
30 25 40 28 84 23 36 -3 55 -11 68 -27 17 -22 18 -11 18 342 l0 365 -97 93
c-226 217 -290 280 -285 285 3 3 -783 5 -1746 5 l-1752 0 0 -1170z m671 520
c49 -34 96 -63 104 -67 10 -3 43 19 89 61 l74 66 6 -27 c6 -28 25 -161 26
-175 0 -4 -150 -9 -332 -10 l-333 -3 0 -360 0 -360 350 0 c193 0 356 2 363 4
9 2 12 74 12 312 0 170 2 309 5 309 3 0 47 -35 98 -78 l93 -78 -43 -89 -43
-90 54 -194 54 -193 -32 -13 c-17 -7 -98 -34 -180 -60 l-148 -48 -153 41 c-85
23 -160 42 -168 42 -9 0 -31 -19 -50 -42 l-35 -42 -193 114 c-107 62 -196 115
-198 117 -8 6 64 737 74 746 10 9 393 175 408 176 4 1 48 -26 98 -59z m206
-265 c27 -18 28 -23 8 -49 -14 -19 -16 -19 -51 -2 -30 14 -42 15 -70 6 -67
-22 -83 -116 -27 -160 31 -24 63 -26 104 -4 28 14 32 14 50 -2 18 -16 18 -19
3 -35 -24 -27 -80 -42 -132 -36 -59 7 -116 63 -127 125 -12 72 41 156 110 175
32 9 106 -2 132 -18z m-318 1 c77 -40 60 -161 -26 -185 -21 -6 -50 -11 -65
-11 -26 0 -28 -3 -28 -45 0 -45 0 -45 -35 -45 l-35 0 0 150 0 150 80 0 c51 0
91 -5 109 -14z m1971 -113 c0 -86 1 -88 18 -65 22 29 85 39 135 23 53 -18 69
-66 65 -206 l-3 -110 -45 0 -45 0 -3 117 c-2 112 -4 119 -27 134 -61 40 -95
-18 -95 -161 l0 -95 -45 0 -45 0 0 225 0 225 45 0 45 0 0 -87z m-982 33 c46
-24 62 -53 62 -114 0 -45 -4 -58 -28 -82 -33 -32 -87 -50 -154 -50 l-48 0 0
-75 0 -75 -45 0 -45 0 0 203 c0 112 3 207 8 212 13 13 217 -2 250 -19z m752 6
c37 -18 80 -74 80 -103 0 -16 -8 -19 -45 -19 -38 0 -47 4 -54 23 -28 72 -135
67 -166 -7 -19 -45 -19 -127 0 -172 31 -74 131 -79 161 -7 13 31 18 33 60 33
46 0 46 0 41 -30 -27 -132 -238 -169 -332 -58 -80 95 -50 279 54 335 55 29
149 32 201 5z m730 -90 c47 -23 59 -62 59 -199 l1 -113 -45 0 c-40 0 -45 3
-45 22 l0 22 -20 -22 c-16 -17 -32 -22 -73 -22 -64 0 -94 19 -103 65 -14 75
33 120 136 132 44 5 50 9 50 29 0 44 -72 55 -85 13 -5 -15 -16 -19 -51 -19
-48 0 -52 6 -30 48 30 58 135 80 206 44z m330 -22 c0 -36 -2 -40 -26 -40 -64
0 -84 -40 -84 -166 l0 -84 -45 0 -45 0 0 160 0 160 45 0 c42 0 45 -2 45 -27 1
-26 1 -27 12 -8 17 30 40 44 71 45 25 0 27 -3 27 -40z m-1630 18 c0 -23 63
-218 69 -213 3 4 19 54 37 113 l31 107 52 3 c29 2 51 -1 50 -5 -2 -5 -35 -89
-74 -187 -84 -216 -107 -246 -185 -246 -49 0 -50 1 -50 30 0 23 5 30 19 30 30
0 51 11 61 31 8 14 -2 48 -41 146 -28 70 -57 145 -65 166 l-13 37 54 0 c37 0
55 -4 55 -12z m-1090 -338 c0 -19 -7 -20 -135 -20 -128 0 -135 1 -135 20 0 19
7 20 135 20 128 0 135 -1 135 -20z"/>
<path d="M440 1335 c0 -44 1 -45 31 -45 42 0 69 17 69 43 0 33 -19 47 -62 47
l-38 0 0 -45z"/>
<path d="M1380 1235 l0 -56 57 3 c50 3 59 6 72 29 13 24 13 29 -2 53 -15 23
-24 26 -72 26 l-55 0 0 -55z"/>
<path d="M2910 1076 c-20 -25 -8 -61 21 -64 32 -4 59 21 59 54 0 21 -5 24 -34
24 -18 0 -39 -7 -46 -14z"/>
<path d="M3720 2332 c0 -4 36 -38 80 -75 l80 -68 0 75 0 76 -80 0 c-44 0 -80
-3 -80 -8z"/>
</g>
</svg>
