<?xml version="1.0" standalone="no"?>
<!DOCTYPE svg PUBLIC "-//W3C//DTD SVG 20010904//EN"
 "http://www.w3.org/TR/2001/REC-SVG-20010904/DTD/svg10.dtd">
<svg version="1.0" xmlns="http://www.w3.org/2000/svg"
 width="866.000000pt" height="650.000000pt" viewBox="0 0 866.000000 650.000000"
 preserveAspectRatio="xMidYMid meet">

<g transform="translate(0.000000,650.000000) scale(0.100000,-0.100000)"
fill="#000000" stroke="none">
<path d="M817 4012 c-108 -108 -197 -201 -197 -205 0 -5 121 -131 270 -280
l269 -272 -269 -270 c-149 -149 -270 -275 -270 -280 0 -6 89 -99 198 -208
l197 -197 337 0 337 0 76 75 76 76 47 -40 c26 -21 65 -58 87 -80 l39 -41 341
0 340 0 -272 272 -273 273 -248 -248 -247 -247 -180 180 -180 180 275 275 275
275 -280 280 -280 280 183 182 182 183 245 -245 245 -245 263 263 262 262
-335 0 -335 0 -78 -77 -77 -78 -77 78 -76 77 -336 0 -336 0 -198 -198z"/>
<path d="M7716 3915 c-123 -47 -187 -169 -151 -290 31 -108 119 -174 231 -175
212 -1 320 247 175 403 -59 65 -175 93 -255 62z m175 -53 c43 -22 59 -38 82
-82 25 -47 28 -63 23 -109 -10 -106 -94 -182 -201 -182 -182 0 -270 218 -138
343 66 63 150 74 234 30z"/>
<path d="M7702 3688 c3 -125 5 -143 20 -146 14 -3 17 7 20 60 3 55 6 63 23 66
16 2 31 -13 62 -63 30 -45 48 -65 63 -65 11 0 20 2 20 5 0 3 -17 31 -37 62
-29 43 -35 57 -24 61 28 9 61 51 61 77 0 62 -41 85 -147 85 l-64 0 3 -142z
m154 76 c21 -31 -2 -55 -59 -61 l-47 -6 0 47 0 47 46 -3 c34 -2 50 -9 60 -24z"/>
<path d="M2910 3904 c0 -4 79 -160 175 -349 l175 -343 -175 -296 c-96 -163
-175 -299 -175 -301 0 -3 33 -5 74 -5 l74 0 132 225 c73 124 136 225 141 225
4 0 59 -101 121 -225 l113 -225 123 0 c67 0 122 2 122 5 0 3 -77 160 -172 349
l-172 344 172 294 c95 162 172 297 172 301 0 4 -31 7 -69 7 l-70 0 -64 -107
c-35 -60 -97 -164 -137 -233 l-73 -124 -115 232 -115 232 -129 0 c-70 0 -128
-3 -128 -6z"/>
<path d="M3890 3260 l0 -650 110 0 110 0 -2 648 -3 647 -107 3 -108 3 0 -651z"/>
<path d="M4290 3260 l0 -650 330 0 330 0 0 55 0 55 -220 0 -220 0 0 595 0 595
-110 0 -110 0 0 -650z"/>
<path d="M5060 3260 l0 -650 110 0 110 0 0 650 0 650 -110 0 -110 0 0 -650z"/>
<path d="M5440 3260 l0 -650 70 0 70 0 0 463 0 462 22 -35 c11 -19 29 -48 38
-65 10 -16 100 -169 200 -340 101 -170 206 -349 234 -397 l51 -88 128 0 127 0
-2 648 -3 647 -67 3 -68 3 0 -498 c0 -417 -2 -495 -13 -483 -11 12 -326 537
-536 893 l-52 87 -99 0 -100 0 0 -650z"/>
<path d="M6470 3903 c0 -7 180 -365 281 -558 l68 -130 -171 -290 c-94 -160
-173 -296 -175 -302 -4 -10 14 -13 70 -13 l74 0 89 153 c48 83 109 187 135
230 l47 79 118 -231 119 -231 123 0 c67 0 122 2 122 5 0 3 -77 159 -171 347
-170 341 -171 342 -156 373 8 17 85 152 171 298 86 147 156 269 156 272 0 3
-32 5 -72 3 l-72 -3 -56 -95 c-32 -52 -92 -155 -135 -229 l-79 -134 -115 232
-116 231 -127 0 c-71 0 -128 -3 -128 -7z"/>
</g>
</svg>
